<?xml version="1.0" encoding="utf-8"?>
<!-- Generator: Adobe Illustrator 24.1.0, SVG Export Plug-In . SVG Version: 6.00 Build 0)  -->
<svg version="1.1" xmlns="http://www.w3.org/2000/svg" xmlns:xlink="http://www.w3.org/1999/xlink" x="0px" y="0px"
	 viewBox="0 0 250 250" style="enable-background:new 0 0 250 250;" xml:space="preserve">
<style type="text/css">
	.st0{fill:#FFFFFF;}
</style>
<g id="Layer_2">
	<g id="gWJ1IP_1_">
		<g>
			<path class="st0" d="M142.98,6.98c0.42,1.75,0.83,3.43,1.24,5.14c-8.83,1.24,6.73,6.2,8.77,7.97c5.25,2.06,10.09,6.73,15.8,6.86
				c0.65-0.05,1,0.2,1.27,0.75c3.13,6.59,6.49,13.09,9.77,19.6c-1.48,0.88-2.93,1.74-4.38,2.6c2.84-0.22,6.89,0.27,8.15,2.98
				c0.18,0.56,0.52,0.85,1.14,0.85c1.19-0.01,2.41-0.2,3.45,0.66c4.05,0.11,8.22-0.01,12.31,0.04c2.73-0.11,1.92,3.27,1.91,5.03
				c-2.02,3.49-13.45,1.48-17.58,1.99c-0.56,0-0.87,0.19-1.22,0.59c-1.84,2.55-5.09,2.52-7.95,2.82c-3.81,0.46-7.98,1.71-11.15-1.24
				c-2.08-2.39-2.4-3.73,1.42-3.3c-0.44-1.4-0.52-2.75,0.32-4.32c-1.78,0.18-3.42,0.34-5.03,0.5c-3.8-6.59-9.57-12.68-12.22-19.65
				c2.77-5.47,0.26-4.75-4.08-7.03c-4.67,1.71-10.48,1.9-15.53,2.89c-0.92-0.91-1.37-2.43-2.11-3.62c0.39-0.27,0.81-0.56,1.21-0.84
				c-1.07-0.62-1.81,0.39-2.69,0.69c-4.6,1.37-7.31,5.15-9.13,9.39c-4.52,0.83-9.14,1.07-13.41,2.34c-2.86,1.8-6.44,2.06-9.61,1.01
				c-0.33,0.37-0.72,0.81-1.22,1.37c2.24,1.45,3.92,5.46,6.65,5.19c0.81-0.19,1.97-0.51,2.22,0.65c1.04-0.38,8.23-2.96,7.6-0.67
				c-0.2,0.5,0.05,1.19,0.09,1.72c3.15,0.44,9.38-1.83,10.78,1.79c0.04,0.55,0.36,0.77,0.93,0.76c5.36-0.32,9.99,0.79,15.35,0.52
				c1.37,1.98,0.41,4.41,1.3,6.51c4.08-0.66,2.51,7.09,2.52,9.65c-0.01,0.18,0.15,0.52,0.19,0.52c2.14,0.38,4.51,6.07,4.64,8.23
				c1.15-0.26,1.64-0.1,1.76,0.74c0.44-0.31,0.75-1.34,1.28-0.56c1.65,0.21,3.36,0.01,5.28,0.08c0.75,6.26,2.17,11.6-6.38,9.07
				c0.02-0.08,0.04-0.16,0.06-0.25c-0.89,0.8-1.55,0.73-2.53,0.05c-0.14,0.16-0.43,0.49-0.71,0.82c-0.08-0.02-0.16-0.05-0.24-0.07
				c0.16,0.86,0.32,1.71,0.49,2.68c-0.59,0-1.07,0-1.8,0c0.8,2.08,0.31,3.74-0.93,5.53c6.74,4.94,11.27,8.37,20.01,7.17
				c0.52-2.47,0.12-2.09,2.43-2.11c2.49-0.02,4.99,0.01,7.48-0.01c1.55-0.1,0.96,1.63,1.58,2.65c6.61,0,13.28,0,19.9,0
				c0.38,0,0.91-0.18,0.71,0.7c2.74-2.74,2.77,1.9,2.98,3.74c-0.32,1.92,0.42,5.84-2.63,5.23c0.38,1.26,0.64,7.56-1.16,7.22
				c-7.31,0-14.61,0-21.92,0c-0.3,0.87-0.59,1.73-0.89,2.6c-0.92-0.6-1.9-0.19-2.94-0.33c0,1.24,0,2.39,0,3.59c-0.4,0-0.7,0-1.26,0
				c3.58,4.24,3.24,7.18,9.38,4.39c1.85,7.29,6.75,14.05,7.14,21.4c-0.09,3.15-1.66,6.17-1.13,9.32c1.8,7.66,2.69,15.49,4.35,23.17
				c0.28,2.2-2.23,3.94-4.33,3.04c-4.52-7.87-6.22-17.98-11.71-25.07c-2.57,0.46-4.85,2.8-5.43-1.03c-2.12,1.35-4.25,2.7-6.62,4.21
				c0.95,6.75,1.29,13.88,2.69,20.59c0.15,2.76-3.37,3.94-4.87,1.72c-3.13-7.05-5.86-14.46-8.1-21.85c-0.1-0.45-0.28-0.55-0.73-0.42
				c-1.72,0.64-3.77,0.43-5.39-0.32c-3.78-4.99-6.24-11.43-9.65-16.33c-2.3,1.34-23.53-2.5-17.57-5.63c-1.26-1.32-6.86-2.01-5.25-4
				c-2.22,0.41-4.34,0.79-6.52,1.19c0.15,1.65,0.3,3.21,0.44,4.78c-5.37,3.65-14.23,15.9-20.02,15.4c0,0.08-0.01,0.16-0.01,0.23
				c-0.25-0.24-0.51-0.47-0.76-0.71c-5.54,4.38-9.5,10.53-12.57,16.87c-1.58,2.21-1.15,5.97-4.18,6.81
				c-8.69,0.12,4.88-29.08,8.44-32.42c-1.11-1.04-2.28-2.14-3.49-3.28c4.17-4.76,8.37-9.22,12.5-13.98
				c1.38-1.46,2.43-3.56,4.72-3.53c1.56-0.42,2.85,0.93,4.42,0.48c7.35-1.82,14.79-3.16,22.17-4.76c-1.28-1.6-3.27-2.38-3.86-4.19
				c-0.25-0.94-0.57-1.36-1.7-1.49c-3.9-0.31-7.61-1.9-11.28-3.26c0.14-1.36,0.28-2.74,0.42-4.12c-0.64-0.13-1.25-0.26-1.84-0.38
				c0.22-1.63,0.21-1.6-1.32-2.23c-1.67-1.33-11.09-6.97-4.18-6.65c-2.09-2.1-2.57-4.91-1.11-7.51c-3.54-0.14,0.09-2.79,1.28-4.07
				c-1.59-16.73-8.54-7.51-6.88-22.16c0.03-0.59,0.66-1.23-0.43-1.64c-0.3,1.92,0.75,4.18-0.69,5.8c-0.77,2.3-4.44,5.9-6.48,3.1
				c-7.1,5.13-4.1-1.33-9.49,1.21c-0.23,2.01,0.92,3.75,1.25,5.65c1.14,0.19,1.4-0.08,1.69,1.25c4.01,15,7.64,30.23,11.93,45.12
				c-7.77,2.18-8.79,3.26-14.48-2.98c-12.66-13.74-20.92-31.68-22.77-50.27c-1.98-12.45-0.48-25.29,3.55-37.24
				c2.32-1.87,6.17-1.98,9.17-2.04c2.52,7.51,3.73,15.78,6.2,23.4c-2.96,0.75-5.97,1.51-9.1,2.3c0.53,2.04,1.04,4.04,1.6,6.18
				c2.77-1.18,5.93-0.93,7.02-4.03c1.58-4.24,9.33-9.71,3.48-13.36c1.09-1.43,2.82-2.52,3.43-4.2c-0.28-2.78,1.36-5.24,4.21-5.84
				c3.22-0.97,5.88-4.14,8.37-6.4c4.24-2.7,3.16-3.61,4.31-7.79c1.36-3.06,4.8-3.85,7.04-5.89c1.09-1.07,2.12-1.09,3.22-0.03
				c4.3-0.93,3.06-1.55,2.21-5.06c-2.44,0.7-2.59,0.19-3.06-2.11c-6.9,0.66-14.22,4.1-21.35,5.37c0.85,3.1,1.69,6.15,2.54,9.25
				c-9.18,1.99-18.1,5.37-27.44,6.59c-0.25-1.11-0.63-2.27-0.82-3.4c-1.22-2.47,4.81-6.27,6.24-8.37
				C77.49,3.97,113.14-3.19,142.98,6.98z M89.3,136.87c-0.08,0.08-0.29,0.18-0.32,0.32c-0.23,1.09-1.17,1.01-1.94,1.24
				c-1.76,0.38-2.76,2.47-3.86,3.51c2.29,2.42,4.52,4.77,6.92,7.31c0.72-1.28,2.15-1.76,2.31-3.07c-0.01-1.64,1.36-2.65,2.98-2.49
				c0.45-7.74-0.84-2.35-4.05-5.58C90.85,137.39,90.15,137.19,89.3,136.87z"/>
		</g>
	</g>
</g>
<g id="Layer_3">
	<g>
		<path class="st0" d="M2.14,220.82h11.18c3.8,0,6.74,1.37,8.83,4.09c1.87,2.46,2.8,5.62,2.8,9.46c0,2.97-0.55,5.66-1.65,8.06
			c-1.94,4.24-5.28,6.36-10.02,6.36H2.14V220.82z M12.58,245.56c1.25,0,2.28-0.13,3.09-0.4c1.44-0.5,2.62-1.45,3.54-2.86
			c0.73-1.13,1.26-2.58,1.58-4.34c0.19-1.05,0.28-2.03,0.28-2.93c0-3.47-0.67-6.16-2.02-8.07s-3.52-2.88-6.51-2.88H5.97v21.48H12.58
			z"/>
		<path class="st0" d="M31.67,220.82h20.3v3.43H35.36v8.49h15.35v3.24H35.36v9.48h16.89v3.33H31.67V220.82z"/>
		<path class="st0" d="M60.96,239.77c0.09,1.59,0.45,2.88,1.08,3.87c1.21,1.85,3.34,2.78,6.4,2.78c1.37,0,2.62-0.2,3.74-0.61
			c2.18-0.79,3.27-2.2,3.27-4.23c0-1.52-0.46-2.61-1.38-3.26c-0.93-0.63-2.4-1.19-4.39-1.66l-3.67-0.86
			c-2.4-0.56-4.1-1.17-5.09-1.85c-1.72-1.17-2.58-2.91-2.58-5.24c0-2.51,0.85-4.58,2.54-6.19s4.09-2.42,7.19-2.42
			c2.85,0,5.28,0.71,7.27,2.12c2,1.42,2.99,3.68,2.99,6.79h-3.56c-0.18-1.5-0.57-2.65-1.17-3.45c-1.11-1.46-2.99-2.19-5.64-2.19
			c-2.14,0-3.68,0.47-4.62,1.41c-0.94,0.94-1.41,2.03-1.41,3.28c0,1.37,0.55,2.37,1.66,3.01c0.73,0.41,2.37,0.91,4.93,1.52l3.8,0.9
			c1.83,0.43,3.25,1.02,4.24,1.77c1.72,1.31,2.58,3.21,2.58,5.69c0,3.1-1.1,5.31-3.3,6.65s-4.75,2-7.66,2
			c-3.39,0-6.05-0.89-7.97-2.67c-1.92-1.76-2.86-4.16-2.82-7.18H60.96z"/>
		<path class="st0" d="M106.01,220.82v3.33h-9.43v24.64h-3.83v-24.64h-9.43v-3.33H106.01z"/>
		<path class="st0" d="M111.12,220.82h12.72c2.09,0,3.82,0.31,5.18,0.93c2.58,1.19,3.87,3.4,3.87,6.61c0,1.68-0.35,3.05-1.04,4.11
			c-0.69,1.07-1.66,1.92-2.9,2.57c1.09,0.44,1.91,1.03,2.46,1.75c0.55,0.72,0.86,1.9,0.92,3.52l0.13,3.75
			c0.04,1.07,0.12,1.86,0.27,2.38c0.23,0.89,0.63,1.46,1.22,1.71v0.63h-4.65c-0.13-0.24-0.23-0.55-0.3-0.93s-0.14-1.12-0.19-2.21
			l-0.23-4.67c-0.09-1.83-0.75-3.05-1.98-3.67c-0.7-0.34-1.81-0.51-3.31-0.51h-8.38v12h-3.79V220.82z M123.43,233.64
			c1.73,0,3.09-0.36,4.1-1.07c1.01-0.71,1.51-1.99,1.51-3.85c0-1.99-0.71-3.35-2.11-4.08c-0.75-0.38-1.76-0.57-3.02-0.57h-9v9.56
			H123.43z"/>
		<path class="st0" d="M163.04,224.82c1.85,2.47,2.78,5.64,2.78,9.5c0,4.18-1.06,7.65-3.18,10.42c-2.49,3.25-6.04,4.88-10.65,4.88
			c-4.3,0-7.69-1.42-10.15-4.27c-2.2-2.74-3.29-6.21-3.29-10.4c0-3.78,0.94-7.02,2.82-9.71c2.41-3.45,5.98-5.18,10.7-5.18
			C157.01,220.06,160.67,221.65,163.04,224.82z M159.7,242.65c1.49-2.39,2.24-5.15,2.24-8.26c0-3.29-0.86-5.94-2.58-7.95
			c-1.72-2.01-4.07-3.01-7.06-3.01c-2.89,0-5.26,0.99-7.08,2.98c-1.83,1.99-2.74,4.92-2.74,8.8c0,3.1,0.78,5.71,2.35,7.84
			c1.57,2.13,4.11,3.19,7.63,3.19C155.79,246.25,158.21,245.05,159.7,242.65z"/>
		<path class="st0" d="M168.17,220.82h4.42l8.04,13.45l8.04-13.45h4.46l-10.59,16.7v11.27h-3.79v-11.27L168.17,220.82z"/>
		<path class="st0" d="M197.88,220.82h20.3v3.43h-16.61v8.49h15.35v3.24h-15.35v9.48h16.89v3.33h-20.59V220.82z"/>
		<path class="st0" d="M225.16,220.82h12.72c2.09,0,3.82,0.31,5.18,0.93c2.58,1.19,3.87,3.4,3.87,6.61c0,1.68-0.35,3.05-1.04,4.11
			c-0.69,1.07-1.66,1.92-2.9,2.57c1.09,0.44,1.91,1.03,2.47,1.75c0.55,0.72,0.86,1.9,0.92,3.52l0.13,3.75
			c0.04,1.07,0.13,1.86,0.27,2.38c0.23,0.89,0.63,1.46,1.22,1.71v0.63h-4.65c-0.13-0.24-0.23-0.55-0.3-0.93s-0.14-1.12-0.19-2.21
			l-0.23-4.67c-0.09-1.83-0.75-3.05-1.98-3.67c-0.7-0.34-1.81-0.51-3.31-0.51h-8.38v12h-3.79V220.82z M237.46,233.64
			c1.73,0,3.09-0.36,4.1-1.07c1.01-0.71,1.51-1.99,1.51-3.85c0-1.99-0.7-3.35-2.11-4.08c-0.75-0.38-1.76-0.57-3.02-0.57h-9v9.56
			H237.46z"/>
	</g>
</g>
</svg>
