<?xml version="1.0" encoding="utf-8"?>
<!-- Generator: Adobe Illustrator 24.1.0, SVG Export Plug-In . SVG Version: 6.00 Build 0)  -->
<svg version="1.1" id="Layer_2" xmlns="http://www.w3.org/2000/svg" xmlns:xlink="http://www.w3.org/1999/xlink" x="0px" y="0px"
	 viewBox="0 0 250 250" style="enable-background:new 0 0 250 250;" xml:space="preserve">
<style type="text/css">
	.st0{fill:#FFFFFF;}
</style>
<path class="st0" d="M141.1,169.3c-43.4,0-78.5-35.1-78.5-78.5c0-43.3,35.1-78.5,78.5-78.5c20.8,0,39.7,8.1,53.8,21.3
	c-16.7-19.3-41.3-31.5-68.8-31.5c-50.2,0-90.9,40.7-90.9,90.9S75.9,184,126.1,184c37.4,0,69.5-22.6,83.4-54.8
	C196,153.1,170.5,169.3,141.1,169.3z"/>
<path class="st0" d="M194.4,95.8c-1.5,0.2-3.9,0.4-7.6,0.4c-3.6,0-17.4-0.3-20.1-1.9c0,0-0.9-0.5-4.6-0.5c-2,0-3.9,0.1-3.9,0.2
	l-1.6,0.1l-11.6-18.5l1.7-1.4c2.6-2.3,5.2-5.1,5.5-6c0.4-1.4,0.8-6.9,0.9-10.3l0-1.1l10.9-9.8c-6.6-2.5-12.8-5-12.8-5l-2.5,3
	l-3.5-4.5L116.8,27l8,21l5,8l-6.5-5c0,0-17.6,7-18.6,12.5c-1,5.5,2,11.5,2,11.5s-24.6,22.1-24.6,25.6c0,3.5,25.6,15,25.6,15l18.6-8
	h6c0,0,23.1,18.1,19.1,28.6c-2.8,7.3-8.4,20-11.6,27.2c23.2-2.9,39.5-12.5,48.4-28.5C197,119.1,195.7,101.4,194.4,95.8z M117.4,76.2
	c0,0-1.9-0.3-2.7-1.1c-0.5-0.5-0.6-1.9-0.6-1.9l-1.5-0.6l9.2-0.1L117.4,76.2z"/>
<path class="st0" d="M214.5,78.7c-2.8-32.1-13.4-36.8-26.8-42.8c-4.6-2-9.6-4.3-14.5-7.8c1.5,3.2,3.3,7,5.1,10.4l0.9,1.8l-20.9,18.8
	c-0.1,2.6-0.4,8.3-1,10.5c-0.6,2.1-3.3,5-5.4,6.9l7.6,12.2c0.8,0,1.7-0.1,2.7-0.1c4.5,0,6.2,0.7,7.1,1.2c1.1,0.4,9.3,1.2,17.5,1.2
	c5.4,0,7.1-0.3,7.6-0.5l0.5-0.4l1,0c1.2,0,3.9,0,4.5,12.8c0.4,9.5-0.7,33.8-20.7,50.3c6.4-3.4,12.6-7.8,17.9-13.7
	C211,125,216.7,104.5,214.5,78.7z M170.3,66.3c0,0-1.7-0.5-2.3-1.5c-0.4-0.5-0.3-1.9-0.3-1.9l-1.3-0.8l8.4,1.4L170.3,66.3z"/>
<g>
	<path class="st0" d="M13.5,215.3h17v4.2h-12v5.5H29v4.1H18.4v10h-4.9V215.3z"/>
	<path class="st0" d="M49.3,236.9c-1.8,1.8-4.4,2.8-7.8,2.8c-3.4,0-6-0.9-7.8-2.8c-2.4-2.3-3.6-5.5-3.6-9.8c0-4.4,1.2-7.6,3.6-9.8
		c1.8-1.8,4.4-2.8,7.8-2.8c3.4,0,6,0.9,7.8,2.8c2.4,2.2,3.6,5.5,3.6,9.8C52.9,231.4,51.7,234.7,49.3,236.9z M46.2,233.3
		c1.2-1.5,1.7-3.5,1.7-6.2c0-2.7-0.6-4.7-1.7-6.2c-1.2-1.5-2.7-2.2-4.7-2.2s-3.5,0.7-4.7,2.2c-1.2,1.5-1.8,3.5-1.8,6.2
		c0,2.7,0.6,4.7,1.8,6.2c1.2,1.5,2.7,2.2,4.7,2.2S45.1,234.8,46.2,233.3z"/>
	<path class="st0" d="M54.1,215.3h5v14.6c0,1.6,0.2,2.8,0.6,3.6c0.6,1.3,1.9,2,3.9,2c2,0,3.3-0.7,3.9-2c0.4-0.8,0.6-1.9,0.6-3.6
		v-14.6h5v14.6c0,2.5-0.4,4.5-1.2,5.9c-1.5,2.6-4.2,3.9-8.4,3.9s-6.9-1.3-8.4-3.9c-0.8-1.4-1.2-3.4-1.2-5.9V215.3z"/>
	<path class="st0" d="M90.5,215.9c0.9,0.4,1.6,0.9,2.2,1.7c0.5,0.6,0.9,1.3,1.2,2c0.3,0.7,0.4,1.6,0.4,2.5c0,1.1-0.3,2.2-0.9,3.3
		c-0.6,1.1-1.5,1.9-2.8,2.3c1.1,0.4,1.9,1.1,2.3,1.9c0.5,0.8,0.7,2.1,0.7,3.7v1.6c0,1.1,0,1.8,0.1,2.2c0.1,0.6,0.4,1.1,0.9,1.4v0.6
		h-5.5c-0.2-0.5-0.3-1-0.3-1.3c-0.1-0.7-0.2-1.3-0.2-2l0-2.2c0-1.5-0.3-2.5-0.8-3c-0.5-0.5-1.4-0.8-2.8-0.8h-4.9v9.3h-4.9v-23.8
		h11.4C88.4,215.3,89.7,215.5,90.5,215.9z M80.3,219.4v6.4h5.3c1.1,0,1.9-0.1,2.4-0.4c0.9-0.5,1.4-1.3,1.4-2.7
		c0-1.4-0.5-2.4-1.4-2.9c-0.5-0.3-1.3-0.4-2.3-0.4H80.3z"/>
	<path class="st0" d="M119,228.7c-1.4,1.2-3.4,1.7-6,1.7h-5v8.5h-4.9v-23.8h10.2c2.4,0,4.2,0.6,5.6,1.8c1.4,1.2,2.1,3.1,2.1,5.7
		C121.1,225.6,120.4,227.6,119,228.7z M115.2,220.2c-0.6-0.5-1.5-0.8-2.6-0.8h-4.5v7h4.5c1.1,0,2-0.3,2.6-0.9
		c0.6-0.6,0.9-1.5,0.9-2.7S115.8,220.7,115.2,220.2z"/>
	<path class="st0" d="M126.8,215.3h5.6l8.4,23.8h-5.4l-1.6-4.9h-8.8l-1.6,4.9h-5.2L126.8,215.3z M126.5,230.1h6.1l-3-9.4
		L126.5,230.1z"/>
	<path class="st0" d="M142.6,215.3l3.1,13.6l0.7,3.8l0.7-3.7l2.7-13.7h5.2l2.8,13.6l0.7,3.8l0.7-3.6l3.2-13.8h5.1l-6.7,23.8h-4.8
		l-2.9-13.9l-0.8-4.6l-0.8,4.6l-2.9,13.9h-4.6l-6.7-23.8H142.6z"/>
	<path class="st0" d="M171.5,231.7c0.2,1.1,0.5,1.9,0.9,2.4c0.8,1,2.2,1.5,4.2,1.5c1.2,0,2.2-0.1,2.9-0.4c1.4-0.5,2.1-1.4,2.1-2.8
		c0-0.8-0.3-1.4-1-1.8c-0.7-0.4-1.8-0.8-3.3-1.1l-2.6-0.6c-2.5-0.6-4.3-1.2-5.2-1.8c-1.6-1.1-2.4-2.8-2.4-5.1c0-2.1,0.8-3.9,2.4-5.3
		c1.6-1.4,3.9-2.1,6.9-2.1c2.5,0,4.7,0.7,6.5,2c1.8,1.3,2.7,3.3,2.8,5.8H181c-0.1-1.4-0.7-2.4-1.9-3c-0.8-0.4-1.8-0.6-3-0.6
		c-1.3,0-2.4,0.3-3.1,0.8c-0.8,0.5-1.2,1.2-1.2,2.2c0,0.8,0.4,1.5,1.2,1.9c0.5,0.3,1.5,0.6,3.2,1l4.2,1c1.8,0.4,3.2,1,4.1,1.7
		c1.4,1.1,2.1,2.7,2.1,4.9c0,2.2-0.8,4-2.5,5.4c-1.7,1.4-4.1,2.2-7.1,2.2c-3.1,0-5.6-0.7-7.4-2.1c-1.8-1.4-2.7-3.4-2.7-5.8H171.5z"
		/>
	<path class="st0" d="M192,215.3h2.3l7.2,21.1l7.1-21.1h2.3l-8.3,23.8h-2.5L192,215.3z"/>
	<path class="st0" d="M212.5,239v-23.8h3.4l7.8,21h0.1l7.7-21h3.4V239h-2.2v-21.2h-0.1l-7.8,21.2h-2.1l-7.8-21.2h-0.1V239H212.5z"/>
</g>
</svg>
