<?xml version="1.0" encoding="utf-8"?>
<!-- Generator: Adobe Illustrator 24.1.0, SVG Export Plug-In . SVG Version: 6.00 Build 0)  -->
<svg version="1.1" id="GitHub" xmlns="http://www.w3.org/2000/svg" xmlns:xlink="http://www.w3.org/1999/xlink" x="0px" y="0px"
	 viewBox="0 0 250 250" style="enable-background:new 0 0 250 250;" xml:space="preserve">
<style type="text/css">
	.st0{fill:#FFFFFF;}
	.st1{fill:#05BAE5;}
</style>
<circle class="st0" cx="124.8" cy="126.9" r="123.1"/>
<g id="UNAWBL.tif">
	<g>
		<path class="st1" d="M128.3,3.8C264.9,11.2,293.1,195.4,165,243c-4.6,1.8-9.9-0.6-9.4-6.1c-1.2-16.8,5.1-43.1-7.9-55.6
			c17.6-2,36.7-7.9,46.6-23.5c12.1-20.4,14.1-50.5-2.3-69.2c-0.7-0.7-1-1.3-0.6-2.4c3.4-10.3,2.4-20.5-1.3-30.6
			c-1.8-2.6-7.4-0.6-10-0.4c-5.5,1.3-10.5,4.2-15.4,6.9c-3.4,1.4-6.5,4.9-10.2,4.8c-11-3-22.2-4.2-33.5-3.8c-9,0-17.9,2.1-26.6,3.8
			c-8.8-4.8-17.4-11.1-27.7-12c-2.2,0.1-5.8-1.8-6.7,1c-3.7,10.1-4.5,20.2-1.2,30.5c0.2,0.6-0.2,1.6-0.6,2
			c-13.7,15.3-13.7,37.9-8.2,56.7c6.5,23.5,29.5,33.9,52.1,36.1c-11.4,11.8-0.1,17.3-18.9,19.3c-21.3,1.7-20.9-15.9-35.3-24
			c-3.8-2.8-19.1-3.2-11.1,4c24.4,15.3,8.1,41.5,57.3,34.3c0.7,31.7,2.9,35.3-28.5,19.6c-27.8-15.2-49.1-41.4-58.3-71.8
			C-17.8,83.3,45.2,1,128.3,3.8z"/>
	</g>
</g>
</svg>
