<?xml version="1.0" encoding="utf-8"?>
<!-- Generator: Adobe Illustrator 24.1.0, SVG Export Plug-In . SVG Version: 6.00 Build 0)  -->
<svg version="1.1" id="Layer_2" xmlns="http://www.w3.org/2000/svg" xmlns:xlink="http://www.w3.org/1999/xlink" x="0px" y="0px"
	 viewBox="0 0 250 250" style="enable-background:new 0 0 250 250;" xml:space="preserve">
<style type="text/css">
	.st0{fill:#FFFFFF;}
	.st1{fill-rule:evenodd;clip-rule:evenodd;fill:#FFFFFF;}
</style>
<g>
	<path class="st0" d="M102.4,241.4c0,2.4-0.4,4.3-1.1,5.6c-1.3,2.4-3.9,3.7-7.6,3.7c-2.2,0-4-0.6-5.5-1.7c-1.5-1.2-2.3-3.2-2.3-6.2
		v-2.1h3.7v2.1c0,1.6,0.3,2.7,1,3.5s1.8,1.2,3.3,1.2c2.1,0,3.4-0.7,4.1-2.1c0.4-0.9,0.6-2.5,0.6-4.9v-19.1h3.8V241.4z"/>
	<path class="st0" d="M131.2,225.4c1.9,2.5,2.9,5.8,2.9,9.7c0,4.3-1.1,7.8-3.3,10.7c-2.6,3.3-6.2,5-10.9,5c-4.4,0-7.9-1.5-10.4-4.4
		c-2.3-2.8-3.4-6.4-3.4-10.7c0-3.9,1-7.2,2.9-10c2.5-3.5,6.1-5.3,11-5.3C125,220.5,128.7,222.2,131.2,225.4z M127.8,243.7
		c1.5-2.5,2.3-5.3,2.3-8.5c0-3.4-0.9-6.1-2.6-8.2c-1.8-2.1-4.2-3.1-7.2-3.1c-3,0-5.4,1-7.3,3.1c-1.9,2-2.8,5-2.8,9
		c0,3.2,0.8,5.9,2.4,8c1.6,2.2,4.2,3.3,7.8,3.3C123.7,247.4,126.2,246.2,127.8,243.7z"/>
	<path class="st0" d="M137.5,221.3h13c2.1,0,3.9,0.3,5.3,1c2.6,1.2,4,3.5,4,6.8c0,1.7-0.4,3.1-1.1,4.2c-0.7,1.1-1.7,2-3,2.6
		c1.1,0.5,2,1.1,2.5,1.8s0.9,1.9,0.9,3.6l0.1,3.8c0,1.1,0.1,1.9,0.3,2.4c0.2,0.9,0.7,1.5,1.2,1.8v0.6h-4.8c-0.1-0.2-0.2-0.6-0.3-1
		s-0.1-1.1-0.2-2.3l-0.2-4.8c-0.1-1.9-0.8-3.1-2-3.8c-0.7-0.4-1.9-0.5-3.4-0.5h-8.6V250h-3.9V221.3z M150.2,234.5
		c1.8,0,3.2-0.4,4.2-1.1c1-0.7,1.5-2,1.5-3.9c0-2-0.7-3.4-2.2-4.2c-0.8-0.4-1.8-0.6-3.1-0.6h-9.2v9.8H150.2z"/>
</g>
<path class="st1" d="M248.8,147.7c-0.4-0.8-1.6-1.1-1.6-1.7c0-1.6-1.1-1.8-1.9-2.3c-5.4-3-11.3-4.8-17.2-6.7
	c-4-1.2-8.3-1.8-11.8-4.4c-3.6-2.7-7.5-5-11.1-7.6c-12.2-8.7-23.1-18.9-31.7-31.9c-4.3-6.6-7.9-13.7-9.3-22.1
	c-1.1-6.8-0.5-13.8,0.3-20.8c0.2-1.7,0.7-3.4,1.6-5c0.6-1,0.2-4.8-0.6-5.4c-0.4-0.3-0.8-0.8-0.4-1.3c0.7-0.9,0.1-1.6-0.2-1.9
	c-1-0.8-2.2-1.4-3.5-1.4c-0.8,0-1.5,0.4-1.9,1.2c-1.3,2.4-2.9,4.6-3.6,7.3c-1.8,6.7-2.3,13.5-2.3,20.2c0,12.1,4.1,22.3,9.8,31.7
	c7.3,12.1,16.8,21.9,27.2,30.6c0.4,0.4,1,0.7,1.4,1.2c0.1,0,0.1,0,0.1,0s0.6,0.4,1.5,1.1c-0.7-0.2-1.2-0.3-1.6-0.3c0,0,0,0,0,0
	c-0.1,0-0.1,0-0.2,0c-3.4-0.6-6.7-1.3-10.1-2c-7.8-1.6-15.6-2.7-23.5-3.8c-0.5,0-1.1,0-1.8-0.1c0-0.7-0.1-1.6-0.2-2.5
	c-0.9-4.2-2.2-8.1-4.3-11.6c-2.3-3.7-4.7-7.5-7-11.3c-7.6-12.4-15.2-24.8-21.4-38.2c-0.1-0.3-0.4-0.8-0.6-1.4c0,0,0,0,0,0
	c0-0.1,0.1-0.3,0.1-0.4c0-0.2,0-0.4,0.1-0.6c0,0,0,0,0,0c0-0.2,0.1-0.3,0.2-0.5c0.3-0.7,0.1-1.2-0.6-1.2c-0.1,0-0.2,0-0.3,0
	c0,0-0.1,0-0.1,0c0,0-0.1,0-0.1,0c0,0-0.1,0-0.1-0.1c0,0-0.1,0-0.1-0.1c0,0-0.1-0.1-0.1-0.1c-0.1,0-0.1-0.1-0.2-0.1c0,0-0.1,0-0.2,0
	c-0.2-0.4-0.4-0.8-0.4-0.9c-3.7-7.4-6.4-15.3-7.6-23.9c-0.2-1.3,0.3-3.1-1-4c-0.1-0.1-0.1-0.5-0.1-0.8c0.7-1.8-0.4-1.3-1.2-1
	c-1.1,0.4-2,1.2-2.6,2.5c-0.4,1-0.9,1.9-1.4,2.8c-1.1,1.7-1.6,3.6-1.5,5.6c0,1.8,0.3,3.6,0.7,5.3c1.3,4.8,3.2,9.2,5.2,13.5
	c0.1,0.2,0.2,0.4,0.3,0.5c0,0,0,0.1,0,0.1c0.1,0.3,0.2,0.5,0.3,0.8c0.1,0.3,0.2,0.6,0.4,1c-0.1,0.2-0.1,0.4-0.3,0.7
	c-0.1,0.6-0.2,1.3-0.6,1.9c-4.4,9.3-6.2,19-6.6,28.9c0,0.2,0,0.4,0,0.7c0,0,0,0.1,0.1,0.1c0.2,0.3,0.6,1.4,1.2,2.9
	c-1.2-1.3-2.1-2.3-2.1-2.3s0,0,0,0c-0.3-0.1-0.4-0.5-0.6-0.8c-2.5-3.6-5-7.2-7.6-10.8c-3.1-4.2-6.4-8.2-9.7-12.1c0,0-0.3-0.4-0.9-1
	c0.1-0.2,0.2-0.4,0.3-0.6c0,0,0-0.1,0.1-0.1c0.1-0.3,0.2-0.6,0.5-1c0.7-1,1.2-2.1,1.9-3.1c0.6-0.9,0.5-1.5-0.5-2
	c-0.6-0.3-1.2-0.6-1.8-1c-2.5-1.4-4.7-3.2-6.8-5.2c-4.1-4-7.9-8.2-11.5-12.7c-0.1-0.1-0.3-0.2-0.4-0.3c-0.4-0.4-1.1-1.2-1.9-2.1
	c0.3-1.1,0.5-2.1,0.7-3.1c0,0,0-0.1,0-0.1c0.3-1.5,0.6-2.9,0.8-4.4c0,0,0,0,0,0c0-0.1,0-0.2,0-0.3c0.2-0.9,0.3-1.8,0.4-2.7
	c0-0.2,0.1-0.4,0.1-0.6c0.2-1.1,0.3-2.2,0.4-3.2c0.1-0.9-0.1-1.4-0.9-1.3c-1,0.2-2,1-2.7-0.4c-0.1-0.3-0.6,0.2-0.9,0.5
	c-0.4,0.3-0.7,0.9-1.2,1c-0.3-1.4-1.3-1.6-2.4-0.6c-0.7,0.7-1.4,1.4-2.1,2.2c-0.2,0.2-0.4,0.7-0.8,1.5c-0.3-0.5-0.6-0.8-0.8-1.1
	c-0.4-0.5-0.7-1-0.9-1.5c-0.8-1.3-1.4-2.6-1.9-4c-0.1-0.5-0.2-0.9-0.7-1.1c0,0,0,0,0,0c0,0,0,0,0,0c-0.1,0-0.2,0-0.3-0.1
	c-1.1-0.1-2.4,0.6-3.3-0.5c-0.2-0.2-0.6,0.2-0.9,0.4c-0.4,0.4-0.7,0.5-1.1,0.1c-0.9-0.7-1.9-0.4-2.8,0.4c-0.9,0.8-1.8,1.7-2.7,2.5
	c-1.1,0.9-1.2,1.9-0.7,3c0.6,1.2,1.1,2.5,1.4,3.9c0.8,3.9,1.5,7.8,2,11.8c0.1,0.9,0.2,1.5,0,1.8c0,0.1,0,0.3,0,0.4
	c-0.4-0.1-0.7-0.1-0.7-0.1l0,0c-0.3,0-0.7-0.1-1.2-0.2c-0.4-0.1-0.8-0.1-1.1-0.2C35.7,38.7,30,37.9,24,38.4c-2.4,0.2-4.7,0.9-7,2.2
	c-0.8,0.5-0.9,0.9-0.4,1.6c0.8,1.1,1.3,2.3,2.5,3c1.4,0.8,2.3,2.2,4.2,2.3c7,0.4,13.6,2.1,20.2,3.9c0.3,0.1,0.5,0.2,0.7,0.3
	c0.1,0,0.3,0.1,0.5,0.1c0,0.2,0,0.3,0,0.5c0.1,0.1,0.1,0.2,0.1,0.4c0.1,0.6,0.1,1.1,0,1.7c-0.4,1.7-1.7,3.1-3.4,3.1
	c-0.9,0-1,0.4-1,1.2c0.1,1.2,0.8,1.9,1.7,2.5c0.7,0.4,1.3,0.9,1.8,1.5c0,0,0.5,0.3,1.1,0.8c0,0.6,0,1.2,0,1.7c0.1,0.5,0.1,1,0.1,1.5
	c-0.1,2.6,0,5.2,0,7.9c0,0.7-0.3,1.6,0.4,2.1c0.7,0.5,0.8-1,1.7-0.9c-0.2,1.3,0.2,2.3,1,3.3c0.7,0.8,1,1,1.7-0.1
	c1.6-2.5,3.3-5,5-7.5c1-1.4,1.5-2.9,1.6-4.5c0-0.6,0.1-1.2,0.2-1.8c0.1-0.5,0.1-1,0.2-1.5c0,0,0,0,0,0c0.2-1.8,0.5-3.6,0.9-5.3
	c0-0.2,0-0.4,0.1-0.6c0,0,0-0.1,0.1-0.1c0.1-0.3,0.2-0.5,0.3-0.7c0-0.1,0-0.1,0.1-0.2c0.1-0.1,0.1-0.3,0.2-0.5
	c0.2,0.1,0.4,0.2,0.6,0.3c0.2,0,0.4,0.1,0.6,0.2c0.7,0.3,1.5,0.6,2.2,0.9c0,0,0,0,0,0c0.5,0.2,1.1,0.5,1.6,0.7
	c0.2,0.1,0.4,0.2,0.6,0.2c0.5,0.2,0.9,0.4,1.4,0.5c0.2,0.1,0.4,0.2,0.6,0.2c0.6,0.2,1.3,0.5,1.9,0.7c0.5,0.2,0.9,0.4,1.3,0.7
	c0.5,0.2,1.5,0.6,2.6,1c-0.1,0.2-0.2,0.3-0.2,0.5c0,0.1-0.1,0.1-0.1,0.2c0,0.1,0,0.2-0.1,0.2c0,0.1,0,0.2-0.1,0.3c0,0.1,0,0.2,0,0.2
	c0,0.1,0,0.2,0,0.3c0,0.1,0,0.1,0,0.2c0,0.1,0,0.2,0,0.4c0,0.1,0,0.1,0,0.2c0,0.2,0,0.4,0.1,0.6c0.2,1.5,1,4.7,1.8,7.7
	c1.1,3.5,2.4,7,4,10.3c0.1,0.3,0.3,0.6,0.4,0.9c0,0,0,0,0,0c0.2,0.5,0.4,0.9,0.6,1.4c0,0,0.5,1.2,1.3,3c-1-1.8-1.6-2.8-1.6-2.8
	c-1-1.5-2-2.9-2.8-4.5c-0.4-0.7-0.9-1.1-1.7-1.1c-2.8-0.2-5.6,0-8.4-0.4c-0.9-0.1-1.3,0.4-0.9,1.2c0.8,1.9,1.4,4,2.6,5.8
	c2.3,3.6,4.7,7.1,7,10.6c0.1,0.2,0.3,0.3,0.4,0.5h0l3.7,5.4c-0.3-0.4-0.7-1-1.1-1.6c-0.9-1.2-2.1-3-2.5-3.6c0,0.1,0,0.3-0.1,0.5
	c-0.5,0.1-0.9-0.1-1.4-0.2c-4.2-1.2-8.2-2.7-12.6-3.1c-3.1-0.3-6.2-0.9-9.4-1.2c-2.1-0.2-4.3-0.6-6.5-0.4c-1.5,0.1-2.1,0.9-1.7,2.3
	c0.1,0.2,0.1,0.4,0.2,0.7c0,0,0,0,0,0c1.3,4.5,3.3,8.4,6.6,11.4c7,6.6,14.4,12.6,22.6,17.4c4.3,2.5,8.7,4.6,13.8,5
	c2.1,0.2,4.3,0.4,5.7-1.9c1.5-2.5,2.8-5.2,3.2-8.2c0-0.1,0-0.3,0-0.5c0,0,0-0.1,0-0.1c-0.2-1.6-0.4-2.7-1-4.1c2,2.6,3.5,4.2,3.5,4.2
	l0,0c4,3.5,7.3,7.9,11.3,11.4c0.3,0.3,0.6,0.5,0.9,0.7c0.1,0.1,0.2,0.2,0.3,0.3c0.2,0.1,0.4,0.3,0.6,0.4c0.1,0.1,0.3,0.2,0.4,0.3
	c0.2,0.1,0.3,0.2,0.5,0.3c0.2,0.1,0.3,0.2,0.5,0.3c0.1,0.1,0.3,0.2,0.4,0.2c0.2,0.1,0.4,0.2,0.6,0.3c0.1,0.1,0.2,0.1,0.3,0.2
	c0.2,0.1,0.4,0.2,0.7,0.3c0,0,0,0,0.1,0c1,0.4,2.1,0.8,3.3,0.9c2.1,0.3,2.7,0.1,3.6-2.2c0.1-0.3,0.2-0.6,0.3-0.9
	c0-0.1,0.1-0.2,0.1-0.4c0.2-0.6,0.3-1.3,0.4-1.9c0.4,0.1,0.9,0.2,1.4,0.2c0,0,0.1,0,0.1,0c0.1,0,0.2,0,0.3,0c0.2,0,0.3,0,0.5,0
	c0,0,0.1,0,0.1,0c0.2,0,0.4,0,0.6,0c1.3,0,2.5,0.1,3.8,0.1c0.2,0,0.3,0,0.5,0l0,0c0.2,0,0.4,0,0.6,0l0.2,0.4
	c0.2,0.2,0.5,0.4,0.7,0.7c2.2,3.6,4.7,7,7.2,10.3c0.2,0.2,0.4,0.4,0.5,0.7l0.1,0.1l0.7,0.9l-0.8-0.2l0,0c-0.5-0.1-0.9-0.1-1.4-0.2
	c-25.7-5.8-51.5-11.4-77.7-15.4c-10.2-1.6-20.5-2.4-31-1.6c-4.1,0.3-8,1.4-11.8,3.7c-1.2,0.8-2.1,1.9-1.9,3.3
	c0.4,3.4,0.6,6.9,2.3,9.9c2.9,5.1,7,8.7,11.4,12.1c6.4,4.9,13.3,8.9,20.9,11.6c1.2,0.4,2.4,0.7,3.7,0c-0.7,0.1-1.4,0-2.1-0.3
	c-0.6-0.3-1.2-0.7-1.9-0.9c-7.2-2.9-13.9-6.6-19.9-11.7c-3.8-3.3-7.6-6.6-9.9-11.6c-0.4-0.9-0.8-1.7-0.9-2.8c-0.2-2.2,0.9-3.7,2.9-4
	c6.7-1,13.2-0.8,19.7-0.2c16.7,1.5,33,4.6,49.3,8c23.8,4.9,47.4,10.4,71.1,15.6c0.6,0.1,1.2,0.3,1.8,0.4l0,0
	c18,3.9,36,8.1,54.5,10.2c5.1,0.6,10.2,1.3,15.4,0.9c0.6,0,1.3,0.1,1.9-0.4c2.6-2.3,5.3-4.7,7.8-7.1c0.9-0.8,0.6-1.5-0.3-1.9
	c-0.8-0.3-1.6-0.7-2.4-1c-6.1-2.4-12.2-4.9-19.2-3.6c-0.6,0.1-1.8-0.3-1.4,1.3c0,0.1-0.3,0.4-0.4,0.4c-1.3,0.2-2.5,0.9-3.8,0.8
	c-3.1-0.4-6.3-0.6-9.4-1.2c-13.1-2.3-26.1-5.2-39.1-8c-3.1-0.7-6.2-1.1-9.2-2l-4.2-0.9l-1.4-1.8c-1-1-1.9-2-2.9-3.1
	c-2.8-3.2-5.4-6.6-7.9-10c-0.2-0.2-0.4-0.4-0.4-0.7c-0.1-0.1-0.3-0.3-0.5-0.6c0.4,0,0.6,0,0.6,0l0.2,0.1c0.2-0.1,0.4,0,0.6,0
	c2.4,0,4.7-0.5,7.1-0.7c0.4-0.1,0.8-0.1,1.1-0.1c0,0,0,0,0,0c0.2,0,0.5,0,0.7,0c0.5,0,1,0,1.6,0c9.4,0.4,18.7,1.8,27.9,3.5
	c6.6,1.2,13.1,2.7,19.6,4.3c2.7,0.6,5.5,1,8,2c0.1,0,0.2,0.1,0.3,0.1c0.3,0.1,0.7,0.2,1,0.3c0.9,0.6,1.7,1.1,2.4,1.6
	c0.4,0.2,0.7,0.5,1.1,0.7c7.1,4.3,14.8,7.2,22.6,10.1c1.3,0.5,2.6,0.8,4,0.5c3.3-0.8,6.5-1.8,9.8-2.8
	C249.1,149,249.3,148.5,248.8,147.7z M15.6,132.6c0.8-2,2.1-2,3.7-2.2C18.1,131.5,17,132,15.6,132.6z M53.7,97.9
	c0.2-0.6,0.7-0.2,1-0.1c2.3,0.4,4.6,1.1,6.7,2.1c-2.3-0.4-4.7-0.7-7-1.1c-0.2,0-0.3-0.1-0.5-0.2c0,0,0,0,0,0c-0.1,0-0.1-0.1-0.1-0.1
	c0,0,0,0,0,0c0-0.1-0.1-0.1-0.1-0.2c0,0,0,0,0,0C53.7,98.2,53.6,98.1,53.7,97.9z M83.8,119.1c-0.3,2.2-0.8,2.5-2.5,1.5
	c-7.9-4.3-15-9.8-21.7-16c-1.2-1.1-2.5-2-3.3-3.6c0,0,0,0,0,0c0,0,0,0,0,0c3.8,0.6,7.3,1.8,10.9,2.8c2.1,0.6,4.1,1.4,6.4,1.5
	c0.8,0.1,1.5-0.1,2.1-1.1c-2-0.7-4-1.4-6-2.1l0.1-0.2c1.3,0.2,2.6,0.4,4,0.5c0.5,0.1,1.1,0.2,1.6,0c1.4-0.6,2.1-0.1,2.8,0.9
	c0,0,0.1,0.1,0.1,0.1l0,0c0,0,0,0.1,0.1,0.1c0.1,0.1,0.1,0.2,0.2,0.3c0,0,0,0,0,0l0,0c1.5,2.5,3.1,4.9,4.3,7.7
	C83.7,113.9,84.3,116.4,83.8,119.1z M103.8,112.2c-0.2-0.3-0.4-0.6-0.7-0.9c-0.3-0.4-0.6-0.8-0.9-1.2c-0.3-0.4-0.6-0.8-0.9-1.2
	c-0.2-0.3-0.4-0.5-0.6-0.8c-0.3-0.5-0.7-1-1-1.5c-0.1-0.2-0.2-0.3-0.3-0.5c-1.7-2.6-3.4-5.3-4.9-8.1c0,0,0,0,0,0
	c-0.6-1.2-1.2-2.3-1.8-3.5c-1.7-3.5-3.5-7-5.4-10.7c0,0,0,0,0,0c0.3,0.1,0.6,0.2,0.8,0.3c0.2,0.2,0.3,0.4,0.5,0.6
	c6,8.9,12.3,17.6,18.7,26.1c1.7,2.2,2.1,5.2,2.9,8c-0.1,0-0.1-0.1-0.2-0.1c-1.4-0.8-2.6-1.9-3.7-3.1c0,0,0,0,0,0
	c-0.2-0.2-0.3-0.4-0.5-0.6c-0.2-0.2-0.3-0.4-0.5-0.7C104.9,113.6,104.3,112.9,103.8,112.2z M121.8,120.5c-0.6-4.9-2.1-9.1-3.2-12.4
	c-0.2-0.5-0.5-1-0.7-1.5c-0.5-0.9-1.1-1.9-1.8-2.9c0.2,0,0.5-0.1,0.7-0.1c0.1,0,0.1,0,0.2-0.1c0,0,0,0,0,0.1
	c0.1-0.1,0.2-0.1,0.3-0.2c0.5,1.5,1.1,3,1.6,4.5c0,0,0,0,0,0l0,0l6.1,12.7C124,120.6,122.9,120.6,121.8,120.5z M144.6,120.5
	c-3.3,1-6.6,0.4-9.9,0.3c-0.1,0-0.2,0-0.3,0c-0.1,0-0.3,0-0.4,0c0,0,0-0.1-0.1-0.1c0-0.1-0.1-0.2-0.1-0.3c-0.1-0.2-0.3-0.4-0.4-0.6
	c-7.2-13.2-11.8-27.6-12.8-43.7c0-0.3-0.1-0.6-0.1-1c0-0.1,0-0.2,0-0.3c0-0.1,0-0.2,0-0.4c0-0.2,0-0.3,0-0.4c0-0.2,0-0.5,0.1-0.8
	c0.1,0.1,0.1,0.2,0.2,0.4c0,0,0,0,0,0c0,0,0,0,0-0.1c0.9,0.9,1.3,2.1,1.9,3.1c6.6,11.4,13.3,22.8,20.1,34c1.3,2.1,2.5,4.2,3.2,6.6
	C146.8,119.4,146.6,120,144.6,120.5z M177.8,130.3c-3.7-0.6-7.4-1.2-11.2-1.9c3.8,0.1,7.5,0.8,11.2,1.5
	C177.8,130.1,177.8,130.2,177.8,130.3z M191.6,131.2c-6.4-1.3-12.8-2.5-19.2-3.5c-5.1-0.8-10.3-1.6-15.4-2.4
	c-0.4-0.1-0.9-0.1-0.7-0.7c0.1-0.6,0.6-0.5,1-0.4c2.3,0.2,4.7,0.4,7,0.8c5.1,0.8,10.2,1.7,15.3,2.5c5.3,0.9,10.6,2,15.9,3.3
	c0.8,0.2,1.5,0.5,1.9,1.4C195.4,131.9,193.5,131.6,191.6,131.2z"/>
</svg>
