<?xml version="1.0" encoding="utf-8"?>
<!-- Generator: Adobe Illustrator 24.1.0, SVG Export Plug-In . SVG Version: 6.00 Build 0)  -->
<svg version="1.1" id="Layer_1" xmlns="http://www.w3.org/2000/svg" xmlns:xlink="http://www.w3.org/1999/xlink" x="0px" y="0px"
	 viewBox="0 0 250 250" style="enable-background:new 0 0 250 250;" xml:space="preserve">
<style type="text/css">
	.st0{fill:#FCFDFE;}
	.st1{fill:#05BAE5;}
</style>
<g id="fnVEhj.tif">
	<g>
		<path class="st0" d="M174.2,144.3c-0.3-10.5-5-21.1-16-21.5c-10-1-17.8,3.3-21.1,11.7c-5.4,23.9-1,49.5-2.6,74
			c-10.5,0-21,0.1-31.6,0.2c-2.4,0-3.9-0.2-3.9-3.3c0.2-37.1,0.2-74.2,0.3-111.3c7.8,0,15.7,0.1,23.5,0.1c13-1.2,9.9,4.8,10.3,14.8
			c12-15.3,28.9-20.4,47.7-16.1c24.7,3.7,30.4,33.4,29.4,55.6c0.2,18.6,0,37.1,0.1,55.7c0,3.3-0.7,4.7-4.4,4.6
			c-10.5-0.3-21.1-0.2-31.6-0.2C174.4,187.2,174.3,165.8,174.2,144.3z"/>
		<path class="st0" d="M76.8,208.6c-10.5,0-21,0-31.6,0.2c-2.4,0-3.9-0.2-3.9-3.3c0.2-37.1,0.2-74.2,0.3-111.3
			C52.9,94.1,64.3,94,75.7,94c0.4,0.3,0.8,0.7,1.2,1C76.9,132.9,76.8,170.7,76.8,208.6z"/>
		<path class="st0" d="M59.1,78.9C31.7,78.3,32,38.1,59,37.3C86.1,38.2,86.7,78,59.1,78.9z"/>
	</g>
</g>
<line class="st1" x1="243.7" y1="124" x2="243.8" y2="117.3"/>
<path class="st1" d="M245,17.8c-0.7,32.8-1.1,66.1-1.2,99.5C243.8,84,244.2,50.6,245,17.8c-1.8-7.2-6.5-11.4-13.8-12.8
	C160.8,4.6,90.4,4.6,20,5.1C12.7,6.4,8.2,10.6,6.3,17.8C5.5,88.5,5.7,159.3,6.2,230c1.4,7.8,6.1,12.3,13.8,13.8
	c70.3,0.5,140.8,0.5,211.2,0c7.7-1.6,12.4-6,13.8-13.8c-0.9-34.9-1.3-70.5-1.3-106.1c0,35.6,0.4,71.1,1.3,106.1
	C245.5,159.3,245.7,88.5,245,17.8z M134.9,146.5c-0.1,20.7-0.2,41.4-0.3,62.1c-10.5,0-21,0.1-31.6,0.2c-2.4,0-3.9-0.2-3.9-3.3
	c0.2-37.1,0.2-74.2,0.3-111.3c7.8,0,15.7,0.1,23.5,0.1c13-1.2,9.9,4.8,10.3,14.8c2-0.6,2.3-2.1,2.9-3.3C148.3,92,163.8,89.5,181,93
	c24.7,3.7,30.4,33.4,29.4,55.6c0.2,18.6,0,37.1,0.1,55.7c0,3.3-0.7,4.7-4.4,4.6c-10.5-0.3-21.1-0.2-31.6-0.2l0,0
	c-0.1-21.4-0.2-42.8-0.2-64.3C174.4,112.4,133.2,117.7,134.9,146.5 M136,161.5 M41.5,94.2C52.9,94.1,64.3,94,75.7,94
	c-4.2-0.6-8.5-1.1-12.9-1.3c4.4,0.2,8.7,0.7,12.9,1.3c1.2,0,1.2,1,1.2,1c0,37.9-0.1,75.7-0.1,113.6c-10.5,0-21,0-31.6,0.2
	c-2.4,0-3.9-0.2-3.9-3.3C41.4,168.4,41.5,131.3,41.5,94.2z M41.5,94.2C41.5,94.2,41.5,94.2,41.5,94.2c2.7-0.6,5.5-1,8.3-1.3
	C47,93.1,44.2,93.6,41.5,94.2z M59.1,78.9C31.7,78.4,32,38.1,59,37.3C86.1,38.2,86.7,78,59.1,78.9z"/>
</svg>
