<?xml version="1.0" encoding="utf-8"?>
<!-- Generator: Adobe Illustrator 24.1.0, SVG Export Plug-In . SVG Version: 6.00 Build 0)  -->
<svg version="1.1" xmlns="http://www.w3.org/2000/svg" xmlns:xlink="http://www.w3.org/1999/xlink" x="0px" y="0px"
	 viewBox="0 0 250 250" style="enable-background:new 0 0 250 250;" xml:space="preserve">
<style type="text/css">
	.st0{fill:#FFFFFF;}
</style>
<g id="Layer_2_1_">
	<g id="bpDyjR.tif">
		<g>
			<g>
				<path class="st0" d="M236,244.5c-0.4,1.4-1.4,1.8-2.8,1.8c-1.4,0-2.7,0-4.1,0c-1.4,0-2-0.5-2.1-1.9c-0.1-0.6-0.2-1.2-0.2-1.9
					c-0.1-3-1.9-3.4-4.3-2.7c-1,0.3-1.4,0.9-1.4,2c0.1,1,0,2.1-0.1,3.1c-0.1,0.8-0.6,1.3-1.4,1.3c-2.2,0.1-4.4,0.1-6.6,0
					c-0.9,0-1.3-0.6-1.2-1.4c0.3-2,0.7-3.9,1.1-5.9c1-5.5,2-11,3-16.5c0.7-3.9,1.4-7.7,2.1-11.6c0.1-0.4,0.1-0.7,0.3-1
					c0.6-2,1-2.3,3.1-2.3c1.9,0,3.7,0,5.6,0c1.6,0,1.9,0.2,2.2,1.8c1.2,5.4,2.4,10.8,3.4,16.2c1.1,5.6,2.1,11.1,3.1,16.7
					c0.1,0.6,0.2,1.1,0.4,1.7C236,244.1,236,244.3,236,244.5z M224.1,217c-0.1,0-0.3,0-0.4,0c-0.1,0.2-0.1,0.4-0.2,0.7
					c-0.5,3.7-1,7.5-1.6,11.2c-0.2,1.5,0.1,1.9,1.5,2.1c1.9,0.3,2.7-0.5,2.4-2.5c-0.4-2.8-0.8-5.5-1.3-8.3
					C224.5,219.1,224.3,218.1,224.1,217z"/>
			</g>
			<g>
				<path class="st0" d="M32.7,225.8c-0.9-0.4-1,0.3-1.1,0.8c-0.6,2.2-1.1,4.5-1.8,6.7c-0.2,0.8-0.7,1.6-1.1,2.4
					c-0.6,0.9-1.2,0.9-1.7-0.1c-0.9-1.7-1.7-3.5-2.5-5.3c-0.5-1.2-0.8-2.4-1.3-3.6c-0.1-0.4-0.5-0.7-0.7-1c-0.1,0.4-0.3,0.8-0.3,1.2
					c0,3.5,0,6.9,0,10.4c0,2.4-0.1,4.9-0.1,7.3c0,1.3-0.2,1.6-1.5,1.6c-1.6,0.1-3.2,0.1-4.9,0.1c-1,0-1.6-0.6-1.7-1.5
					c-0.1-0.8-0.2-1.5-0.2-2.3c0-7.9,0-15.8,0-23.7c0-3,0-6.1,0-9.1c0-1.6,0.4-2.1,2-2.1c2-0.1,3.9-0.1,5.9,0c1.6,0,2.2,0.4,2.6,2
					c0.8,2.8,1.4,5.7,2,8.6c0.3,1.2,0.5,2.4,0.9,3.6c0.1,0.3,0.4,0.5,0.5,0.8c0.2-0.3,0.5-0.5,0.5-0.8c1-3.9,1.9-7.8,2.8-11.6
					c0.5-2.2,0.9-2.5,3.2-2.5c1.7,0,3.4,0,5,0c1.5,0,2,0.5,2,2c0,3.3-0.1,6.6-0.1,9.9c0,3.4,0,6.8,0,10.2c0,4.9,0.1,9.8,0.1,14.7
					c0,1.7-0.4,2-2.1,2c-1.4,0-2.9,0-4.3,0c-1,0-1.7-0.4-1.8-1.5c-0.1-0.6-0.1-1.1-0.1-1.7c0-5,0-10-0.1-14.9
					C32.9,227.4,32.8,226.6,32.7,225.8z"/>
			</g>
			<g>
				<path class="st0" d="M122.3,228.2c-0.3,2.7-0.4,6.5-1,10.1c-0.8,4.8-4.5,8.1-9.4,8.4c-1.8,0.1-3.7,0.2-5.4-0.1
					c-3.4-0.5-5.7-2.6-6.9-5.9c-1-2.8-1.5-5.6-1.6-8.6c-0.1-4.6,0-9.1,0.2-13.7c0.1-1.9,0.7-3.8,1.3-5.6c1.6-4,4.9-5.7,9-6.1
					c1.6-0.2,3.3-0.2,4.9,0.1c4.6,0.8,7.2,3.5,8.2,8.4c0.2,0.8,0.3,1.5,0.4,2.3C122.1,220.8,122.2,223.9,122.3,228.2z M112.7,226.2
					C112.7,226.2,112.6,226.2,112.7,226.2c-0.1-2.2-0.1-4.4-0.1-6.5c0-0.8-0.2-1.5-0.4-2.2c-0.4-1.1-1.3-1.6-2.3-1.6
					c-1,0.1-1.9,0.7-2.2,1.8c-0.2,1.1-0.4,2.1-0.4,3.2c-0.1,4.1-0.1,8.2,0,12.3c0,1,0.2,2,0.4,3c0.2,1,0.9,1.4,1.9,1.5
					c1.7,0.1,2.7-0.9,2.8-2.9C112.5,232,112.6,229.1,112.7,226.2z"/>
			</g>
			<g>
				<path class="st0" d="M183.7,227.5c-0.3,3.4-0.4,7.2-1.1,10.9c-0.8,4.8-4.6,8-9.5,8.4c-1.8,0.1-3.6,0.2-5.3-0.1
					c-3.6-0.6-6-2.8-7.1-6.2c-1.1-3.2-1.5-6.5-1.5-9.8c0-4.1-0.1-8.1,0.3-12.2c0.4-4.9,2.1-9.1,7.2-10.9c3-1,6-1.1,9-0.4
					c3,0.7,5.2,2.5,6.3,5.3c0.5,1.3,1,2.6,1.1,3.9C183.4,220,183.5,223.5,183.7,227.5z M174,226.3c0,0-0.1,0-0.1,0
					c0-2.2,0.1-4.4,0-6.6c0-0.8-0.2-1.6-0.5-2.3c-0.4-1-1.2-1.6-2.3-1.5s-1.8,0.7-2.1,1.8c-0.2,1.1-0.4,2.2-0.4,3.3
					c-0.1,4.1-0.1,8.2,0,12.3c0,1,0.2,2,0.4,3c0.2,1,0.9,1.4,1.9,1.4c1.6,0,2.6-0.9,2.7-2.8C173.9,232,173.9,229.2,174,226.3z"/>
			</g>
			<g>
				<path class="st0" d="M69.4,227.1c-0.4,3.8-0.5,7.6-1.2,11.4c-0.9,4.8-4.5,7.9-9.3,8.3c-2,0.2-4,0.1-5.9-0.2
					c-2.9-0.5-4.9-2.3-6.1-4.9c-1.1-2.4-1.7-5.1-1.8-7.7c-0.1-5-0.1-10,0-15c0-1.7,0.5-3.5,1.1-5.1c1.5-4.4,4.9-6.4,9.3-6.8
					c1.6-0.1,3.3-0.1,4.9,0.1c4.6,0.7,7,3.6,8.1,8c0.7,3.1,0.7,6.3,0.7,9.4c0,0.9,0,1.8,0,2.6C69.2,227.1,69.3,227.1,69.4,227.1z
					 M59.7,226.6c0,0-0.1,0-0.1,0c0-2.2,0.1-4.4,0-6.5c-0.1-1.1-0.3-2.2-0.8-3.2c-0.9-1.6-3.2-1.4-3.9,0.3c-0.3,0.7-0.5,1.4-0.5,2.1
					c-0.1,4.7-0.2,9.3-0.2,14c0,0.9,0.1,1.8,0.3,2.7c0.4,1.6,2.1,2.4,3.4,1.4c0.6-0.4,1.2-1.4,1.2-2.1
					C59.5,232.3,59.6,229.4,59.7,226.6z"/>
			</g>
			<g>
				<path class="st0" d="M72.5,226.9c-0.1-5.5-0.2-10.9-0.4-16.4c-0.1-2.2,0.6-2.9,2.8-2.9c2.5,0,5,0,7.5,0
					c6.1-0.1,9.5,2.4,10.8,8.3c1.7,7.4,1.9,15,0.4,22.5c-0.3,1.6-1.1,3.2-2,4.7c-1.4,2.3-3.7,3.4-6.4,3.4c-3.5,0.1-6.9,0.1-10.4,0.1
					c-1.9,0-2.5-0.5-2.5-2.4c-0.1-5.7,0-11.4,0-17.1C72.4,226.9,72.5,226.9,72.5,226.9z M80.5,227.3c0.1,0,0.1,0,0.2,0
					c0,2.9,0,5.9,0,8.8c0,1.4,0.5,2.1,1.5,2.2c1.4,0.2,2.4-0.4,2.8-1.6c0.2-0.9,0.4-1.9,0.4-2.8c0.1-3.9,0.1-7.8,0-11.7
					c0-1.4-0.2-2.7-0.5-4c-0.3-1.4-1.6-2.1-3-1.9c-1,0.1-1.4,1-1.3,2.6C80.5,221.7,80.5,224.5,80.5,227.3z"/>
			</g>
			<g>
				<path class="st0" d="M209.4,233.9c0,3-0.1,6,0,8.9c0,1.8-0.9,2.8-2.5,3.3c-6.5,2-14.1,0.8-17.6-7c-3.6-8.1-3.4-16.4,0.6-24.2
					c3.5-6.8,9.6-8.3,16.2-7.2c1.8,0.3,2.6,1.2,2.6,3c0.1,1.4,0,2.9-0.1,4.3c-0.2,1.6-0.9,2-2.6,1.7c-1.2-0.2-2.4-0.5-3.5-0.4
					c-3.5,0.3-5.5,2.2-6.2,6c-0.7,3.9-0.6,7.9,0.4,11.8c0.4,1.5,1.1,2.9,2.8,3.3c1.3,0.3,2.1-0.2,2.2-1.5c0.1-1.4,0.1-2.9,0.1-4.3
					c0-0.5-0.5-1.2-0.9-1.3c-1.4-0.6-1.9-1.6-1.9-3.1c0.1-1.4,0.2-2.7,0.3-4.1c0.1-0.9,0.7-1.5,1.5-1.5c2.1-0.1,4.3-0.1,6.4,0
					c1.2,0.1,1.8,0.9,1.9,2c0.1,1.6,0.2,3.2,0.2,4.8C209.4,230.3,209.4,232.1,209.4,233.9C209.4,233.9,209.4,233.9,209.4,233.9z"/>
			</g>
			<g>
				<path class="st0" d="M146.7,222c0.2-1.3,0.4-2.6,0.7-3.9c0.4-2.7,0.8-5.5,1.3-8.2c0.3-1.8,0.6-2.1,2.4-2.2
					c1.8-0.1,3.6-0.1,5.5-0.1c1.3,0,1.8,0.7,1.4,1.9c-0.7,2.5-1.5,5-2.4,7.5c-1.4,4.4-2.9,8.7-4.3,13.1c-0.8,2.4-0.7,5-0.6,7.5
					c0.1,2.4,0.1,4.7,0.2,7.1c0,1-0.4,1.6-1.5,1.6c-2.1,0.1-4.1,0.1-6.2,0.1c-1.1,0-1.3-0.8-1.3-1.7c0-1.1,0.1-2.2,0.1-3.4
					c0-2.9,0.1-5.8,0-8.6c-0.1-1.3-0.4-2.6-0.8-3.8c-2-5.9-4-11.8-6-17.7c-0.2-0.7-0.4-1.5-0.5-2.2c-0.1-0.9,0.4-1.4,1.3-1.4
					c2.2-0.1,4.4,0,6.5,0c1,0,1.4,0.7,1.6,1.6c0.4,2,0.7,4.1,1,6.1c0.3,2,0.6,3.9,0.9,5.9c0.1,0.3,0.2,0.6,0.3,0.9
					C146.4,222,146.6,222,146.7,222z"/>
			</g>
		</g>
	</g>
	<g>
		<path class="st0" d="M122.7,1.7c-45.9,0-83.1,38.1-83.1,85.1S76.8,172,122.7,172s83.1-38.1,83.1-85.1S168.6,1.7,122.7,1.7z
			 M144.2,142.1c0,0,8.7-10.8,8.5-25c-0.1-6.4-2.6-10.8-5.5-9.2c-2.5,1.4-7.8,11.7-21.8,8.9c-14-2.8-13.1-22.7-9.4-28.7
			c3.7-6,6.2-14.7,3.2-15.8c-3-1.1-17.7,12.7-22.7,23.4c-8,17-5,30.3,1.6,44.1c1.3,2.6-16.6-12.4-11.9-33.1c0.9-3.8,2.3-7.7,4-11.4
			c6.4-13.8,16.5-25.5,24.8-38.2c1.4-2.3,2.8-4.7,3.8-7.3c5.5-15.1,3.2-24.8,3.2-24.8c16.1,15.7,20.1,36.8,3.7,61
			c-5,10.1-1.2,19.1,2.3,20.9c4.4,2.3,13.1,0,15.6-11.2s-0.9-20.7-0.9-20.7s12.1,8,15.8,25.2C162.1,117.6,157.6,130.2,144.2,142.1z"
			/>
	</g>
</g>
<g id="Layer_3">
</g>
</svg>
