<?xml version="1.0" encoding="utf-8"?>
<!-- Generator: Adobe Illustrator 24.1.0, SVG Export Plug-In . SVG Version: 6.00 Build 0)  -->
<svg version="1.1" id="Layer_5" xmlns="http://www.w3.org/2000/svg" xmlns:xlink="http://www.w3.org/1999/xlink" x="0px" y="0px"
	 viewBox="0 0 250 250" style="enable-background:new 0 0 250 250;" xml:space="preserve">
<style type="text/css">
	.st0{fill:#FFFFFF;}
</style>
<g>
	<path class="st0" d="M188.9,35.12L156.38,1l-16.1,17.05L115.49,74.4c0,0,0,31.55,0,33.49c0,1.93-25.44,23.83-25.44,23.83v32.84
		l-22.82,24.79c8.32,0,29.77,0,30.55,0c0.97,0,24.47-23.5,24.47-23.5v-33.16l25.44-24.47L130.3,91.79L188.9,35.12z"/>
</g>
<g>
	<path class="st0" d="M36.45,220.76h12.67c2.51,0,4.53,0.71,6.07,2.13c1.54,1.42,2.31,3.42,2.31,5.99c0,2.21-0.69,4.14-2.06,5.77
		c-1.37,1.64-3.48,2.46-6.31,2.46h-8.84v11.97h-3.84V220.76z M51.33,224.66c-0.84-0.4-2-0.6-3.47-0.6h-7.58v9.81h7.58
		c1.71,0,3.1-0.37,4.16-1.1c1.07-0.73,1.6-2.02,1.6-3.87C53.63,226.82,52.86,225.41,51.33,224.66z"/>
	<path class="st0" d="M64.08,220.76h3.88v28.32h-3.88V220.76z"/>
	<path class="st0" d="M74.97,220.76h3.74v13.86l14.17-13.86h5.36l-12.1,11.43l12.35,16.89h-5.02l-10.15-14.23l-4.62,4.36v9.87h-3.74
		V220.76z"/>
	<path class="st0" d="M110.33,220.76h4.34l10.28,28.32h-4.2l-2.87-8.48h-11.2l-3.07,8.48h-3.93L110.33,220.76z M116.63,237.48
		l-4.3-12.51l-4.57,12.51H116.63z"/>
	<path class="st0" d="M149.25,222.83c1.96,1.89,3.04,4.04,3.26,6.44h-3.74c-0.42-1.83-1.25-3.27-2.49-4.34
		c-1.24-1.07-2.99-1.6-5.24-1.6c-2.74,0-4.95,0.98-6.64,2.94s-2.53,4.97-2.53,9.02c0,3.32,0.76,6.01,2.28,8.08
		c1.52,2.06,3.79,3.1,6.81,3.1c2.78,0,4.89-1.09,6.34-3.26c0.77-1.14,1.34-2.65,1.72-4.51h3.74c-0.33,2.98-1.42,5.48-3.28,7.5
		c-2.22,2.43-5.22,3.64-9,3.64c-3.25,0-5.98-1-8.2-2.99c-2.91-2.64-4.36-6.71-4.36-12.21c0-4.18,1.09-7.61,3.28-10.28
		c2.36-2.91,5.62-4.36,9.77-4.36C144.55,219.99,147.3,220.94,149.25,222.83z"/>
	<path class="st0" d="M158.62,220.76h3.88v11.7h14.56v-11.7h3.88v28.32h-3.88v-13.25H162.5v13.25h-3.88V220.76z"/>
	<path class="st0" d="M191.98,220.76v17.51c0,2.06,0.39,3.77,1.17,5.13c1.15,2.06,3.1,3.08,5.83,3.08c3.28,0,5.51-1.11,6.68-3.34
		c0.63-1.21,0.95-2.83,0.95-4.88v-17.51h3.87v15.91c0,3.48-0.47,6.16-1.41,8.04c-1.73,3.42-4.99,5.13-9.79,5.13
		c-4.8,0-8.06-1.71-9.77-5.13c-0.94-1.88-1.41-4.56-1.41-8.04v-15.91H191.98z"/>
</g>
</svg>
