<?xml version="1.0" encoding="utf-8"?>
<!-- Generator: Adobe Illustrator 24.1.0, SVG Export Plug-In . SVG Version: 6.00 Build 0)  -->
<svg version="1.1" id="Layer_1" xmlns="http://www.w3.org/2000/svg" xmlns:xlink="http://www.w3.org/1999/xlink" x="0px" y="0px"
	 viewBox="0 0 250 250" style="enable-background:new 0 0 250 250;" xml:space="preserve">
<style type="text/css">
	.st0{fill:#FFFFFF;}
</style>
<g id="Layer_4">
	<g id="H9uOAG_1_">
		<g>
			<path class="st0" d="M62.6,124.3c0.3-1.3,5.2-6.7,2-5.6c-3,1.6-2.4,8.5-2.7,1.9c-3.9-1.2-7,7.8-9.9,4.3c-1.3-2-4.1-1.3-5.7-0.1
				c0.5-0.2-1.7-5-5-1.4c1-4,9.2,1,13,1.2c5.6-8.9,20.1-7.9,9.3-13c-3.2-1.5-2.8-0.3-0.7-1.2c-4.5-0.7-5.5-5.7-9.2-8.3
				c-5-1.5-10.8,2.5-15.5,5.2c-2.1,0.6-4.2-2.8-6.5-1.2c-1.1,0.5-1.5,0.1,0-0.3c5.9,0,8.4,2.1,9.2-2.9c8.8,3.8,6.3-6.9,14.1-0.9
				c3.8,2,2.2,4.1,6,6.5c0.4-1.2-2.5-3.1,0.5-0.5c5.5,1.7,9.9,0.8,7.1-6c0.1-3.6,6.5-7.2,0.5-9.1c4.1,2.1,3.7-2.1,2-4.8
				c-2.9-1.1-5.5-3.6-7.6-4.1c-2.4,1.8-4.6,4.8-2.4,0.1c0.3-1.9,3.9,0.5,3.3-2c-0.4-4.2-5.7-4.8-9-3.6c0.2-3-0.5-4.3-3.6-3.1
				c-10.6,2.5,1.4-0.3,3.7-2.1c-5.4-4.9,3.2-6.8,0.2-12.5c-1-3.8-2.2-8.2-6.8-8.4c-1.5-2,1.3-5.8-3.1-6.3c3.2-1.2,2.6,3.8,3.5,6
				c2.3,0.4,4,0.7,4.7,3.2c0.4,0.9,5.1,8.5,1.5,11.8c-3.8,3.5,2.9,5.5,0.3,9.7c8.2,0.3,6.9,2.9,11.9,6.2c3.6-5.7,7-11.8-1.3-6.1
				c3.3-4.9,15.8-3.1,5.3-8c7.3,5,2-12.9,3.8-4.1c0.5,0.7,0.3,5.4,1.8,3.8c1.6-4.6,12.2-3.2,11.2-10c-0.8-3.3-0.3-0.1,1.7-1.4
				c1.4-1.2-0.2,0.3,0.4,0.8c1.4-0.2,2.1-0.2,1,1.5c1.9-0.6,4.4-2.2,3.4-3.9c0.8-2.5,5.9-2.8,4.5-5.8c-0.5-0.9,1.4,0.3,0.5,0.9
				c-0.4,2.5,4.8-2,2.4-1.2c-3.3,1.3,2.8-1.9-0.9-2.5c-1.3-0.7-7.1,1-5.8,0.2c5.1-0.9-2.6-5.3-3.3-0.8c-0.2-1.4,2.9-3.7,0.2-3.1
				c-3.4,0.1-14.4-2.1-7.8-2.4c-5.6-7.5-13.2,8.3-16.4,5.9c3.1,0.8,2.1-1.1,3.3-2.7c2.8-1.4,4.4-3.8,7.3-5.6c2.7,0,4.7-1.2,0.8-1.9
				c-4.4,0.1-1.5-7.5-5.5-5.9c-3.1,0-4.8-1.8-7.3,1.9c-2.7-1.1-6.3-0.5-8.7-2.6c-0.6-1.7-0.8-3-2.7-2.2c-1.6,0.8-2.2-0.4-3-1.6
				c-0.3-0.9,2.4,3.1,4.1,1c2.5,3.5,9.7,7.2,13.6,2c4.7,2,3,0,4.4-3.8c-0.1,2.6-1.6,5.6,2.2,4.3c-0.1,2.9,0.5,6.5,4.1,6.3
				c3.6,1.3,5.8,2,9.5,1.9c2,1.5,15.9,7.8,11.2,1c-3.8-2.6-12.3-8.1-3.3-3.2c4.1,1.3-3.6-4.1-4.2-3.3c9.6,0.5-4.2-6.2-1.4-9.8
				c2.3-1.4,1.7-4.4,0.3-6.2c2.1,1.3,3.8-2.6,1.9-4c2.1-0.2,1,3.6-0.2,5.6c1,3.4-3.1,5.2-0.8,8.1c9.8,5.2,3.4,4.9,9.1,11.8
				c1.4,0.5,3.2-4,3.7-5.7c-0.2-1.3,1.9,2.9,1.5-1.6c10.1-7.4,8.8-8.3,4.7-19.2c-3.2-2.5-2.2-4.6-0.7-7.8c-0.5,1.8-1.7,10.3,4,5.8
				c-7.7,10.9,11.5,8.7-6.4,21c-0.3,9-3.6,9,8.5,9c3.1,4.3,6.3,0.7,6.6,0.3c-2.3,3.7,3.8,3.3,5.6,1.2c0.8-3.9,4.8-5.6,2.5-8.8
				c-2.4-2.3-1.6-1.3,1.1-0.8c2.1,0.3-0.7,3,1.2,3.5c5-0.3,5-5.3,4.4-9.1c4.2,0.7,3.4-2.4,2.4-5.4c-1.6-7.2,1,6.1,2.9,5.5
				c4.6-5,4.4,0.6,9.1,1c4.6-1.2,11-2,11.6-7.8c4.1,1.8,8.3-5.8,5.4-0.3c-1.3,1.8-5.8-1.2-5.6,2.4c0.6,3.2-6.2,3.2-2.5,5.1
				c-2.9-1.2-6.3,0.6-9.4,1.7c-2.5-1.2-5.6-5.6-7.4-1.5c-11.1,0.1-0.2,4.6-11.4,11.5c1.2,3.7,6.6,1.4,8,4.8c1.6,0.4-0.2-4.2-1.4-5.1
				c3.3,0.2,2.9,13.9,6.7,6.1c0.8-1.7,0.4,1.9,0.4,2.5c1.7-0.1,10.8-1,6.2-0.2c-1.1,0-6.7,0.3-5.3,1.7c4.9,2.4,3.4,10.2,9.4,12.7
				c1-0.8,2.7-0.2,2.9-1.9c-0.7,1.2,0.5,4.5-0.1,3.6c-1.3-0.7-0.8,1-0.4,1.7c-2.6-0.8-1.3-0.9-1.4,0.9c4.2,0.8,9.8,10.7,11.2,7.8
				c0.5-2.5-0.3-4-0.5-6.8c0.9,6.1,5.8-1.1,1.5-2.6c4.9,2.6,1.8-1.1,2.6-4.7c2.5-4.5,7.3-6,1.7-12.1c-2.3-0.7-1.6-2.9-3.2-4.2
				c-1.7-0.3-2.8-0.2-2.2-2.4c1.6,3.2,7.9,6.3,8.6,11.2c0.8,5.2,1.6-3.8,4.3-3.6c4.7,0.5,2.7-3.8,4.2-6.6
				c-4.1-2.7-2.9-11.2,1.6-12.6c0.9-3.3,0.1-5.6,0.9-0.2c-2.8,0.7-3.7,3-4.1,5.6c-1.6,3.8,1.4,5.4,2.4,8c-3.4,3.7,1.5,2.6,3.8,3.6
				c-8.2-1.2-0.9,2-9,3.1c-3,1-0.6,5.2-2.8,6.7c-2.7,1.3,0.5,3.8-0.7,5.8c-8.2,18-1.4,13.2,6.4,1.3c-1.2,2.4-4.7,5.4-4.5,7.8
				c2.2,0.1,3-2.6,3.2-4.4c-0.3,2.8,2.3,3.3,3.9,1.5c3.7-7.6,8.7-0.3,12.4-3.1c-0.5,3.7,3.7,1.8,5.6,1.3c-3.5,2.7-8.8,0.5-12.5-1.6
				c-3.3,0-5.4,4.1-6.1,6.9c-1.2,0.8-13.7,1.2-5.5,5.7c4.4,0.8,6.9,9.7,14.8,11.1c3.8-3.3,8.7-3.7,12.8-6.2c3.5,1.7,4.8,2.9,0.3,0.7
				c-3.9-1.4-3.2,5.4-4.2,3.8c-7.2-3.2-7.6,5.8-11.7,2c-8.3-4.4-4.7-8.7-15.6-7.6c0.9,9.1-5.4,12.8-1.1,15.7c-5.7-1.8-1,8,3.6,7.2
				c1.2,5.4,7-3.8,5.1,0c-0.4,1.1,0.5,3.4-1.6,2.6c-5.8-0.1,2.1,7.6,6,4.8c1.3-0.4,1.2,0.7,1,1.6c-1.1,3.9,6,0.4,8-0.1
				c-14.3,5-1.9,3-9.2,13c1.3,12.1,9,9.2,8,15.8c8.7,5.5-2.4,2.4-0.3-3.4c-5.8-2.1-6.1-4.5-7.7-10c-2.9-4.6,5.7-7.5,0.3-10.8
				c1.4-6.8-3.5-4.2-8.3-6.2c-0.8-7.5-5.5-4.3-6,1.4c-0.4,1.3-3.9,3.1-0.1,2.2c4.3-1.8,5.4-3.4,1.4,0.7c-3.4-0.5-4.1,0.2-6,1.5
				c-0.9,3,1,2.1,3.3,3.4c-1.4,0.5-4.9-1.4-4,1.5c0.3,8.5,1-5.1-2.9,1.6c-9.5,1.6-15.1,8.8-7.6,15.5c-7,3.1,1.1-3.9-4.3-5.3
				c-1.7-0.6-4.2-0.2-2.5-2.5c-3.8,1.7-4.2,6.7-8.4,8.3c-0.6,5.5,4.2,2.4,7.4,2.3c-7.3,0.9-0.3,6.5,1.8,1.1c-5.6,6.4,8.4,1.8,7,5.4
				c5.1,8.7,18.1-11.2,14.2-4.3c-2.5,3.3-7.1,6.8-11.1,7.6c10.9,4.1-1.1,10.9,16.2,5.6c3,0.7,8.1,0.5,8.2,4.6
				c-1.2-3.7-8.7-5.8-11.4-2.6c-2.6,2.7-5.6-2.6-5.4,4.4c0.7-6.4-2.8-1.8-2.7-6.8c0.6-3.1-9.9-6.1-11.9-4.8
				c-4.3-1.5-8.1-4.4-13.1-4.2c-2.2,4,7.2,5.4,8.5,8.8c-2.1-2.4-9-4.7-3.7-0.5c4.1,1.3-5-0.5,4.3,7.9c2.2,3.6-1.9,2.8-1.3,6.1
				c0.5,2.8,2.1,2.3-0.5,3.3c-2.5,1.1,0.4,3.7-0.2,4.2c-3.1-3.8,1.8-8.8,1.6-12.9c-0.9-2.6-4.6-4.6-6.8-4.9
				c0.3-2.2-1.1-10.5-4.2-7.8c-5.1,14.2-18.2,6.6-7.7,27.1c4,1.5-2.6,10.9,0.1,4.6c3.9-6.2-6.3-3.8-3.1-5.6c3.3-6-3.3-6.6-2.6-10.5
				c0.3-4.2,5.2-5.6,8.2-9.6c-1.2-2.2,3.2-10.7-5.8-7.2c-4,0.9-7.7-7.3-9.7-0.6c2.3-4.9-6-3-6.3,0.8c-5.9,7.4,2.9,7.8-2.1,7.5
				c-2.2,0.2-0.9-2-1.3-3.1c-4.1-2-6.4,4.4-5.1,7.7c0.2,2.5-4.4-1.4-3.2,2.7c2.3,7.3,0.8,6.8-0.5-0.3c-0.8-4.7-4,2.5-5.6-0.2
				c-4-2.2-4.4-3.7-11.7-0.6c-3.6,0.6-4,4.1-5.4,6c-2.6-0.1-4.9-0.5-5.6,2.5c-1.5,2.4,0.3-1.4,0.8-2.5c2.6-1.2,6,1.1,5.9-3.8
				c3.4-3.1,10.9-7.1,16-2.1c2.8,0.2,4.6-3.2,8.4-1.8c-2.3-7.1,5.1-7.8,5.6-11.9c-1.3-2.4-5.3-1.2-6.9-3.2c-2.5-3.6-1.2,2.5,0.2,3.7
				c-1.5,3.1-3.7-16-7-4.5c1.3-5.2-1.6-3.1-5.2-3.5c1.3-0.5,3.4,0.1,4.3-1.2c-4.3-2.3-3-13.1-9.4-10.4c-2.8-0.3,0.5-0.6-1.5-2.6
				c0.5-0.6,2.2,0.8,0.9-1.4c5.5,0.1-5.3-3.5-5.6-6.3c-0.3-1.8-1.7-1.2-2.9-0.9c0.9-2.9,0.8,0.9,2.2-1.1c-3-6.4-6.6-0.7-4.6,3.4
				c0.4,3.5-0.6-2.3-1.7-1c-1.4,2.1-2.4,3.4,0.4,4.8c-5.1-3.2-1.3,3.6-3.4,5.5c-1.2,1.6-1,3.6-1.3,5.5c-1-8.4-4.8,5.8,1.9,6.4
				c-0.6,3.7,6.2,4.1,3.6,7c-0.8-5-8.9-7.9-8.8-13.9c-1.8,4.3-3.7,5.1-7.6,6.1c0.5,1.7,1.4,3.2-0.4,4.4c1.6,3.7,3.6,7.4,0.8,12.1
				c-2.1,2.2-3.7,1.6-2.8,5.4c-1.7-4.6,5.4-6.9,4.1-13c-1.4-2.6-4.5-2.9-1.6-6c-0.1-1.8-7.2-1.4-2.1-1.6c3.3,0.8,0.2-2.3,2.4-2.5
				c5.9,0.7,4.5-4.4,6.9-7.7C67.7,124.9,79,102.3,62.6,124.3z M93.8,125.1c-0.6-1,0.4,1,0.8,0.5C94.3,125.4,94.2,125,93.8,125.1z
				 M69,128.4c5.1-4.2-2.4-4.6-0.8,4.6C70.3,135.4,75,123.8,69,128.4z M178.3,60.1c-4.8,5.3,3.8,1.6,0.9-3.2
				C179.7,50.2,171.8,64.2,178.3,60.1z M74.1,76.5c3.9-4.8-3.1-1.7-3.3,2.3c2.9,1.8,0.7,0.5,1.9,5.9C76,85.6,80.9,71.2,74.1,76.5z
				 M173.3,112.1c1.3,6.3,3.8-8.5,7.9-7.6c-3.9-2.7-6.4-1.3-5.5,3.3c-2.6,5.2,1.4-2.8-1.3-4C171.9,105.8,166.9,115.9,173.3,112.1z
				 M165.9,91.2c-1,0.6-7.9-21.3-3.4-9.4c1.8,0.1-1-2.6,2.2-3.4c0.3-1.5-1.7-6.8-2.5-4.9c1.2-2-9.2-10.6-8.8-8.6
				c-2-0.7,0.2,1.4,0.4,2.3c-1.2-1.3-2.2-1.3-1.6,0.7c-0.1,2-1.2-4.1-2.8-5c2.5,1.4,1.9,0.5,0.3-1.5c3.8,0.8-1.3-5.6-5.8-6.8
				c-3.8-1.6-11.1-4.7-4,0.1c-2.3-0.5-4.9-4.2-7.5-2.5c-1.1,0.7,0.2-1.1,1-0.7c1.6-0.7-6.1-1.9-4.4-0.7c3.1,3.2,0.2,1,0.8,3.2
				c-0.8-4-3.6-5-9.7-2.2c6.3-3.3-1.1-1.6-4.2-1.2c-2.4,0.8-10.1,1.8-4.8,2.3c3.5,2.3,2.5-0.4,5.1-0.5c4.5,0.7,2.8-0.4-0.5,1.3
				c5.5,0.4-3,1.4-5.1,2.3c-0.7,0.7-2.9,0.5-1.1-0.2c2.6-1.1-1,0.5-2.9-2.5c-4.2,0.9-4,2.4-5.8,3.2c-3.4,1.3-4.9,6.3-7.7,8.8
				c0.8-0.1,1,1.3,2.8-0.5c-1.9,2.3,0.4,1.3,2.1,1.1c-5.5,2.2-6.3,2.4-8.8,2.4c-4.4,4.7,0.3,0.3-1.1-0.5c-4.9,3.6-1.9,9.3-5.5,13.3
				c-1,1.8-2.1,3.6-0.6,5.6c-2.4-3.3-1.8,1.1-2.2,3.4c1.2-1.1,1.6-1.7,3.1-1.1c-5,0.7-2.5,6.3-1.1,9.7c-3.8-6.7-0.9,6.5-0.3,9.1
				c1.2,2.9,1.3,1.5,1.6-0.9c2-1.7-1.7-3.8-0.6-4c0.3-7.8-0.8-0.2,1.5-0.2c-1.2-10.7-0.2-1.3,1.6,3c0.4-5.8,0.2,2.1,0.9,4.2
				c-3-7.3,0.4,2.8-2.2,0.9c-2.5,3,2.6,5.6,2.7,7.5c2.6,3.1,11.6,11.2,9.5,2.4c1.3,3.2,1.1,6.2,4.7,8c-3.8-2.9-3,2.3,0.8,3.2
				c1.5,0.1-0.3-2.9,1.1-0.6c1.7,0.1,5.7,2,1.2,0.7c-5,0.5,10.2,6.1,2.5,0.9c1.6,0.4,3,2.6,4.6,2.8c2-0.5,3.3-0.8,0.8,0.7
				c6.9,2.6,2.4-1.6,4.1-2.7c-0.4,5.7,5.9,3.3,9.1,2.6c-6.2,1.8,4.7,2.4,5.2-0.1c-1.1-0.6-1.6-1.2-4.4-0.6c0.7-0.9,5.4-0.6,4-1.7
				c-13.1,0.9,0.6-0.1,6.1-1.9c2.4-0.9,4.8-1.9,7-3.1c1.6,1.2-10.8,3.9-7.3,4.6c3.4-1.8,1.1,3,5,0.8c3.2-1.5,7.4-2.1,8.4-6.4
				c5-2.4,5.2-6,0.8-3.6c1.8-2,0.3-1.6-1.5-1.6c3-0.7,5.3-1.5,7.1-4.6c1.5-0.5-4.6,5.1-1.5,3.6c2.3-1.5,1.8,1.2,5.8-2.5
				c1.7-2.4,7-11.5,4.9-11.5c-0.6,1.2-2.1,2.3-0.7,0.4c1.3-1.9,1.9-3.8,0.8-5.7c1.6,3.1,1.6,1.4,2.1-1.1c0.8-3.4-1.1-0.4-2.8,0.6
				c-0.4-0.7,0.6-0.8,0.9-1.3c-0.9-0.3-1.3-0.4-0.1-0.5c3.9-1.1,2.1-6.4,0.7-8.8c-0.1-1.6,0.7,1.6,1.3,1.9c1.6,0,0.6-5.4-0.3-6.7
				c-0.1-2-1.2-7.1-2.3-7.2c1,2,0.3,3.2-0.7,5.1C166.8,86.7,164.6,86.4,165.9,91.2z M144.1,46.2c-0.6-6.3-8.5-3.5-10-8.7
				c-5.6,6.6,5.4,3.8,4.6,5.7c-9.3-2.3-2.9,3.6,1.8,5.2c3,0,2.7-2.2,1.1-3.7C144.3,44.9,141.6,45.3,144.1,46.2z M115.1,146
				c-7.7-0.2-7.5,0.7-0.6-1.2c-2.2-1.5-5.1-4.8-8-4.1c-2.8,0-1.2,2.8,0.5,3.5c-4.8-2.6-2,2.6,1,3.1
				C113.4,145.7,114.1,157.1,115.1,146z M138.4,146.7c3.4-0.2,4.1-4.3,1.1-5.8C134.7,139.6,132.2,146.9,138.4,146.7z M173.8,84.3
				c3.2-1,3.6-8-0.6-7.4C168.1,78.1,171.2,82.3,173.8,84.3z M109.5,47.8c8.2-2,1.1-9.3-2.9-4C105.5,48,109.6,47.4,109.5,47.8z
				 M77.5,109.4c-1.5-9.1-9.8-1.3-3.7,2.4C77.1,112.3,77.3,109.5,77.5,109.4z M91.8,41.9c4.1-5.3-12.9-4-4.5-0.2
				C94.1,45.3,86.5,35.5,91.8,41.9z M161.8,149.2c5.8,1.6-8.8-8.1-3.6-0.1C151.6,143.7,156.9,153,161.8,149.2z M108.3,33.7
				c-2.6,1-6.1,6.7-1.2,6.3C108.7,38.5,108.8,35.7,108.3,33.7z M184.4,78.7c-1.2-2.6-6.6-6-6.3-1.2C179.6,79,182.3,79.3,184.4,78.7z
				 M63.7,110.1c0.9,2.3,5.9,5.5,6,1.3C69,109.2,65.5,109.2,63.7,110.1z M141.6,148.3c-2.4,0.2-2.7,3.6-2.2,5.4
				C141,155.6,145.2,148.5,141.6,148.3z M66.6,83.7c3.6,4.5,7.7-0.7,4.4-3C68.8,82.2,69.2,83.2,66.6,83.7z M84,75.3
				c-1.3,1.9-2.7,5.3-2.6,7.4C82.6,80.3,85.8,78.1,84,75.3z M116.6,140.1c7.5,0.8-1.9-0.9,3.6-2c-0.6-0.6-4-0.1-2.3,0.7
				C117.3,139.4,115,138.5,116.6,140.1z M130.9,136.6c1.3-0.3,2.1,0.6,3.2,0.4c-0.1-0.8-0.8-1,0.8-0.4
				C133.6,133.5,130.9,135.8,130.9,136.6z M79,86.6c-2.1-0.2-1.4,3-1.1,4.3C79,90.5,78.5,87.8,79,86.6z M170.1,100
				c0.5-4.8-2.7,0.8-1,1.9C170.6,101.8,169.2,99.2,170.1,100z M127.7,48.6c1.1,0.5,2.9,0.8,4,0.6C131,47.5,128.9,47.7,127.7,48.6z
				 M84.5,105.7c-0.5,0.6-1.7,1.8-0.7,2.4C85,108,85.9,106.3,84.5,105.7z M135.4,134.9c-0.3-1.3-1.8-2-2.6-0.8
				C133.6,134.8,134.5,135.5,135.4,134.9z M148.8,154.7c0.9,1.3-0.7,2.4-0.3,3.4C150.4,159.7,149.8,155.5,148.8,154.7z M98.4,33.2
				c-0.1-1.6,1.9-2.8-0.5-3.5C98.2,31,97.6,32.1,98.4,33.2z M113.4,54.7c-0.9-0.4-1.8-1.6-2.7-0.7C111.4,55,111.9,55.9,113.4,54.7z
				 M163.3,84.5c0.5-0.4,1.7-1.9,0.9-2.5C162.9,82.4,162.6,83.2,163.3,84.5z M59.4,120.1c0.8,0.1,4.5-0.5,3.1-0.7
				C61,119.6,59.9,117.8,59.4,120.1z M168.3,104.6c1,0.3,1.8-1.9,1.1-2.2C168.2,102.4,168.3,103.7,168.3,104.6z M185.7,68.3
				c1.3,2.1,2.8,0.8,2.6-0.4C187.4,68.2,186.6,68.7,185.7,68.3z M115.6,140.2c0.1-1.4-0.9-1.6-2.1-1.5
				C113.6,139.9,114.7,139.8,115.6,140.2z M168.6,73.4c0.1-0.8-0.1-2.8-1.3-1.9C167,72.2,167.8,73.1,168.6,73.4z M133.9,49.6
				c-0.2-0.8-1.2-1.6-1.9-1.2C131.9,49.4,133.2,49.9,133.9,49.6z M145.6,141.6c1-0.6,0.3-2.7-0.6-1.5
				C145.3,140.7,145,141.2,145.6,141.6z M91.2,129.4c0.4,0.6,1.2,2,1.8,1.5C92.5,130.3,92.1,129.2,91.2,129.4z M172.2,114.4
				c1.2,0.1,1.2-0.6,0.6-1.3C172.1,113.5,172,113.7,172.2,114.4z M104.8,143c-0.4-0.3-0.8-0.7-1.2-0.3
				C103.2,143.6,104.3,143.8,104.8,143z M78.7,84.4c-0.2,0.5-1.3,1.3-0.6,1.6C78.8,85.6,79.3,85.5,78.7,84.4z M79.5,93.4
				c0.6-0.5,0.3-1.4,0.2-2.1C79.2,91.8,79.1,92.6,79.5,93.4z M165.4,110.4c-0.6,2.2,1.2,0.8,0.9-0.3
				C166.2,110.6,166.1,110.7,165.4,110.4z M86.7,64c0.4-0.5,1.7-0.9,0.7-1.3C87.1,63.1,86.6,63.3,86.7,64z M144.9,139
				c0.8,0.2,0.9-0.1,0.8-0.8C145.1,138.3,145.1,138.6,144.9,139z M61.6,118.9c0.4-0.2,1.2-0.1,1.2-0.4
				C62.3,118.6,60.5,118.2,61.6,118.9z M131.1,137.1c0.6,0.3,1.1,0.2,1.5-0.1C132.1,136.8,131.7,136.9,131.1,137.1z M186.1,69.8
				c0.1-0.4-0.1-0.4-0.4-0.4C184.7,69.4,185.5,69.9,186.1,69.8z M99.4,31.9c-0.7,0-0.6,1,0,0.9C99.4,32.5,99.4,32.2,99.4,31.9z
				 M169.3,88.3c-0.1,0.4-0.1,0.9,0.1,1.3C169.5,89.2,169.5,88.7,169.3,88.3z M109.3,53.5c-0.4-0.2-0.6-0.7-1.1-0.3
				C108.6,53.3,108.8,53.8,109.3,53.5z M148.1,155.4c-0.1,0.5-0.1,0.7-0.1,1.2C148.6,156.2,148.2,155.8,148.1,155.4z M184.6,68.7
				c0.5,0.4,0.6,0.4,0.8-0.1C185.2,68.7,185,68.7,184.6,68.7z M168.2,101.8c0.2-0.2,0.3-0.4,0-0.6C168,101.5,168,101.6,168.2,101.8z
				 M83.2,110.3c0.2,0.1,0.2-0.2,0.2-0.3C83.1,109.8,83.2,110.1,83.2,110.3z M84,104.7c-0.2,0.3-0.2,0.3,0,0.5
				C84.1,105,84,104.9,84,104.7z M184.1,69.8c0.1,0.3,0.2,0.2,0.4,0.1C184.6,69.8,184.3,69.9,184.1,69.8z"/>
			<path class="st0" d="M168.7,59.8c-1.1-1.6-6.8-1.4-5.8-1.9C166.9,58.7,167.4,56,168.7,59.8z"/>
			<path class="st0" d="M212.7,111.1c2,3-3.2-1.9-5.6-0.7C208.7,109.8,214.2,110.2,212.7,111.1z"/>
			<path class="st0" d="M142,4.7c-3.4,5.5-1.7,7.6-2.1,0.2C140.3,4.5,141.2,5.7,142,4.7z"/>
			<path class="st0" d="M107.8,178.4c-0.3,3.6,0.7,5.2-2.3,5.2C106.9,182.4,107.5,180,107.8,178.4z"/>
			<path class="st0" d="M39.7,77.9c-2.6,0.6-5.5,0.1-5.2-1.9C35.8,77.4,37.9,78,39.7,77.9z"/>
			<path class="st0" d="M154.5,37.2c1.2,1.4,1.3,3.3,2.6,4.6C155.5,41.1,154.4,38.6,154.5,37.2z"/>
			<path class="st0" d="M58,90.7c0,1.5-0.3,2.8,0.4,4.3C57.9,96.2,56.6,91.9,58,90.7z"/>
			<path class="st0" d="M91,147c1.6,0.9,2.2,2.9,2.4,4.5C92.1,150.2,92.1,148.4,91,147z"/>
			<path class="st0" d="M177,126.4c1.2-1,2.6-1.5,4.1-1.7C180,125.9,178.4,126.5,177,126.4z"/>
			<path class="st0" d="M87.2,56.3c0,1.4-1.2-2.9-0.1-3.9C87.2,53.7,87.1,55,87.2,56.3z"/>
			<path class="st0" d="M70.4,62c-0.7,1.1-1.9,1.8-3.3,1.3C68.2,62.8,69.3,62.1,70.4,62z"/>
			<path class="st0" d="M127.4,28.4c-1.7,0.1-2.7-0.3-4.2,0.1C124.2,27,126,27.7,127.4,28.4z"/>
			<path class="st0" d="M189.7,93.8c1.6,1.3,0.4,2.1,0,3.7C189.4,96.2,189.8,95,189.7,93.8z"/>
			<path class="st0" d="M120.7,160c1.6,0.2,2.8-0.1,4.3-0.3C123.3,161.1,122.4,161.1,120.7,160z"/>
			<path class="st0" d="M79.8,132c0.4-1.3,0.5-2.2-0.7-3.1C81.1,129,80.9,131.2,79.8,132z"/>
			<path class="st0" d="M47.8,142.5c-1.1,0.1-3.4,2.3-3.2,1.6C44.1,143.2,46.7,142.1,47.8,142.5z"/>
			<path class="st0" d="M172,170.5c0.8,2.2,3.2,2.7,0.6,3.2C173.1,172.6,172,171.7,172,170.5z"/>
			<path class="st0" d="M74,15.2c0.9-0.8,1.9,2,1.4,3C75.3,17,74.6,16,74,15.2z"/>
			<path class="st0" d="M88.6,51.2c-1.4-0.2-2.4-0.7-0.6-0.9C89.9,48.7,88.7,49.8,88.6,51.2z"/>
			<path class="st0" d="M200.1,45.9c1.9-0.5,2.3-2.3,3.4-0.5C202.4,45,201.5,45.8,200.1,45.9z"/>
			<path class="st0" d="M86.6,131.7c-0.7,1.1-2.9,0.7-3.7,0.1C84.2,131.7,85.5,131.9,86.6,131.7z"/>
			<path class="st0" d="M160,161c-0.5-1.1-1.1-2.1-2.2-2.8C158.9,157.8,160.4,160.2,160,161z"/>
			<path class="st0" d="M59.9,128c-0.1,1.2-1,2.2-2.3,2.1C58.5,129.5,59.3,128.9,59.9,128z"/>
			<path class="st0" d="M90,30.3c-1.3,0.3-2-1.6-2.5-2.6C88.5,28.5,88.8,29.5,90,30.3z"/>
			<path class="st0" d="M190.3,58.1c-0.9,0.2-2.1,2.2-2.6,1.7C188.1,59,189.4,57.8,190.3,58.1z"/>
			<path class="st0" d="M97,149.2c0.1,0.8-1.1,3.2-1.3,2.8C95.9,150.9,96.3,150.1,97,149.2z"/>
			<path class="st0" d="M66.7,66.3c1.2,0,1.6,1,2.7,1.4C68.6,67.7,66.8,67.1,66.7,66.3z"/>
			<path class="st0" d="M151.7,36.8c0.2,1-0.2,1.6-1.1,2C150.9,38.2,151.1,37.1,151.7,36.8z"/>
			<path class="st0" d="M172,45c0.2,0.8,1,1.2,1.4,2C172.4,46.6,171.3,46,172,45z"/>
			<path class="st0" d="M171.9,127.5c0.1-0.9,0.3-1.6,0.4-2.5C172.7,126,172.8,126.7,171.9,127.5z"/>
			<path class="st0" d="M76.3,45.1c-0.3,0.9-0.6,1.8-1.6,0.8C75.5,45.9,75.8,45,76.3,45.1z"/>
			<path class="st0" d="M62.6,124.3c-0.1,1-0.4,0.9-0.9,1.6C60.8,126.8,62,124.1,62.6,124.3z"/>
			<path class="st0" d="M179.3,121c0.8,0.1,1.4,0.7,2.1,0.9C180.6,122.4,179.8,121.7,179.3,121z"/>
			<path class="st0" d="M75.4,143.4c0-0.6-0.1-1-0.5-1.6C75.9,141.9,76.3,143.1,75.4,143.4z"/>
			<path class="st0" d="M93.7,33c-0.7-0.5-2.4-0.9-1.7-1.4C92.5,32.4,94.3,32.2,93.7,33z"/>
			<path class="st0" d="M175.1,35c-0.7,0.5-1.7-0.2-1.6,1C172.4,34.5,174,35.1,175.1,35z"/>
			<path class="st0" d="M173.2,142.4c-0.7,0-1.2,0.2-1.6,0.8C171,142.2,173.1,141.8,173.2,142.4z"/>
			<path class="st0" d="M194.5,161.9c-0.9-0.7-0.9-1.6-2.2-1.2C193.1,159.8,194.4,160.8,194.5,161.9z"/>
			<path class="st0" d="M91.2,142.6c0.6,0.1,1.2-0.3,1.9,0.1C92.4,142.9,91.8,143.3,91.2,142.6z"/>
			<path class="st0" d="M196,163.8c0.6,0.5,1,0.9,1.6,1.6C196.9,165.1,195.8,164.4,196,163.8z"/>
			<path class="st0" d="M64.6,43.1c0.2,0.9,0.7,1.5,0,2.1C64.8,44.5,64.3,43.9,64.6,43.1z"/>
			<path class="st0" d="M42.3,43.4c0.6,0.4,1.1,0.8,1.8,1.3C43.6,44.9,42.3,43.9,42.3,43.4z"/>
			<path class="st0" d="M135.6,186.1c0.2,0.7,0.5,1.2,0.8,1.8C135.8,187.7,135,186.5,135.6,186.1z"/>
			<path class="st0" d="M111.8,1.1c0.6,0.6,0.7,1.2,0.4,1.8C112.2,2.1,111.7,1.8,111.8,1.1z"/>
			<path class="st0" d="M95,9.7c-0.2,0.4,0,2.5-0.4,1.8C94.7,10.9,94.3,9.9,95,9.7z"/>
			<path class="st0" d="M52.2,25c-0.5-0.5-1.1-0.8-1.5-1.6C51.5,23.8,51.8,24.4,52.2,25z"/>
			<path class="st0" d="M153.9,155.5c0.5,0,1.3-0.1,1.1,0.6C154.6,156.1,154.1,156,153.9,155.5z"/>
			<path class="st0" d="M149.8,40.6c0.2,0.6-0.3,0.9-0.5,1.3C149.1,41.5,149.1,41.5,149.8,40.6z"/>
			<path class="st0" d="M190,160.9c0.6-0.1,1.7-0.5,2,0.1C191.3,160.9,190.5,161.3,190,160.9z"/>
			<path class="st0" d="M185.9,140.1c0-0.4,0.4-0.9,1.1-1.2C186.6,139.3,186.5,139.9,185.9,140.1z"/>
			<path class="st0" d="M97.9,147.5c-0.1-0.6,0.4-0.9,0.5-1.4C99,146.6,98,147.1,97.9,147.5z"/>
			<path class="st0" d="M205.1,144.7c-0.3-0.1-1.6-0.8-1.2-1C204.3,144,205,144.3,205.1,144.7z"/>
			<path class="st0" d="M137.3,157.1c-0.4,0.4-0.9,0.9-1.4,1.3C136.2,157.9,136.8,157,137.3,157.1z"/>
			<path class="st0" d="M171.5,33.5c0.4,0.4,0.8,0.8,1.3,1.2C172.1,34.7,171.5,34.1,171.5,33.5z"/>
			<path class="st0" d="M183.1,144.6c0.2,0.6-0.1,1.2,0.1,1.8C182.9,146.2,182.7,144.7,183.1,144.6z"/>
			<path class="st0" d="M190.8,24.2c-0.2-0.4,0.6-1,1-0.8C191.6,23.9,191,24,190.8,24.2z"/>
			<path class="st0" d="M182.4,143.9c0.2-0.3,0.5-0.6,0.7-0.8C183,143.8,182.8,144,182.4,143.9z"/>
			<path class="st0" d="M56.3,164.6c0.3-0.3,0.5-0.6,1-0.6C56.9,164.7,56.9,164.7,56.3,164.6z"/>
			<path class="st0" d="M147.2,159.1c0.1,0.4,0.1,0.8-0.1,1.2C147.1,159.9,146.8,159.2,147.2,159.1z"/>
			<path class="st0" d="M27.6,108.5c-0.3,0.3-0.5,0.6-0.8,0.8C26.5,108.9,27.2,108.2,27.6,108.5z"/>
			<path class="st0" d="M194.4,161.9c0.4,0.1,0.6,0.5,0.7,1C194.7,162.6,194.4,162.3,194.4,161.9z"/>
			<path class="st0" d="M61.8,48.2c-0.2,0.4-0.6,0.7-1,1.1C61.1,48.6,61.4,48.4,61.8,48.2z"/>
			<path class="st0" d="M79,157.3c-0.4-0.1-0.6-0.3-0.8-0.7C78.8,156.6,78.8,156.8,79,157.3z"/>
			<path class="st0" d="M64,45.8c0,0.3-0.2,0.4-0.4,0.5C63.4,45.8,63.4,45.8,64,45.8z"/>
			<path class="st0" d="M216.4,82.4c-0.4,0.3-0.8,0.2-1.3,0.2C215.5,82.3,216,82.4,216.4,82.4z"/>
			<path class="st0" d="M74.8,153.5c-0.3-0.2-0.7-0.2-0.7-0.6C74.4,152.8,74.9,153.3,74.8,153.5z"/>
			<path class="st0" d="M172.8,162.7c0,0.7,0,0.7-0.2,1.1C172.4,163.3,172.7,163,172.8,162.7z"/>
			<path class="st0" d="M169,31.6c0.5-0.2,0.6,0.2,0.8,0.6C169.4,32.2,169.2,31.9,169,31.6z"/>
			<path class="st0" d="M207.7,86c0.4,0.1,0.5,0.4,0.8,0.7C208.1,86.6,207.8,86.4,207.7,86z"/>
			<path class="st0" d="M208.1,65.3c-0.2-0.1-0.8,0.1-0.8-0.2C207.6,65,207.9,64.9,208.1,65.3z"/>
			<path class="st0" d="M75.7,154.3c-0.4,0-0.4-0.4-0.6-0.6C75.3,153.9,75.9,154,75.7,154.3z"/>
			<path class="st0" d="M79.3,116.7c0.5-0.2,0.3,0.5,0.3,0.8C79.3,117.2,79.4,116.8,79.3,116.7z"/>
			<path class="st0" d="M72.9,153.3c0.2,0,0.5,0,0.8,0C73.4,153.6,72.9,153.7,72.9,153.3z"/>
			<path class="st0" d="M58.2,104.6c0.3,0.2,0.6,0.4,0.7,0.8C58.6,105.2,58.2,105,58.2,104.6z"/>
			<path class="st0" d="M209.1,65.6c-0.2,0.1-0.5,0.1-0.8-0.2C208.6,65.5,209.1,65.2,209.1,65.6z"/>
			<path class="st0" d="M172.7,14.9c0.2,0.2,0.2,0.4-0.1,0.6C172.5,15.3,172.5,15.1,172.7,14.9z"/>
			<path class="st0" d="M177,126.4c0.2,0.5-0.3,0.6-0.6,0.9C176.4,126.9,176.6,126.8,177,126.4z"/>
			<path class="st0" d="M173.3,14.4c-0.1-0.3-0.1-0.5,0.2-0.7C173.8,14.1,173.4,14.2,173.3,14.4z"/>
			<path class="st0" d="M189.7,93.8c-0.5,0-0.5-0.1-0.3-0.6C189.5,93.4,189.6,93.6,189.7,93.8z"/>
			<path class="st0" d="M76.1,151.4c0.1-0.2-0.1-0.7,0.2-0.6C76.2,150.9,76.4,151.5,76.1,151.4z"/>
			<path class="st0" d="M152.6,178.4c0.1,0.3,0.3,0.5,0,0.7C152.4,178.9,152.5,178.8,152.6,178.4z"/>
			<path class="st0" d="M168.5,30.7c0.2,0.3,0.5,0.5,0.5,0.9C168.8,31.4,168.5,31.1,168.5,30.7z"/>
			<path class="st0" d="M156,156.9c-0.2-0.1-0.5,0-0.4-0.3C156,156.5,156,156.5,156,156.9z"/>
			<path class="st0" d="M189.3,98.2c0.1-0.2-0.1-0.6,0.2-0.6C189.4,97.9,189.6,98.3,189.3,98.2z"/>
			<path class="st0" d="M216.4,82.5c0-0.4,0.1-0.5,0.7-0.3C216.8,82.3,216.5,82.3,216.4,82.5z"/>
			<path class="st0" d="M62.9,46.7c0,0.4-0.2,0.6-0.5,0.7C62.2,47.2,62.9,47,62.9,46.7z"/>
			<path class="st0" d="M71.4,153.4c0.3,0.1,0.9-0.1,1,0.1C72.2,153.4,71.6,153.6,71.4,153.4z"/>
			<path class="st0" d="M176.7,119.8c0.2,0.1,0.3,0.2,0.6,0.3C176.9,120.2,176.6,120.1,176.7,119.8z"/>
			<path class="st0" d="M119.7,159.7c0.2,0,0.4,0,0.7,0C120.1,160,119.9,159.9,119.7,159.7z"/>
			<path class="st0" d="M76.1,154.5c0.2,0.2,0.3,0.8,0.5,0.5C76.2,154.9,76.2,154.9,76.1,154.5z"/>
			<path class="st0" d="M38.9,123.1c0.3-0.3,0.5-0.2,0.8,0C39.4,123.1,39.2,123.1,38.9,123.1z"/>
			<path class="st0" d="M167,146.7c0.2,0,0.4,0,0.6,0C167.4,147,167,146.9,167,146.7z"/>
			<path class="st0" d="M66.6,46.6c0.3-0.3,0.5-0.2,0.8,0C67,46.7,66.9,46.7,66.6,46.6z"/>
			<path class="st0" d="M61,126.2c0.1,0.2,0.2,0.3,0.3,0.5C60.9,126.6,60.9,126.6,61,126.2z"/>
			<path class="st0" d="M152.9,176.6c0.1,0.2,0.3,0.4,0.1,0.7C152.8,177.1,152.8,176.9,152.9,176.6z"/>
			<path class="st0" d="M95,9.7C95,9.5,95,9.3,95,9C95.2,9.4,95.3,9.5,95,9.7z"/>
			<path class="st0" d="M170.5,64.7c0,0.2,0,0.3,0,0.6C170.3,64.9,170.3,64.9,170.5,64.7z"/>
			<path class="st0" d="M70.6,68.2c-0.2-0.1-0.4-0.1-0.6-0.2C70.3,67.7,70.7,68,70.6,68.2z"/>
			<path class="st0" d="M141.1,16.6c0.2,0.1,0.1,0.3,0.1,0.4C141.1,17.1,141,16.7,141.1,16.6z"/>
			<path class="st0" d="M171.5,33.5c-0.5,0.3-0.4-0.3-0.7-0.3C170.9,32.9,171.3,33.5,171.5,33.5z"/>
			<path class="st0" d="M55.6,165c0.3-0.1,0.5-0.2,0.7-0.3C56.1,165.1,56.1,165.1,55.6,165z"/>
			<path class="st0" d="M45.6,45.5c-0.2,0.2-0.5,0.1-0.7,0C45.2,45.1,45.4,45.4,45.6,45.5z"/>
			<path class="st0" d="M71.4,176.5c-0.2,0-0.3,0-0.5,0C71.1,176.2,71.2,176.2,71.4,176.5z"/>
			<path class="st0" d="M58.5,89.7c0,0.1,0,0.3-0.1,0.5C58.1,89.9,58.3,89.6,58.5,89.7z"/>
			<path class="st0" d="M220.4,79.9c-0.2,0-0.4,0.4-0.6,0C220,79.7,220.2,79.8,220.4,79.9z"/>
			<path class="st0" d="M186.8,61.9c-0.2-0.2-0.3-0.3-0.4-0.4C186.7,61.3,186.8,61.4,186.8,61.9z"/>
			<path class="st0" d="M86.7,131.7c0-0.2,0.1-0.4,0.3-0.4C87,131.7,86.9,131.6,86.7,131.7z"/>
			<path class="st0" d="M138.6,191.1c-0.1-0.1-0.2-0.2-0.4-0.4C138.5,190.7,138.6,190.8,138.6,191.1z"/>
			<path class="st0" d="M151.3,181.7c0,0.1-0.1,0.2-0.1,0.3C150.9,182.1,151,181.5,151.3,181.7z"/>
			<path class="st0" d="M206,145.4c-0.1,0-0.3-0.1-0.4-0.1C205.8,145,206.1,145.2,206,145.4z"/>
			<path class="st0" d="M73.4,175.2c0.1-0.1,0.2-0.5,0.3-0.3C73.6,175.1,73.6,175.5,73.4,175.2z"/>
			<path class="st0" d="M66.7,66.3c-0.2,0-0.4,0-0.8,0C66.3,66,66.5,66.3,66.7,66.3z"/>
			<path class="st0" d="M74.6,173.9c-0.1,0.2-0.2,0.3-0.3,0.5C74.1,174.1,74.2,174,74.6,173.9z"/>
			<path class="st0" d="M70.4,61.9c0.1-0.1,0.2-0.2,0.3-0.4C70.8,61.8,70.6,62.1,70.4,61.9z"/>
			<path class="st0" d="M176.9,11.9c-0.3,0.3-0.4,0.3-0.5,0C176.5,11.9,176.6,11.9,176.9,11.9z"/>
			<path class="st0" d="M174.5,12.4c0.2,0.2,0.2,0.4-0.1,0.4C174.4,12.7,174.5,12.5,174.5,12.4z"/>
			<path class="st0" d="M88.4,58.4c-0.2,0.1-0.3,0.3-0.4,0.1C88.1,58.2,88.2,58.2,88.4,58.4z"/>
			<path class="st0" d="M74,15.2c-0.2,0-0.3-0.1-0.6-0.2C74,14.9,73.9,15,74,15.2z"/>
			<path class="st0" d="M175.9,119.7c0.2-0.3,0.4-0.3,0.6,0C176.3,119.7,176.2,119.7,175.9,119.7z"/>
			<path class="st0" d="M75.2,24.3c-0.1,0.1,0,0.4-0.2,0.3C75,24.5,74.9,24.3,75.2,24.3z"/>
			<path class="st0" d="M60.7,126.8c0.1,0.3,0.1,0.4-0.3,0.4C60.5,127.1,60.6,127,60.7,126.8z"/>
			<path class="st0" d="M61.8,48.3c0.1-0.2,0.1-0.4,0.2-0.7C62.3,48.1,61.8,48.1,61.8,48.3z"/>
			<path class="st0" d="M116.6,158.1c0.2,0.1,0.3,0.1,0.5,0.2C116.8,158.4,116.4,158.4,116.6,158.1z"/>
			<path class="st0" d="M122.6,28.6c0.1,0,0.3,0,0.5-0.1C123,28.9,122.6,28.9,122.6,28.6z"/>
			<path class="st0" d="M156,157c0.3,0,0.7-0.1,0.4,0.3C156.3,157.2,156.1,157,156,157z"/>
			<path class="st0" d="M205.1,144.7c0.2,0,0.4,0,0.3,0.4C205.3,145,205.2,144.8,205.1,144.7z"/>
			<path class="st0" d="M127.8,28.8c0.2-0.3,0.4-0.2,0.7,0C128.2,28.8,128,28.8,127.8,28.8z"/>
			<path class="st0" d="M206.5,145.6c0,0.2,0,0.3,0,0.5C206.3,145.9,206.3,145.8,206.5,145.6z"/>
			<path class="st0" d="M155.1,156.1c0.2,0,0.4,0.1,0.3,0.4C155.2,156.6,154.9,156.3,155.1,156.1z"/>
			<path class="st0" d="M92.4,46.3c-0.1,0.1-0.2,0.2-0.3,0.5C92,46.3,92.2,46.3,92.4,46.3z"/>
			<path class="st0" d="M137,151.3c0.1-0.3,0.3-0.3,0.5,0C137.3,151.3,137.1,151.3,137,151.3z"/>
			<path class="st0" d="M148.8,42.7c0-0.1,0-0.3,0-0.5C149.1,42.4,149,42.5,148.8,42.7z"/>
			<path class="st0" d="M97.8,147.4c0,0.1-0.1,0.3-0.2,0.6C97.5,147.5,97.7,147.6,97.8,147.4z"/>
			<path class="st0" d="M44.3,44.9c0.2,0.1,0.5,0,0.4,0.3C44.5,45.2,44.2,45.2,44.3,44.9z"/>
			<path class="st0" d="M62.7,125.4c0.1,0.1,0.4,0.3,0.1,0.4C62.7,125.7,62.5,125.6,62.7,125.4z"/>
			<path class="st0" d="M76.2,152c0,0.2,0.2,0.4-0.1,0.4C76.2,152.3,75.9,152,76.2,152z"/>
			<path class="st0" d="M63,46.8c0.1-0.1,0.2-0.3,0.3-0.4C63.3,46.7,63.1,46.8,63,46.8z"/>
			<path class="st0" d="M170.4,32.6c0.1,0.1,0.4,0.2,0.2,0.4C170.5,32.8,170.2,32.7,170.4,32.6z"/>
			<path class="st0" d="M91.1,31c-0.1,0-0.2,0.1-0.4,0.2C90.7,30.9,91,30.7,91.1,31z"/>
			<path class="st0" d="M168.5,30.7c-0.3-0.1-0.3-0.1-0.3-0.4C168.3,30.5,168.4,30.6,168.5,30.7z"/>
			<path class="st0" d="M90.5,30.6c-0.2,0.2-0.2,0.1-0.4,0C90.2,30.4,90.3,30.5,90.5,30.6z"/>
			<path class="st0" d="M102.5,144.7c0.1,0.3,0,0.4-0.4,0.4C102.3,144.9,102.4,144.8,102.5,144.7z"/>
			<path class="st0" d="M79,157.3c0.1,0.1,0.3,0.2,0.5,0.4C79,157.7,79,157.4,79,157.3z"/>
			<path class="st0" d="M191.9,23.1c0.1,0,0.4-0.2,0.4,0C192.1,23.2,191.9,23.4,191.9,23.1z"/>
			<path class="st0" d="M134.6,159.7c-0.1,0.1-0.3,0.2-0.3,0C134.5,159.6,134.5,159.5,134.6,159.7z"/>
			<path class="st0" d="M91.1,20.1c-0.2-0.2-0.3-0.2-0.1-0.3C91.1,19.8,91.2,19.8,91.1,20.1z"/>
			<path class="st0" d="M129.1,160c-0.2,0.2-0.2,0.2-0.4,0C128.9,159.9,128.9,159.9,129.1,160z"/>
			<path class="st0" d="M173.3,14.4c-0.1,0.1-0.2,0.3-0.2,0.4C172.9,14.4,173.2,14.4,173.3,14.4z"/>
			<path class="st0" d="M177,12.3c0.2,0,0.3,0,0.4,0C177.3,12.6,177.3,12.6,177,12.3z"/>
			<path class="st0" d="M220.4,79.9c0-0.2-0.1-0.4,0.3-0.4C220.6,79.6,220.5,79.8,220.4,79.9z"/>
			<path class="st0" d="M55.3,165.6c-0.2-0.3,0.1-0.3,0.3-0.4C55.6,165.4,55.4,165.4,55.3,165.6z"/>
			<path class="st0" d="M55.3,165.6c-0.2,0-0.3,0.4-0.5,0.1C54.8,165.4,55.1,165.5,55.3,165.6z"/>
			<path class="st0" d="M175.6,11.7c-0.1,0-0.2,0-0.3,0C175.1,11.5,175.6,11.5,175.6,11.7z"/>
			<path class="st0" d="M154.7,172.1c0.1,0.1,0.3,0.1,0.4,0.2C154.8,172.5,154.6,172.3,154.7,172.1z"/>
			<path class="st0" d="M74.8,173.4c-0.1,0.2-0.1,0.5-0.3,0.4C74.6,173.6,74.6,173.2,74.8,173.4z"/>
			<path class="st0" d="M70.8,68.3c0.2,0.1,0.4,0.1,0.3,0.2C70.9,68.6,70.7,68.6,70.8,68.3z"/>
			<path class="st0" d="M71.9,176.7c0.1,0,0.3-0.1,0.3,0.1C72,176.9,71.8,177,71.9,176.7z"/>
			<path class="st0" d="M142,4.7c0.1-0.1,0.3-0.1,0.4-0.2C142.4,4.8,142.2,4.8,142,4.7z"/>
			<path class="st0" d="M46.2,77c-0.2-0.1-0.5,0.1-0.6-0.1C45.9,77,46.2,76.8,46.2,77z"/>
			<path class="st0" d="M111.4,0.9c-0.1-0.2-0.1-0.3-0.2-0.5C111.6,0.6,111.6,0.7,111.4,0.9z"/>
			<path class="st0" d="M34.3,75.4c0,0.2,0.2,0.4,0,0.4C34.2,75.7,34,75.4,34.3,75.4z"/>
			<path class="st0" d="M79.3,116.7c-0.1-0.1-0.2-0.2-0.3-0.4C79.4,116.2,79.4,116.5,79.3,116.7z"/>
			<path class="st0" d="M162.7,111.1c-0.4,1.2,0.3,2.6-0.5,3.7C161.9,113.8,161.6,112.4,162.7,111.1z"/>
			<path class="st0" d="M143.8,55.1c-0.8,1-1.9,0.6-3.1,0.2C142,55.6,142.6,54.6,143.8,55.1z"/>
			<path class="st0" d="M117.7,56.2c1.7,0,2.1,0.2,1.6,1.6C118.8,56.9,118.5,56.3,117.7,56.2z"/>
			<path class="st0" d="M116.3,55.8c-1,0.3-2.6,0.9-3.3,0.3C114.1,56.1,115.2,55.5,116.3,55.8z"/>
			<path class="st0" d="M161.2,89.9c0.3-0.3,0.8-0.6,0.8-1.2C162,89.5,161.6,91.8,161.2,89.9z"/>
			<path class="st0" d="M128.3,132.3c-0.7,0.6-1-0.3-1.8-0.3C127.2,130.7,127.2,132.2,128.3,132.3z"/>
			<path class="st0" d="M86,100.6c0-1,0-1.6,1.1-0.9C86.7,99.8,86.4,100.7,86,100.6z"/>
			<path class="st0" d="M162.2,87c0-1.1-0.7-1.7-0.3-2.8C162,85.2,162.7,86.1,162.2,87z"/>
			<path class="st0" d="M130.4,132.6c0.9,0,1.9-0.2,2.8,0.1C132.4,132.6,131,133,130.4,132.6z"/>
			<path class="st0" d="M83.2,89.3c0.4-0.4,0.6-0.7,0.7-1.2C84.2,88.6,83.9,89.6,83.2,89.3z"/>
			<path class="st0" d="M163.6,109.6c0,0.5-0.1,0.7-0.6,1.3C162.7,110.4,163.4,110,163.6,109.6z"/>
			<path class="st0" d="M82.9,87.7c-0.6,0.9-0.5,0.4-0.5-0.4C82.6,87.5,82.7,87.6,82.9,87.7z"/>
			<path class="st0" d="M163.4,101.7c-0.2-0.6,0.2-0.8,0.4-1.1C163.9,100.8,163.9,100.8,163.4,101.7z"/>
			<path class="st0" d="M114.5,134.9c0.2-0.2,0.5-0.4,0.8-0.1C115,135.1,114.8,135.1,114.5,134.9z"/>
			<path class="st0" d="M85.1,75.6c0.3-0.2,0.5-0.4,0.8-0.6C85.7,75.5,85.5,75.6,85.1,75.6z"/>
			<path class="st0" d="M85.7,101.5c0-0.3,0-0.5,0-0.7C86,101,86,101.2,85.7,101.5z"/>
			<path class="st0" d="M82.6,104.1c0,0.1,0.1,0.4-0.1,0.4C82.5,104.4,82.3,104.1,82.6,104.1z"/>
			<path class="st0" d="M161.6,114.4c-0.2,0.1-0.3,0.2-0.5,0.2C161,114.4,161.3,114.2,161.6,114.4z"/>
			<path class="st0" d="M102,129.9c0.2,0.1,0.4,0.3,0.1,0.7C102,130.2,102.1,129.9,102,129.9z"/>
			<path class="st0" d="M87.2,71c-0.1,0.2-0.2,0.3-0.3,0.5C86.8,71.1,86.8,71.1,87.2,71z"/>
			<path class="st0" d="M86.4,72c0.1-0.1,0.1-0.4,0.2-0.3C86.6,71.8,86.7,72.1,86.4,72z"/>
			<path class="st0" d="M156.3,118.4c-0.1-0.2-0.2-0.4,0.2-0.5C156.4,118,156.3,118.2,156.3,118.4z"/>
			<path class="st0" d="M101.2,129.1c0.1,0.1,0.3,0.3,0.4,0.4C101.4,129.6,101.2,129.2,101.2,129.1z"/>
			<path class="st0" d="M144.5,57.7c0.1,0.1,0.2,0.2,0.3,0.4C144.3,58.3,144.2,57.9,144.5,57.7z"/>
			<path class="st0" d="M143.4,56.4c-0.1-0.1-0.1-0.2-0.2-0.3C143.4,56,143.5,56.1,143.4,56.4z"/>
			<path class="st0" d="M102,129.8c-0.3,0.1-0.4-0.2-0.4-0.4C101.7,129.6,101.9,129.8,102,129.8z"/>
			<path class="st0" d="M107.7,144.7c-0.1-0.1-0.5-0.1-0.4-0.3C107.4,144.5,107.8,144.4,107.7,144.7z"/>
			<path class="st0" d="M173.3,112.1c-0.3-0.4,0.2-0.7,0.5-1C173.8,111.5,173.5,111.8,173.3,112.1z"/>
			<path class="st0" d="M74.1,76.5c0.1,0.3,0,0.5-0.2,0.7C73.7,76.8,74.1,76.7,74.1,76.5z"/>
			<path class="st0" d="M178.3,60.1c0.1-0.2,0.3-0.4,0.7-0.3C178.7,60,178.5,60.2,178.3,60.1z"/>
		</g>
	</g>
</g>
<g id="Layer_5">
	<g>
		<path class="st0" d="M53.3,221.1H66c2.1,0,3.8,0.3,5.2,0.9c2.6,1.2,3.9,3.4,3.9,6.6c0,1.7-0.3,3.1-1,4.1c-0.7,1.1-1.7,1.9-2.9,2.6
			c1.1,0.4,1.9,1,2.5,1.8c0.6,0.7,0.9,1.9,0.9,3.5l0.1,3.8c0,1.1,0.1,1.9,0.3,2.4c0.2,0.9,0.6,1.5,1.2,1.7v0.6h-4.7
			c-0.1-0.2-0.2-0.6-0.3-0.9S71,247,71,245.9l-0.2-4.7c-0.1-1.8-0.8-3.1-2-3.7c-0.7-0.3-1.8-0.5-3.3-0.5h-8.4v12h-3.8L53.3,221.1
			L53.3,221.1z M65.6,233.9c1.7,0,3.1-0.4,4.1-1.1s1.5-2,1.5-3.9c0-2-0.7-3.4-2.1-4.1c-0.8-0.4-1.8-0.6-3-0.6h-9v9.6L65.6,233.9
			L65.6,233.9z"/>
		<path class="st0" d="M89.1,221.1h4.3l10.2,28h-4.2l-2.8-8.4H85.5l-3,8.4h-3.9L89.1,221.1z M95.3,237.6l-4.2-12.4l-4.5,12.4H95.3z"
			/>
		<path class="st0" d="M107.8,221.1h3.8v28h-3.8V221.1z"/>
		<path class="st0" d="M118,221.1h11.2c3.8,0,6.7,1.4,8.8,4.1c1.9,2.5,2.8,5.6,2.8,9.5c0,3-0.6,5.7-1.6,8.1c-1.9,4.2-5.3,6.4-10,6.4
			H118V221.1z M128.4,245.8c1.2,0,2.3-0.1,3.1-0.4c1.4-0.5,2.6-1.4,3.5-2.9c0.7-1.1,1.3-2.6,1.6-4.3c0.2-1.1,0.3-2,0.3-2.9
			c0-3.5-0.7-6.2-2-8.1s-3.5-2.9-6.5-2.9h-6.6v21.5H128.4z"/>
		<path class="st0" d="M146.4,221.1h20.3v3.4H150v8.5h15.4v3.2H150v9.5h16.9v3.3h-20.6L146.4,221.1L146.4,221.1z"/>
		<path class="st0" d="M172,221.1h4.5l13.9,22.6v-22.6h3.6v28h-4.3l-14.2-22.6V249H172V221.1z"/>
	</g>
</g>
</svg>
