<?xml version="1.0" encoding="utf-8"?>
<!-- Generator: Adobe Illustrator 24.1.0, SVG Export Plug-In . SVG Version: 6.00 Build 0)  -->
<svg version="1.1" id="Layer_1" xmlns="http://www.w3.org/2000/svg" xmlns:xlink="http://www.w3.org/1999/xlink" x="0px" y="0px"
	 viewBox="0 0 735.07 192.07" style="enable-background:new 0 0 735.07 192.07;" xml:space="preserve">
<style type="text/css">
	.st0{fill:#FFFFFF;}
</style>
<g>
	<path class="st0" d="M118.81,28.45l6.3-11.13l3.78,2.52L106,60.16c0.14,0.14,0.42,0.21,0.84,0.21s0.7-0.07,0.84-0.21h6.93
		c13.44,0,24.36,2.03,32.76,6.09c13.16,6.44,19.74,16.38,19.74,29.82c0,13.16-6.58,25.41-19.74,36.75
		c-8.4,7.28-20.79,14.98-37.17,23.1c-6.16-1.54-10.92-3.36-14.28-5.46c-1.68-0.7-3.25-1.37-4.73-2s-2.77-1.29-3.88-2
		c-16.66,8.4-30.87,12.6-42.63,12.6h-2.52c-0.7-0.14-1.47-0.21-2.31-0.21c-13.3-1.68-20.02-7.35-20.16-17.01
		c-0.14-6.44,3.01-11.55,9.45-15.33c5.18-3.36,11.27-5.04,18.27-5.04c5.6,0,11.27,0.42,17.01,1.26l7.35-13.02H57.49
		c-1.4,0.14-2.8,0.14-4.2,0c-7.7-0.14-14.91-2.52-21.63-7.14c-5.32-3.36-7.98-8.61-7.98-15.75c0-9.94,5.88-17.36,17.64-22.26
		c0-15.68,12.18-32.48,36.54-50.4v-0.21L118.81,28.45z M44.05,137.23c-4.62,0-8.54,0.98-11.76,2.94c-2.1,1.26-3.15,3.22-3.15,5.88
		c0,4.76,3.15,7.63,9.45,8.61h1.47c0.42,0.14,0.91,0.21,1.47,0.21c13.02,0,26.18-3.43,39.48-10.29v-0.21
		C66.87,139.61,54.55,137.23,44.05,137.23z M77.55,79.69c-4.13,0.28-8.23,0.42-12.29,0.42c-6.02,0-10.71-0.56-14.07-1.68
		c-4.2-1.54-7.28-4.83-9.24-9.87c-3.78,2.8-5.67,6.09-5.67,9.87c0,4.76,2.38,8.47,7.14,11.13c3.92,2.1,8.47,3.15,13.65,3.15h6.3
		c2.24,0,4.41-0.03,6.51-0.1c2.1-0.07,4.2-0.17,6.3-0.32l6.3-0.42l7.56-13.44C85.84,78.99,81.68,79.41,77.55,79.69z M72.61,32.02
		h-1.68c-4.48,0.42-8.37,2.17-11.65,5.25c-3.29,3.08-4.94,6.79-4.94,11.13c0,8.96,5.95,13.72,17.85,14.28h1.26h1.26
		c0.56,0,1.26,0,2.1,0c0.84,0,1.82-0.07,2.94-0.21H85c1.68-0.14,3.78-0.35,6.3-0.63c2.52-0.28,5.46-0.63,8.82-1.05l9.66-16.8
		C94.38,36.01,81.99,32.02,72.61,32.02z M87.52,127.99c2.94,0.7,5.88,1.51,8.82,2.42c2.94,0.91,5.88,1.86,8.82,2.83
		c1.82-1.12,3.99-2.59,6.51-4.41c2.52-1.82,5.53-4.06,9.03-6.72c2.38-2.38,3.57-4.97,3.57-7.77c0-2.52-1.33-4.62-3.99-6.3
		c-2.1-1.26-4.55-1.89-7.35-1.89c-3.08,0-6.58,0.21-10.5,0.63l-21.63,2.31c-0.84,0.42-1.96,0.63-3.36,0.63l-7.98,13.65L87.52,127.99
		z M94.03,91.03c2.24-0.14,4.69-0.49,7.35-1.05c0.56,0,1.33-0.07,2.31-0.21c0.98-0.14,1.75-0.21,2.31-0.21
		c4.34-0.42,7.35-0.63,9.03-0.63c3.64,0,6.65,0.28,9.03,0.84c11.76,2.52,17.64,7.98,17.64,16.38c0,8.12-6.3,15.96-18.9,23.52
		c-1.54,0.84-3.36,1.89-5.46,3.15l-5.04,2.73l7.56,2.94c1.26,0.56,2.52,1.09,3.78,1.57c1.26,0.49,2.45,1.02,3.57,1.58
		c0.42-0.42,0.84-0.7,1.26-0.84c16.24-11.34,24.36-23.31,24.36-35.91c0-8.82-3.85-15.82-11.55-21c-6.58-4.48-14.49-6.72-23.73-6.72
		c-3.64,0-7.32,0.07-11.02,0.21c-3.71,0.14-7.39,0.35-11.02,0.63l-7.56,13.02C89.76,91.17,91.79,91.17,94.03,91.03z"/>
	<path class="st0" d="M261.4,13.96c0.42,0,1.75,0.28,3.99,0.84c17.5,3.64,31.78,10.43,42.84,20.37c12.88,11.62,19.32,25.62,19.32,42
		c0,5.46-1.19,11.55-3.57,18.27c-5.74,15.82-16.24,30.1-31.5,42.84c-16.24,13.58-32.41,20.37-48.51,20.37
		c-17.08,0-31.43-6.02-43.05-18.06c-11.34-11.9-17.01-26.6-17.01-44.1c0-12.04,3.08-25.83,9.24-41.37v-0.21L261.4,13.96z
		 M200.08,84.52c0,13.16,4.41,25.9,13.23,38.22c3.08-3.08,5.18-6.65,6.3-10.71c0.56-2.1,0.84-6.3,0.84-12.6V44.2
		C206.87,54.42,200.08,67.86,200.08,84.52z M245.34,32.34c-1.75-0.07-3.54-0.1-5.35-0.1V86.2c0,10.22-1.96,18.13-5.88,23.73
		c-2.38,3.64-8.26,9.1-17.64,16.38c9.66,9.66,21.07,15.26,34.23,16.8V32.65C248.87,32.51,247.09,32.41,245.34,32.34z M279.25,71.71
		c8.82,0,16.66-3.22,23.52-9.66c-8.4-15.82-24.22-25.41-47.46-28.77v28.56C263.01,68.42,270.99,71.71,279.25,71.71z M278.41,89.14
		c8.96,0,17.78,3.99,26.46,11.97c0.42-1.54,0.84-3.36,1.26-5.46c0.42-2.1,0.77-4.48,1.05-7.14c0-0.28,0-0.7,0-1.26
		c0-0.56,0.07-1.19,0.21-1.89v-3.15c0-4.2-0.98-9.38-2.94-15.54c-8.54,6.16-16.87,9.24-24.99,9.24c-8.26,0-16.31-3.08-24.15-9.24
		v31.5C262.59,92.15,270.29,89.14,278.41,89.14z M285.13,132.4c8.4-6.72,14.42-15.47,18.06-26.25c-7-8.26-15.26-12.39-24.78-12.39
		c-9.1,0-16.8,3.64-23.1,10.92v38.22C266.09,143.04,276.03,139.54,285.13,132.4z"/>
	<path class="st0" d="M447.67,71.71h-20.79v49.35c0,10.92-2.45,19.04-7.35,24.36c-5.32,5.74-15.75,11.97-31.29,18.69l-30.87,13.65
		c-1.82-0.98-3.57-1.89-5.25-2.73c-1.68-0.84-3.43-1.75-5.25-2.73c-4.2-2.1-7.91-3.15-11.13-3.15c-2.1,0-3.92,0.98-5.46,2.94
		c-0.42,0.42-1.47,2.31-3.15,5.67l-4.2-1.26l0.84-2.94c1.68-6.02,3.99-10.78,6.93-14.28c2.94-3.5,6.72-5.25,11.34-5.25
		c5.18,0,10.29,1.12,15.33,3.36c2.24,1.12,4.48,2.31,6.72,3.57c2.24,1.26,4.55,2.45,6.93,3.57c0.98-0.56,1.78-1.19,2.42-1.89
		c0.63-0.7,1.12-1.58,1.47-2.62c0.35-1.05,0.63-2.42,0.84-4.09c0.21-1.68,0.38-3.92,0.53-6.72v-2.52V71.71
		c-8.54,0.28-15.19,1.12-19.95,2.52c-6.44,1.82-12.04,5.46-16.8,10.92l-2.73-2.52l0.63-1.05c0.14-0.28,0.21-0.49,0.21-0.63
		c0-0.14,0.07-0.35,0.21-0.63c4.2-9.24,9.17-15.47,14.91-18.69c5.04-2.8,12.88-4.27,23.52-4.41V40.63c2.24,0,4.76-0.28,7.56-0.84
		c21-3.5,35.63-12.04,43.89-25.62c0.28,0.14,0.59,0.35,0.95,0.63c0.35,0.28,0.73,0.56,1.15,0.84c8.12,5.88,15.12,8.82,21,8.82
		c5.74,0,10.78-3.43,15.12-10.29l3.15,0.42c-0.7,7.56-3.08,13.58-7.14,18.06c-4.48,5.04-10.29,7.56-17.43,7.56
		c-4.48,0-10.36-1.61-17.64-4.83v21.63h26.67L447.67,71.71z M395.59,43.78v71.82c0,16.94-3.08,29.75-9.24,38.43
		c-0.98,1.26-1.99,2.59-3.04,3.99c-1.05,1.4-2.28,2.87-3.67,4.41c18.76-10.36,28.14-23.8,28.14-40.32V39.37
		C404.27,41.05,400.21,42.52,395.59,43.78z"/>
	<path class="st0" d="M469.09,157.81c4.62-14.98,13.79-23.1,27.51-24.36c7.84-0.7,13.79-2.1,17.85-4.2
		c3.64-1.96,5.46-7.21,5.46-15.75c0-9.1-2.31-17.15-6.93-24.15c-2.8-4.06-6.93-6.09-12.39-6.09c-5.04,0-9.8,2.03-14.28,6.09
		l-1.89-1.47c6.02-11.06,13.79-16.59,23.31-16.59h1.68c0.56,0.14,1.12,0.25,1.68,0.32c0.56,0.07,1.47,0.25,2.73,0.52
		c0.7-18.76,7.56-34.44,20.58-47.04c-0.14,0.14-0.63,0.35-1.47,0.63c-8.12,2.8-13.93,4.2-17.43,4.2c-0.7,0-2.21-0.17-4.51-0.53
		c-2.31-0.35-5.29-0.87-8.92-1.57c-0.7-0.14-1.47-0.24-2.31-0.31c-0.84-0.07-1.61-0.1-2.31-0.1c-6.58,0-11.55,3.57-14.91,10.71
		l-2.31-0.63c0.7-6.72,3.32-12.29,7.88-16.7c4.55-4.41,10.04-6.61,16.48-6.61c3.22,0,8.12,0.77,14.7,2.31
		c6.16,1.4,10.99,2.1,14.49,2.1c5.04,0,10.08-1.19,15.12-3.57l1.89,2.1c-12.32,10.64-18.48,23.94-18.48,39.9
		c0,3.22,0.21,7.18,0.63,11.87c0.42,4.69,0.98,10.18,1.68,16.48c0.7,6.3,1.26,11.76,1.68,16.38s0.63,8.54,0.63,11.76
		c0,7.98-2.38,13.72-7.14,17.22c-4.06,2.94-10.22,4.83-18.48,5.67c0.98,0.56,2.17,1.4,3.57,2.52c1.4,1.12,3.08,2.59,5.04,4.41
		c7,6.16,12.53,9.24,16.59,9.24c5.32,0,9.38-1.82,12.18-5.46c2.8-3.64,4.2-8.19,4.2-13.65c0-4.06-0.31-9.13-0.94-15.23
		c-0.63-6.09-1.51-13.19-2.62-21.31c-1.12-8.12-2-15.19-2.62-21.21c-0.63-6.02-0.95-11.06-0.95-15.12c0-26.6,11.2-41.58,33.6-44.94
		l2.1,3.36l-3.15,0.84c-10.64,2.66-15.96,9.59-15.96,20.79c0,7.42,1.26,19.39,3.78,35.91c1.12,7.84,2,14.74,2.62,20.69
		c0.63,5.95,0.95,11.1,0.95,15.44c0,0.7-0.04,1.65-0.11,2.83c-0.07,1.19-0.18,2.56-0.31,4.09c-1.12,11.62-4.34,20.86-9.66,27.72
		c-6.58,7.98-15.19,11.97-25.83,11.97c-5.6,0-13.51-1.89-23.73-5.67c-10.08-3.78-17.78-5.67-23.1-5.67
		c-6.16,0-11.2,3.57-15.12,10.71h-0.21L469.09,157.81z"/>
	<path class="st0" d="M697.98,160.12c-6.86-3.92-10.85-8.4-11.97-13.44c-0.42-1.82-0.77-3.88-1.05-6.2
		c-0.28-2.31-0.49-4.93-0.63-7.87l-35.28,27.51c-11.48-8.26-22.19-14.42-32.13-18.48c-3.36-1.26-6.3-1.89-8.82-1.89
		c-1.12,0-2.17,0.49-3.15,1.47c-0.98,0.98-1.47,2.03-1.47,3.15c0,0.42,0.24,1.12,0.73,2.1c0.49,0.98,1.01,2,1.58,3.04
		c0.56,1.05,1.05,2.1,1.47,3.15c0.42,1.05,0.63,1.93,0.63,2.62c-0.28,2.8-2.1,4.2-5.46,4.2c-3.64,0-5.95-2.17-6.93-6.51v-1.05
		c-0.14-0.28-0.21-0.63-0.21-1.05c0-3.78,1.26-7.77,3.78-11.97c1.12-1.82,2.31-3.57,3.57-5.25c1.26-1.68,2.45-3.43,3.57-5.25
		l15.12-22.26c-17.78-11.06-26.67-25.55-26.67-43.47c0-12.88,5.11-24.15,15.33-33.81c10.22-9.66,21.91-14.77,35.07-15.33h1.05h0.84
		c13.58,0,27.16,4.34,40.74,13.02c0.7,0.42,1.47,0.95,2.31,1.58s1.82,1.37,2.94,2.21c3.22-3.5,6.65-6.58,10.29-9.24
		c3.64-2.66,7.49-4.9,11.55-6.72l2.31,3.36l-3.36,2.31c-5.88,3.92-9.52,7.84-10.92,11.76c-1.26,3.36-1.89,7.56-1.89,12.6v3.57
		c0-0.14,0,0.14,0,0.84c0,0.7,0.07,1.82,0.21,3.36l3.36,70.98V124v0.84c0,6.02,0.7,10.5,2.1,13.44c0.84,1.96,2.17,2.94,3.99,2.94
		c1.54,0,3.57-1.05,6.09-3.15c0.14-0.14,0.42-0.38,0.84-0.73c0.42-0.35,0.7-0.59,0.84-0.74l3.36,3.57L697.98,160.12z M640.86,56.8
		c-5.18,0-9.94,2.8-14.28,8.4l-3.78-1.89c5.18-13.02,12.88-19.53,23.1-19.53c5.18,0,10.99,0.77,17.43,2.31l5.88-8.82
		c-7.84-4.2-16.87-6.3-27.09-6.3c-10.22,0-19.81,3.71-28.77,11.13c-7.14,6.16-10.71,13.79-10.71,22.89
		c0,14.28,7.21,26.53,21.63,36.75l28.56-41.16C648.21,58.06,644.23,56.8,640.86,56.8z M623.85,110.35l-8.19,11.76l48.09,20.37
		l20.37-15.75l-0.84-16.38H623.85z M673.2,40l-39.06,55.44h48.3l-2.31-49.98C678.31,43.64,676,41.82,673.2,40z"/>
</g>
</svg>
