<?xml version="1.0" encoding="utf-8"?>
<!-- Generator: Adobe Illustrator 24.1.0, SVG Export Plug-In . SVG Version: 6.00 Build 0)  -->
<svg version="1.1" id="Layer_2" xmlns="http://www.w3.org/2000/svg" xmlns:xlink="http://www.w3.org/1999/xlink" x="0px" y="0px"
	 viewBox="0 0 250 250" style="enable-background:new 0 0 250 250;" xml:space="preserve">
<style type="text/css">
	.st0{fill:#FFFFFF;}
</style>
<path class="st0" d="M88.01,39.25c0,0-16.22-30.6-11.23-36.33c3.97-4.56,23.37,29.63,23.89,30.83s-0.3,5.17-3.93,6.93
	S89.32,40.6,88.01,39.25z"/>
<path class="st0" d="M95.11,46.22c-0.05,0.09-1.38-1.95-1.65-2.78c0,0,5.58-2.39,6.52-3.52l0.83,0.94
	C100.81,40.85,96.68,43.53,95.11,46.22z"/>
<path class="st0" d="M122.45,102.25c-17.91,0-32.48-14.57-32.48-32.48s14.57-32.48,32.48-32.48s32.48,14.57,32.48,32.48
	S140.36,102.25,122.45,102.25z"/>
<path class="st0" d="M122.45,34.71c-19.36,0-35.06,15.7-35.06,35.06s15.7,35.06,35.06,35.06s35.06-15.7,35.06-35.06
	S141.81,34.71,122.45,34.71z M122.45,103.54c-18.62,0-33.77-15.15-33.77-33.77c0-18.62,15.15-33.77,33.77-33.77
	c18.62,0,33.77,15.15,33.77,33.77C156.22,88.39,141.07,103.54,122.45,103.54z"/>
<path class="st0" d="M122.45,48.43c-6.79,0-10-6.07-10-6.07s0.99-9.21,10-9.21s10.11,9.92,10.11,9.92S130.99,48.43,122.45,48.43z"/>
<path class="st0" d="M115.82,29.36c-0.53,0-0.97,0.44-0.97,0.97c0,0.53,0.44,0.97,0.97,0.97h0.34c0,1.22,0.01,2.09,0.01,2.36
	c1.61-1.08,3.66-1.8,6.27-1.8c2.59,0,4.64,0.75,6.25,1.9h0.2V31.3h0.34c0.53,0,0.97-0.44,0.97-0.97c0-0.53-0.44-0.97-0.97-0.97
	h-0.34v-2.06h0.34c0.53,0,0.97-0.44,0.97-0.97c0-0.53-0.44-0.97-0.97-0.97h-0.34v-9.85l-1.57-1.82h-9.29l-1.86,1.9
	c0,0-0.01,5.01-0.02,9.76h-0.34c-0.53,0-0.97,0.44-0.97,0.97c0,0.53,0.44,0.97,0.97,0.97h0.34c0,0.72,0,1.41,0,2.06H115.82z"/>
<path class="st0" d="M95.93,60.79c0,0,4.88,3.84,4.88,10.65s-5.84,9.95-5.84,9.95s-9.86-1.13-9.86-10.3S92.44,60.96,95.93,60.79z"/>
<path class="st0" d="M148.56,60.79c0,0-4.88,3.84-4.88,10.65s5.84,9.95,5.84,9.95s9.86-1.13,9.86-10.3S152.05,60.96,148.56,60.79z"
	/>
<path class="st0" d="M78.85,65.37l-20.29-0.51L35.47,50.52c0,0-1.57-2.89-0.72-6.24s4.97-4.97,4.97-4.97L66.5,41.9l16.72,11.88
	l0.34,7.01L78.85,65.37z"/>
<path class="st0" d="M84.47,66.7c0.45-1.39,1.18-2.72,2.31-3.85c0.36-1.89,0.85-3.73,1.5-5.5l-2.3-0.64c0,0-0.51,3.99-0.51,4.58
	c0,0.59-2.8,3.99-2.8,3.99s0,0,1.44,1.19C84.23,66.57,84.35,66.63,84.47,66.7z"/>
<path class="st0" d="M88.09,97.84l-14.51,14.19l-26.38,6.54c0,0-3.16-0.89-4.97-3.83c-1.81-2.95-0.1-7.02-0.1-7.02l20.53-17.39
	l20.18-3.7l5.26,4.64L88.09,97.84z"/>
<path class="st0" d="M95.15,94.42c-1.59-1.04-2.53-2.68-3.34-4.03c-1.1-1.58-2.08-3.21-2.9-4.91l-2.06,1.21c0,0,2.5,3.15,2.93,3.56
	c0.43,0.41,0.91,4.79,0.91,4.79s0,0,1.86-0.21C92.7,94.82,95.02,94.46,95.15,94.42z"/>
<path class="st0" d="M156.8,39.25c0,0,16.22-30.6,11.23-36.33c-3.97-4.56-23.37,29.63-23.89,30.83s0.3,5.17,3.93,6.93
	S155.49,40.6,156.8,39.25z"/>
<path class="st0" d="M149.7,46.22c0.05,0.09,1.38-1.95,1.65-2.78c0,0-5.58-2.39-6.52-3.52L144,40.85
	C144,40.85,148.13,43.53,149.7,46.22z"/>
<path class="st0" d="M165.96,65.37l20.29-0.51l23.09-14.35c0,0,1.57-2.89,0.72-6.24c-0.85-3.35-4.97-4.97-4.97-4.97l-26.78,2.59
	l-16.72,11.88l-0.34,7.01L165.96,65.37z"/>
<path class="st0" d="M160.34,66.7c-0.45-1.39-1.18-2.72-2.31-3.85c-0.36-1.89-0.85-3.73-1.5-5.5l2.3-0.64c0,0,0.51,3.99,0.51,4.58
	c0,0.59,2.8,3.99,2.8,3.99s0,0-1.44,1.19C160.58,66.57,160.46,66.63,160.34,66.7z"/>
<path class="st0" d="M156.72,97.84l14.51,14.19l26.38,6.54c0,0,3.16-0.89,4.97-3.83c1.81-2.95,0.1-7.02,0.1-7.02l-20.53-17.39
	l-20.18-3.7l-5.26,4.64L156.72,97.84z"/>
<path class="st0" d="M149.66,94.42c1.59-1.04,2.53-2.68,3.34-4.03c1.1-1.58,2.08-3.21,2.9-4.91l2.06,1.21c0,0-2.5,3.15-2.93,3.56
	c-0.43,0.41-0.91,4.79-0.91,4.79s0,0-1.86-0.21C152.11,94.82,149.79,94.46,149.66,94.42z"/>
<polygon class="st0" points="109.88,113.95 135.67,113.95 137.12,109.35 134.34,109.35 136.03,105.84 109.88,105.84 111.22,109.9 
	107.95,109.9 "/>
<path class="st0" d="M168.12,137.08c-3.03-6.66-10.61-7.39-10.61-7.39c-2.86-4-5.98-6.42-5.98-6.42v-4.24h-7.85
	c-5.44-3.02-19.77-3.32-21.12-3.17c-1.35-0.15-15.68,0.15-21.12,3.17h-7.85v4.24c0,0-3.13,2.42-5.98,6.42c0,0-7.58,0.73-10.61,7.39
	c-3.03,6.66,5.33,11.86,5.33,11.86s-2.3,12.35,1.69,24.21c4,11.86,9.2,10.53,9.2,10.53l0.61,4h10.9c0,0,7.28,2.03,17.72,2.06v0
	c0.04,0,0.07,0,0.11,0c0.04,0,0.07,0,0.11,0v0c10.44-0.03,17.72-2.06,17.72-2.06h10.9l0.61-4c0,0,5.21,1.33,9.2-10.53
	c4-11.86,1.69-24.21,1.69-24.21S171.15,143.74,168.12,137.08z"/>
<g>
	<path class="st0" d="M30.72,220.49v3.23h-9.15v23.92h-3.71v-23.92H8.71v-3.23H30.72z"/>
	<path class="st0" d="M40.72,220.49h4.16l9.85,27.15H50.7l-2.75-8.13H37.21l-2.94,8.13H30.5L40.72,220.49z M46.76,236.52
		l-4.12-11.99l-4.38,11.99H46.76z"/>
	<path class="st0" d="M78.79,222.47c1.88,1.81,2.92,3.87,3.12,6.17h-3.59c-0.4-1.75-1.2-3.14-2.39-4.16
		c-1.19-1.02-2.87-1.53-5.02-1.53c-2.63,0-4.75,0.94-6.36,2.82c-1.62,1.88-2.42,4.76-2.42,8.65c0,3.18,0.73,5.76,2.19,7.74
		c1.46,1.98,3.63,2.97,6.53,2.97c2.66,0,4.69-1.04,6.08-3.12c0.74-1.1,1.29-2.54,1.65-4.32h3.59c-0.32,2.86-1.36,5.25-3.14,7.19
		c-2.13,2.33-5.01,3.49-8.62,3.49c-3.12,0-5.74-0.95-7.86-2.87c-2.79-2.53-4.18-6.43-4.18-11.71c0-4.01,1.05-7.29,3.14-9.86
		c2.26-2.79,5.39-4.18,9.37-4.18C74.28,219.75,76.91,220.66,78.79,222.47z"/>
	<path class="st0" d="M88.53,220.49h3.71v11.22h13.95v-11.22h3.71v27.15h-3.71v-12.7H92.24v12.7h-3.71V220.49z"/>
	<path class="st0" d="M118.12,220.49h3.71v27.15h-3.71V220.49z"/>
	<path class="st0" d="M129.31,220.49h3.59v13.29l13.58-13.29h5.14l-11.6,10.96l11.84,16.19h-4.81L137.32,234l-4.42,4.18v9.46h-3.59
		V220.49z"/>
	<path class="st0" d="M178.44,224.37c1.8,2.4,2.7,5.48,2.7,9.22c0,4.05-1.03,7.42-3.09,10.11c-2.41,3.15-5.86,4.73-10.33,4.73
		c-4.18,0-7.46-1.38-9.85-4.14c-2.13-2.66-3.2-6.03-3.2-10.09c0-3.67,0.91-6.81,2.74-9.43c2.34-3.35,5.8-5.03,10.39-5.03
		C172.58,219.75,176.13,221.29,178.44,224.37z M175.19,241.68c1.45-2.32,2.17-5,2.17-8.02c0-3.19-0.84-5.77-2.5-7.71
		c-1.67-1.95-3.95-2.92-6.85-2.92c-2.81,0-5.1,0.96-6.88,2.9c-1.77,1.93-2.66,4.77-2.66,8.54c0,3.01,0.76,5.55,2.28,7.61
		c1.52,2.07,3.99,3.1,7.4,3.1C171.4,245.17,173.74,244,175.19,241.68z"/>
	<path class="st0" d="M186.94,220.49h5.27l7.81,22.95l7.75-22.95H213v27.15h-3.51v-16.02c0-0.55,0.01-1.47,0.04-2.75
		s0.04-2.66,0.04-4.12l-7.75,22.9h-3.64l-7.83-22.9v0.83c0,0.67,0.02,1.68,0.06,3.04c0.04,1.36,0.06,2.36,0.06,3v16.02h-3.51V220.49
		z"/>
	<path class="st0" d="M227.96,220.49h4.16l9.85,27.15h-4.03l-2.75-8.13h-10.74l-2.94,8.13h-3.77L227.96,220.49z M234.01,236.52
		l-4.12-11.99l-4.38,11.99H234.01z"/>
</g>
</svg>
