<?xml version="1.0" encoding="utf-8"?>
<!-- Generator: Adobe Illustrator 24.1.0, SVG Export Plug-In . SVG Version: 6.00 Build 0)  -->
<svg version="1.1" id="Layer_1" xmlns="http://www.w3.org/2000/svg" xmlns:xlink="http://www.w3.org/1999/xlink" x="0px" y="0px"
	 viewBox="0 0 250 250" style="enable-background:new 0 0 250 250;" xml:space="preserve">
<style type="text/css">
	.st0{fill:#FF6700;}
	.st1{fill:#FFFFFF;}
</style>
<path class="st0" d="M27.9,140.6H5.5l48.6-70.4L8.6,3.5h23.2L66.3,56l34.3-52.5h22L77.2,70.3l47.7,70.4h-23L65.4,84.3L27.9,140.6z"
	/>
<path class="st0" d="M176.4,3.5h20.9L247,140.6h-20.4l-14.3-41h-53.8l-14.8,41h-19L176.4,3.5z M207.2,84.3l-21.1-60.5l-21.9,60.5
	H207.2z"/>
<g>
	<g>
		<g>
			<path class="st1" d="M1.1,236.6L15,201.2h3.8l13.6,35.4H29l-4.2-11.1H8.7l-4.2,11.1H1.1z M9.9,222.7h13.9l-7-18.6L9.9,222.7z"/>
			<path class="st1" d="M52.5,201.3h3.3v21.1c0,4.4,0.8,7.5,2.4,9.5s4.3,2.9,7.9,2.9c1.9,0,3.5-0.3,4.8-0.8s2.4-1.3,3.2-2.3
				c0.8-1.1,1.4-2.3,1.8-3.8s0.5-3.4,0.5-5.4v-21.1h3.3v22.1c0,4.7-1.2,8.1-3.4,10.6s-5.7,3.7-10.3,3.7c-4.7,0-8-1.3-10.3-3.8
				c-2.2-2.5-3.4-6-3.4-10.6L52.5,201.3L52.5,201.3L52.5,201.3z"/>
			<path class="st1" d="M104.5,226.1c0.1,1.6,0.4,2.9,1.1,4c0.5,1.1,1.3,2,2.2,2.7c0.9,0.7,2,1.2,3.1,1.5c1.2,0.3,2.4,0.4,3.8,0.4
				c1.6,0,2.9-0.2,4.1-0.6c1.2-0.4,2.1-0.9,2.8-1.6c0.7-0.7,1.3-1.4,1.6-2.3c0.4-0.9,0.5-1.8,0.5-2.8c0-1.3-0.3-2.5-0.9-3.3
				c-0.6-0.9-1.4-1.5-2.4-2.1c-1-0.5-2.1-1-3.4-1.3s-2.6-0.6-4-1c-1.3-0.3-2.7-0.7-4-1.1c-1.3-0.4-2.4-1-3.4-1.7s-1.8-1.6-2.4-2.8
				s-0.9-2.6-0.9-4.3c0-1.3,0.3-2.4,0.8-3.6c0.5-1.2,1.3-2.1,2.2-3s2.2-1.6,3.8-2.1c1.5-0.5,3.2-0.8,5.2-0.8s3.8,0.3,5.3,0.8
				c1.5,0.6,2.8,1.3,3.8,2.3s1.7,2.1,2.2,3.4c0.5,1.3,0.7,2.7,0.7,4.1H123c0-1.3-0.3-2.5-0.7-3.5c-0.4-1-1.2-1.8-2-2.4
				s-1.8-1.1-2.8-1.3c-1.1-0.3-2.1-0.4-3.2-0.4c-1.7,0-3.1,0.3-4.3,0.7c-1.2,0.4-2.1,1.1-2.8,1.9c-0.7,0.7-1.2,1.6-1.4,2.5
				s-0.3,1.9-0.2,2.8c0.2,1.2,0.6,2.1,1.3,2.8s1.6,1.3,2.7,1.7s2.2,0.8,3.5,1.1s2.5,0.5,3.8,0.9c1.3,0.3,2.6,0.7,3.8,1.1
				c1.3,0.4,2.3,1,3.3,1.7s1.7,1.6,2.3,2.8c0.5,1.2,0.9,2.5,0.9,4.3c0,3.3-1.2,5.8-3.4,7.6s-5.4,2.7-9.6,2.7c-1.9,0-3.6-0.3-5.1-0.7
				c-1.6-0.4-2.9-1.2-4.1-2.1s-2.1-2.1-2.7-3.6c-0.6-1.4-1-3.1-1-5h2.9L104.5,226.1L104.5,226.1z"/>
			<path class="st1" d="M145.2,201.3H171v2.9h-11.2v32.6h-3.3v-32.6h-11.2v-2.8L145.2,201.3L145.2,201.3z"/>
			<path class="st1" d="M192.1,236.6v-35.4h3.3v35.4H192.1z"/>
			<path class="st1" d="M223.2,205.8L223.2,205.8l-0.1,30.8h-3.3v-35.4h3.8l20.5,31h0.1v-30.9h3.3v35.4h-3.8L223.2,205.8z"/>
		</g>
	</g>
</g>
<g id="Layer_2_1_">
	<g>
		<path class="st1" d="M4.3,189.7v-35.1H26v2.9H7.3v12.7h16.8v2.9H7.3V187h19v2.9h-22V189.7z"/>
		<path class="st1" d="M49.8,174.1l-9.5,15.6h-3.5l11.3-18.1l-10.8-17.1h3.6l9,14.8l9-14.8h3.6l-10.8,17.1l11.2,18.1h-3.6
			L49.8,174.1z"/>
		<path class="st1" d="M77.2,189.7v-35.1h11.9c2.1,0,3.8,0.3,5.3,0.8c1.3,0.5,2.5,1.3,3.3,2.1c0.8,0.9,1.3,2,1.7,3.1
			s0.4,2.4,0.4,3.8c0,2-0.4,3.6-1.1,4.8c-0.7,1.3-1.7,2.2-2.9,3c-1.2,0.7-2.5,1.3-4,1.5c-1.5,0.3-3,0.4-4.5,0.4h-7v15.6L77.2,189.7
			C77.2,189.8,77.2,189.7,77.2,189.7z M87.3,171.3c1.4,0,2.8-0.1,3.9-0.3c1.2-0.2,2.1-0.5,2.9-1.1c0.8-0.5,1.4-1.3,1.9-2.2
			c0.4-0.9,0.6-2.1,0.6-3.7c0-2.2-0.7-3.8-2.1-5s-3.5-1.7-6.4-1.7h-8v13.9L87.3,171.3L87.3,171.3z"/>
		<path class="st1" d="M112.7,189.7v-35.1h3v32.3h17.5v2.9L112.7,189.7L112.7,189.7z"/>
		<path class="st1" d="M143,172.2c0-2.6,0.4-5,1-7.2s1.6-4.2,2.9-5.9c1.3-1.7,2.9-3,4.7-3.9c1.9-1,4-1.4,6.4-1.4
			c2.5,0,4.7,0.4,6.7,1.4c1.9,1,3.5,2.2,4.8,3.9s2.2,3.7,2.9,5.9s1,4.7,1,7.2s-0.4,4.9-1,7.2c-0.6,2.2-1.6,4.2-2.9,5.9
			c-1.3,1.7-2.9,3-4.7,4c-1.9,1-4.1,1.4-6.6,1.4s-4.7-0.4-6.6-1.4s-3.5-2.3-4.7-4c-1.3-1.7-2.2-3.7-2.9-5.9
			C143.3,177.1,143,174.7,143,172.2z M158.2,187.7c2.1,0,3.9-0.4,5.4-1.3c1.5-0.9,2.8-2,3.8-3.4s1.7-3.1,2.1-5
			c0.4-1.9,0.7-3.8,0.7-5.9c0-2.4-0.3-4.7-0.8-6.5c-0.5-2-1.3-3.6-2.4-4.9s-2.3-2.4-3.8-3.1c-1.5-0.7-3.2-1.1-5.1-1.1
			c-2.1,0-3.9,0.4-5.4,1.3s-2.8,2.1-3.8,3.5s-1.7,3.1-2.1,5c-0.4,1.9-0.7,3.8-0.7,5.9s0.3,4.1,0.7,6s1.2,3.6,2.1,5s2.2,2.6,3.8,3.4
			C154.2,187.4,156.1,187.7,158.2,187.7z"/>
		<path class="st1" d="M190.3,173.7v16l-3-0.1v-35.1H200c3.6,0,6.4,0.7,8.2,2.1s2.9,3.8,2.9,7.1c0,2.2-0.4,3.9-1.3,5.3
			s-2.1,2.4-4,3.3c1,0.4,1.7,0.9,2.2,1.5s1,1.4,1.3,2.3c0.3,0.9,0.4,1.8,0.5,2.8s0.1,1.9,0.2,2.9c0,1.3,0.1,2.4,0.2,3.3
			c0.1,0.9,0.2,1.6,0.3,2.1s0.3,1,0.4,1.3c0.2,0.3,0.4,0.5,0.5,0.7v0.3l-3.4,0.1c-0.4-0.6-0.5-1.4-0.7-2.4c-0.2-1.1-0.3-2.1-0.4-3.3
			c-0.1-1.2-0.2-2.2-0.2-3.3c-0.1-1.1-0.1-2-0.3-2.6c-0.2-1-0.4-1.7-0.9-2.2c-0.4-0.5-0.9-1-1.4-1.3s-1.3-0.4-2-0.6
			c-0.7-0.1-1.4-0.2-2.2-0.2L190.3,173.7L190.3,173.7L190.3,173.7z M199.9,170.9c1.2,0,2.2-0.1,3.2-0.4c1-0.3,1.9-0.7,2.6-1.3
			c0.7-0.5,1.3-1.3,1.7-2.1c0.4-0.9,0.6-2,0.6-3.1c0-1.3-0.2-2.4-0.6-3.2c-0.4-0.8-1-1.5-1.8-2c-0.7-0.4-1.6-0.8-2.5-1
			c-1-0.2-2-0.3-2.9-0.3h-9.8V171h9.6L199.9,170.9L199.9,170.9z"/>
		<path class="st1" d="M225.2,189.7v-35.1H247v2.9h-18.6v12.7h16.7v2.9h-16.8V187h19v2.9h-22.1L225.2,189.7L225.2,189.7L225.2,189.7
			z"/>
	</g>
</g>
</svg>
