<?xml version="1.0" encoding="utf-8"?>
<!-- Generator: Adobe Illustrator 23.0.4, SVG Export Plug-In . SVG Version: 6.00 Build 0)  -->
<svg version="1.1" xmlns="http://www.w3.org/2000/svg" xmlns:xlink="http://www.w3.org/1999/xlink" x="0px" y="0px"
	 viewBox="0 0 612 498" style="enable-background:new 0 0 612 498;" xml:space="preserve">
<style type="text/css">
	.st0{fill:#0274B5;}
	.st1{fill:#05BAE5;}
	.st2{fill:#FFFFFF;}
	.st3{font-family:'HelveticaNeue-Bold';}
	.st4{font-size:30px;}
	.st5{fill:#1C2B59;}
	.st6{font-size:40px;}
	.st7{display:none;}
	.st8{display:inline;fill:#732062;}
	.st9{display:inline;}
	.st10{fill:#D01481;}
	.st11{display:inline;fill:#FFFFFF;}
</style>
<g id="Layer_1">
	<path class="st0" d="M561,450.3H44.4c-13.4,0-24.3-10.9-24.3-24.3V160.7c0-13.4,10.9-24.3,24.3-24.3H561
		c13.4,0,24.3,10.9,24.3,24.3V426C585.3,439.4,574.5,450.3,561,450.3z"/>
	<g>
		<g>
			<g>
				<path class="st1" d="M46.4,400.7h342.1c4.2,0,7.6,3.4,7.6,7.6v21.5c0,4.2-3.4,7.6-7.6,7.6H46.4c-4.2,0-7.6-3.4-7.6-7.6v-21.5
					C38.8,404.1,42.2,400.7,46.4,400.7z"/>
			</g>
		</g>
		<g>
			<g>
				<path class="st1" d="M46.4,350.4h342.1c4.2,0,7.6,3.4,7.6,7.6v21.5c0,4.2-3.4,7.6-7.6,7.6H46.4c-4.2,0-7.6-3.4-7.6-7.6v-21.5
					C38.8,353.9,42.2,350.4,46.4,350.4z"/>
			</g>
		</g>
		<g>
			<g>
				<path class="st1" d="M46.4,300.2h413.5c4.2,0,7.6,3.4,7.6,7.6v21.5c0,4.2-3.4,7.6-7.6,7.6H46.4c-4.2,0-7.6-3.4-7.6-7.6v-21.5
					C38.8,303.6,42.2,300.2,46.4,300.2z"/>
			</g>
		</g>
		<g>
			<g>
				<path class="st1" d="M46.4,249.9h365.9c4.2,0,7.6,3.4,7.6,7.6V279c0,4.2-3.4,7.6-7.6,7.6H46.4c-4.2,0-7.6-3.4-7.6-7.6v-21.5
					C38.8,253.3,42.2,249.9,46.4,249.9z"/>
			</g>
		</g>
		<g>
			<g>
				<path class="st1" d="M46.4,199.6h223c4.2,0,7.6,3.4,7.6,7.6v21.5c0,4.2-3.4,7.6-7.6,7.6h-223c-4.2,0-7.6-3.4-7.6-7.6v-21.5
					C38.8,203,42.2,199.6,46.4,199.6z"/>
			</g>
		</g>
		<g>
			<g>
				<path class="st1" d="M46.4,149.4h365.9c4.2,0,7.6,3.4,7.6,7.6v21.5c0,4.2-3.4,7.6-7.6,7.6H46.4c-4.2,0-7.6-3.4-7.6-7.6V157
					C38.8,152.8,42.2,149.4,46.4,149.4z"/>
			</g>
		</g>
	</g>
	<g>
		<g>
		</g>
		<g>
		</g>
		<g>
		</g>
		<g>
		</g>
		<g>
		</g>
		<g>
		</g>
	</g>
	<text transform="matrix(1 0 0 1 508.6497 328.8166)" class="st2 st3 st4">90%</text>
	<text transform="matrix(1 0 0 1 508.6497 383.4832)" class="st2 st3 st4">75%</text>
	<text transform="matrix(1 0 0 1 508.6497 428.8164)" class="st2 st3 st4">75%</text>
	<text transform="matrix(1 0 0 1 508.6497 278.8167)" class="st2 st3 st4">80%</text>
	<text transform="matrix(1 0 0 1 508.6497 231.4835)" class="st2 st3 st4">50%</text>
	<text transform="matrix(1 0 0 1 508.6497 178.1503)" class="st2 st3 st4">80%</text>
	<text transform="matrix(1 0 0 1 53.6507 178.1503)" class="st5 st3 st4">HTML</text>
	<text transform="matrix(1 0 0 1 53.6507 228.1502)" class="st5 st3 st4">JavaScript</text>
	<text transform="matrix(1 0 0 1 53.6507 278.1501)" class="st5 st3 st4">CSS</text>
	<text transform="matrix(1 0 0 1 53.6507 329.1499)" class="st5 st3 st4">VSCode</text>
	<text transform="matrix(1 0 0 1 53.6507 379.1498)" class="st5 st3 st4">GitKraken</text>
	<text transform="matrix(1 0 0 1 53.6507 429.1498)" class="st5 st3 st4">Bootstrap</text>
	<text transform="matrix(1 0 0 1 204.7855 53.9838)"><tspan x="0" y="0" class="st0 st3 st6">Left Brain</tspan><tspan x="-62.5" y="46" class="st0 st3 st6">Developer Skills</tspan></text>
</g>
<g id="Layer_2" class="st7">
	<path class="st8" d="M561,450.3H44.4c-13.4,0-24.3-10.9-24.3-24.3V160.7c0-13.4,10.9-24.3,24.3-24.3H561
		c13.4,0,24.3,10.9,24.3,24.3V426C585.3,439.4,574.5,450.3,561,450.3z"/>
	<g class="st9">
		<g>
			<g>
				<path class="st10" d="M47,400.5h336.2c4.6,0,8.3,3.7,8.3,8.3v20.5c0,4.6-3.7,8.3-8.3,8.3H47c-4.6,0-8.3-3.7-8.3-8.3v-20.5
					C38.7,404.2,42.4,400.5,47,400.5z"/>
			</g>
		</g>
		<g>
			<g>
				<path class="st10" d="M47,350.2h359.8c4.6,0,8.3,3.7,8.3,8.3v20.5c0,4.6-3.7,8.3-8.3,8.3H47c-4.6,0-8.3-3.7-8.3-8.3v-20.5
					C38.7,353.9,42.4,350.2,47,350.2z"/>
			</g>
		</g>
		<g>
			<g>
				<path class="st10" d="M47,300h430.3c4.6,0,8.3,3.7,8.3,8.3v20.5c0,4.6-3.7,8.3-8.3,8.3H47c-4.6,0-8.3-3.7-8.3-8.3v-20.5
					C38.7,303.7,42.4,300,47,300z"/>
			</g>
		</g>
		<g>
			<g>
				<path class="st10" d="M47,249.7h336.2c4.6,0,8.3,3.7,8.3,8.3v20.5c0,4.6-3.7,8.3-8.3,8.3H47c-4.6,0-8.3-3.7-8.3-8.3V258
					C38.7,253.4,42.4,249.7,47,249.7z"/>
			</g>
		</g>
		<g>
			<g>
				<path class="st10" d="M47,199.5h359.8c4.6,0,8.3,3.7,8.3,8.3v20.5c0,4.6-3.7,8.3-8.3,8.3H47c-4.6,0-8.3-3.7-8.3-8.3v-20.5
					C38.7,203.2,42.4,199.5,47,199.5z"/>
			</g>
		</g>
		<g>
			<g>
				<path class="st10" d="M47,149.2h406.8c4.6,0,8.3,3.7,8.3,8.3v20.5c0,4.6-3.7,8.3-8.3,8.3H47c-4.6,0-8.3-3.7-8.3-8.3v-20.5
					C38.7,152.9,42.4,149.2,47,149.2z"/>
			</g>
		</g>
	</g>
	<g class="st9">
		<g>
		</g>
		<g>
		</g>
		<g>
		</g>
		<g>
		</g>
		<g>
		</g>
		<g>
		</g>
	</g>
	<text transform="matrix(1 0 0 1 508.6497 328.8166)" class="st11 st3 st4">95%</text>
	<text transform="matrix(1 0 0 1 508.6497 383.4832)" class="st11 st3 st4">80%</text>
	<text transform="matrix(1 0 0 1 508.6497 428.8164)" class="st11 st3 st4">75%</text>
	<text transform="matrix(1 0 0 1 508.6497 278.8167)" class="st11 st3 st4">75%</text>
	<text transform="matrix(1 0 0 1 508.6497 231.4835)" class="st11 st3 st4">80%</text>
	<text transform="matrix(1 0 0 1 508.6497 178.1503)" class="st11 st3 st4">90%</text>
	<text transform="matrix(1 0 0 1 53.6507 178.1503)" class="st11 st3 st4">Photoshop</text>
	<text transform="matrix(1 0 0 1 53.6507 228.1502)" class="st11 st3 st4">Illustrator</text>
	<text transform="matrix(1 0 0 1 53.6507 278.1501)" class="st11 st3 st4">XD</text>
	<text transform="matrix(1 0 0 1 53.6507 329.1499)" class="st11 st3 st4">Sketching</text>
	<text transform="matrix(1 0 0 1 53.6507 379.1498)" class="st11 st3 st4">Wireframing</text>
	<text transform="matrix(1 0 0 1 53.6507 429.1498)" class="st11 st3 st4">Style guides</text>
	<text transform="matrix(1 0 0 1 190.7454 53.9838)" class="st9"><tspan x="0" y="0" class="st10 st3 st6">Right Brain</tspan><tspan x="-6.3" y="46" class="st10 st3 st6">UX/UI Skills</tspan></text>
</g>
</svg>
