<?xml version="1.0" encoding="utf-8"?>
<!-- Generator: Adobe Illustrator 23.0.4, SVG Export Plug-In . SVG Version: 6.00 Build 0)  -->
<svg version="1.1" xmlns="http://www.w3.org/2000/svg" xmlns:xlink="http://www.w3.org/1999/xlink" x="0px" y="0px"
	 viewBox="0 0 612 498" style="enable-background:new 0 0 612 498;" xml:space="preserve">
<style type="text/css">
	.st0{fill:#732062;}
	.st1{fill:#D01481;}
	.st2{font-family:'HelveticaNeue-Bold';}
	.st3{font-size:40px;}
	.st4{fill:#FFFFFF;}
	.st5{font-size:30px;}
</style>
<g id="Layer_1">
	<g>
		<path class="st0" d="M561,450.3H44.4c-13.4,0-24.3-10.9-24.3-24.3V160.7c0-13.4,10.9-24.3,24.3-24.3H561
			c13.4,0,24.3,10.9,24.3,24.3V426C585.3,439.4,574.5,450.3,561,450.3z"/>
		<g>
			<g>
				<g>
					<path class="st1" d="M47,400.5h336.2c4.6,0,8.3,3.7,8.3,8.3v20.5c0,4.6-3.7,8.3-8.3,8.3H47c-4.6,0-8.3-3.7-8.3-8.3v-20.5
						C38.7,404.2,42.4,400.5,47,400.5z"/>
				</g>
			</g>
			<g>
				<g>
					<path class="st1" d="M47,350.2h359.8c4.6,0,8.3,3.7,8.3,8.3V379c0,4.6-3.7,8.3-8.3,8.3H47c-4.6,0-8.3-3.7-8.3-8.3v-20.5
						C38.7,353.9,42.4,350.2,47,350.2z"/>
				</g>
			</g>
			<g>
				<g>
					<path class="st1" d="M47,300h430.3c4.6,0,8.3,3.7,8.3,8.3v20.5c0,4.6-3.7,8.3-8.3,8.3H47c-4.6,0-8.3-3.7-8.3-8.3v-20.5
						C38.7,303.7,42.4,300,47,300z"/>
				</g>
			</g>
			<g>
				<g>
					<path class="st1" d="M47,249.7h336.2c4.6,0,8.3,3.7,8.3,8.3v20.5c0,4.6-3.7,8.3-8.3,8.3H47c-4.6,0-8.3-3.7-8.3-8.3V258
						C38.7,253.4,42.4,249.7,47,249.7z"/>
				</g>
			</g>
			<g>
				<g>
					<path class="st1" d="M47,199.5h359.8c4.6,0,8.3,3.7,8.3,8.3v20.5c0,4.6-3.7,8.3-8.3,8.3H47c-4.6,0-8.3-3.7-8.3-8.3v-20.5
						C38.7,203.2,42.4,199.5,47,199.5z"/>
				</g>
			</g>
			<g>
				<g>
					<path class="st1" d="M47,149.2h406.8c4.6,0,8.3,3.7,8.3,8.3V178c0,4.6-3.7,8.3-8.3,8.3H47c-4.6,0-8.3-3.7-8.3-8.3v-20.5
						C38.7,152.9,42.4,149.2,47,149.2z"/>
				</g>
			</g>
		</g>
		<text transform="matrix(1 0 0 1 190.7454 53.9838)" class="st1 st2 st3">Right Brain</text>
		<text transform="matrix(1 0 0 1 184.4454 99.9838)" class="st1 st2 st3">UX/UI Skills</text>
	</g>
</g>
<g id="Layer_2">
</g>
<g id="Layer_3">
	<text transform="matrix(1 0 0 1 53.6507 178.1503)" class="st4 st2 st5">Photoshop</text>
	<text transform="matrix(1 0 0 1 53.6507 228.1502)" class="st4 st2 st5">Illustrator</text>
	<text transform="matrix(1 0 0 1 53.6507 278.1501)" class="st4 st2 st5">XD</text>
	<text transform="matrix(1 0 0 1 53.6507 329.1499)" class="st4 st2 st5">Sketching</text>
	<text transform="matrix(1 0 0 1 53.6507 379.1498)" class="st4 st2 st5">Wireframing</text>
	<text transform="matrix(1 0 0 1 53.6507 429.1498)" class="st4 st2 st5">Style guides</text>
	<text transform="matrix(1 0 0 1 508.6497 328.8166)" class="st4 st2 st5">95%</text>
	<text transform="matrix(1 0 0 1 508.6497 383.4832)" class="st4 st2 st5">80%</text>
	<text transform="matrix(1 0 0 1 508.6497 428.8164)" class="st4 st2 st5">75%</text>
	<text transform="matrix(1 0 0 1 508.6497 278.8167)" class="st4 st2 st5">75%</text>
	<text transform="matrix(1 0 0 1 508.6497 231.4835)" class="st4 st2 st5">80%</text>
	<text transform="matrix(1 0 0 1 508.6497 178.1503)" class="st4 st2 st5">90%</text>
</g>
</svg>
