<svg id="Layer_1" data-name="Layer 1" xmlns="http://www.w3.org/2000/svg" viewBox="0 0 564.64 87.02"><defs><style>.cls-1{fill:#8d744c;}.cls-2{fill:#4f1718;}.cls-3{fill:#231f20;}</style></defs><title>TXState</title><g id="Wjhqc0.tif"><path class="cls-1" d="M55.26,95a8,8,0,0,0-1.38-.18A26.84,26.84,0,0,1,49,93.67c0-.13.1-.1.16-.12a23.09,23.09,0,0,0,4.14-1.45,6.44,6.44,0,0,0,1.51-1,1.8,1.8,0,0,0,.54-.67,14.1,14.1,0,0,1-11.17-2,17.88,17.88,0,0,0,5.5-1.81,6.34,6.34,0,0,0,2.41-2.07,2.54,2.54,0,0,0-.4-3.51,9,9,0,0,0-2.95-1.7,29.93,29.93,0,0,0-5.42-1.46c-.76-.15-1.52-.31-2.28-.43-.28,0-.27-.13-.15-.33a34,34,0,0,1,3.43-4.65q1.52-1.77,3.18-3.39a.52.52,0,0,0,.2-.27,3.26,3.26,0,0,0-.88.36A18.61,18.61,0,0,0,42,72.88a22.85,22.85,0,0,0-3.16,3.9c-.09.15-.2.12-.32.11-1.43-.12-2.86-.21-4.3-.19A32.53,32.53,0,0,0,18,81a23.33,23.33,0,0,0-5.62,4.45,1.53,1.53,0,0,0-.15.19,5.47,5.47,0,0,1,.13-1.21,33.71,33.71,0,0,1,5.54-13.55,26.91,26.91,0,0,1,13-9.94c.1,0,.21-.05.26-.16-7.22,1.4-13,5.25-17.73,10.85.11-.72.19-1.38.3-2A49.63,49.63,0,0,1,18.46,55.2a35.77,35.77,0,0,1,8.21-10.6,30.09,30.09,0,0,1,9.67-5.66c.48-.17.48-.16.15-.56a28.12,28.12,0,0,1-4-6.77,35,35,0,0,1-1.24-3.28A.57.57,0,0,0,31,28a13.24,13.24,0,0,1-5.53-7.83,8.85,8.85,0,0,1-.26-1.34,15,15,0,0,0,3.95,3.84C27.14,17.9,26.93,13,27.33,8c.06.13.13.25.19.38a70.85,70.85,0,0,0,4.53,8.18A32.56,32.56,0,0,0,43.28,27c3,1.74,6.2,3.21,9.39,4.64,3.56,1.59,7.17,3,10.68,4.71a60.34,60.34,0,0,1,9.44,5.3,20.76,20.76,0,0,1,5.79,5.91,22.43,22.43,0,0,1,2.53,6.26c.17.64.31,1.28.45,1.92a1.19,1.19,0,0,0,.3.51,19.5,19.5,0,0,1,4.38,8.2,14,14,0,0,1,.35,2.14c0,.07,0,.17.07.22v1.7c-.07,0-.06.07-.06.12A8.29,8.29,0,0,1,86.4,70a4.76,4.76,0,0,1-2,3.13c-.12.07-.14.19-.18.31a12.53,12.53,0,0,1-.87,2.45,5.06,5.06,0,0,1-1.79,2.1,1.39,1.39,0,0,1-1.43.12c-.34-.14-.68-.27-1-.44a.41.41,0,0,0-.52.06,12.65,12.65,0,0,1-5.12,2.51,7,7,0,0,1-1.94.16c.46-.81.92-1.57,1.34-2.35a19.22,19.22,0,0,0,1.76-4.12,1.27,1.27,0,0,0,.07-.77,8.93,8.93,0,0,0-2-3.54,3.59,3.59,0,0,0-2.17-1.23,16,16,0,0,0-6,.31A12.22,12.22,0,0,0,60,70.74a2.81,2.81,0,0,0-1.13,2,4.13,4.13,0,0,0,.55,2.48A10.66,10.66,0,0,0,63.05,79a4.08,4.08,0,0,0,1.61.74,6.64,6.64,0,0,0,4.78-1.14,7,7,0,0,0,1.34-1.23A6.64,6.64,0,0,1,70.71,79,9.28,9.28,0,0,1,67,85.25a.45.45,0,0,0-.2.33,13.16,13.16,0,0,1-.37,2.26,8.64,8.64,0,0,1-7.26,6.92c-.56.11-1.12.12-1.67.24ZM84.14,71.1A1.78,1.78,0,0,0,85,69.89a7.57,7.57,0,0,0,.18-3.75A16.64,16.64,0,0,0,83,60.26a13.77,13.77,0,0,0-2.46-3.12,1.44,1.44,0,0,1-.47-.77,35.74,35.74,0,0,0-.93-3.7,16.37,16.37,0,0,0-3.41-6.14,24.69,24.69,0,0,0-4.57-3.9,69.54,69.54,0,0,0-9.38-5.17c-3.12-1.47-6.3-2.82-9.46-4.21S46.07,30.47,43,28.84a38.34,38.34,0,0,1-7.4-4.94,19.35,19.35,0,0,1-3.78-4.39c-.31-.49-.56-1-.86-1.51,0,.74.08,1.48.16,2.21a42.13,42.13,0,0,0,.8,4.6,41.57,41.57,0,0,0,2.3,7,34.35,34.35,0,0,0,3.65,6.47c.36.49.74,1,1.11,1.44.11.14.17.26-.09.28a.83.83,0,0,0-.15,0,14.29,14.29,0,0,0-4.7,1.87A26.23,26.23,0,0,0,27,48.21a40,40,0,0,0-4.65,7.33,56.79,56.79,0,0,0-2.48,5.8c-.34.94-.69,1.89-1,2.92l.23-.2a12.29,12.29,0,0,1,2.37-1.81,25.25,25.25,0,0,1,7.1-2.79,44.86,44.86,0,0,1,9.31-1.18c1.85-.07,3.7,0,5.56,0l2,.14a2,2,0,0,1-.52.09,22,22,0,0,0-3.62.38A32.82,32.82,0,0,0,25.71,66.5a29.53,29.53,0,0,0-4,4.3,28.18,28.18,0,0,0-3.83,7,12.6,12.6,0,0,0-.52,1.54A13.73,13.73,0,0,1,20,77.5a23.29,23.29,0,0,1,5.73-2.09,34.07,34.07,0,0,1,6.68-.81c1,0,2.07,0,3.11,0a10.05,10.05,0,0,1,1.34.09.42.42,0,0,0,.45-.19,18.68,18.68,0,0,1,3.88-3.91,29,29,0,0,1,11.71-5.3,2.93,2.93,0,0,1,.41-.07c.13,0,.26-.13.4,0,0,0,0,0,0,0A23.76,23.76,0,0,0,49.42,69a29.26,29.26,0,0,0-4.5,6.63c-.13.26,0,.29.18.34a30.15,30.15,0,0,1,3,.82A12.59,12.59,0,0,1,53.49,80a4.31,4.31,0,0,1,.62,5.17A12.2,12.2,0,0,1,51,88.64c-.1.09-.24.15-.28.3a7.69,7.69,0,0,0,1.43.09A11,11,0,0,0,54,88.9c1.78-.26,3.42-.74,4.38-2.49A2.88,2.88,0,0,1,58.66,89a6.71,6.71,0,0,1-2.14,2.82c-.28.24-.58.46-.88.7.06,0,.07,0,.09,0a16.87,16.87,0,0,0,5-.38,6.51,6.51,0,0,0,3.77-2.39,6.42,6.42,0,0,0,1.07-4.66c-.07-.56-.08-.56.42-.86a2.82,2.82,0,0,0,.31-.21,9.12,9.12,0,0,0,2.36-3,6.7,6.7,0,0,0,.55-1.22h0l-.08,0a6.13,6.13,0,0,1-4.64,1.22,3.56,3.56,0,0,1-1.72-.6,25.37,25.37,0,0,1-4.59-4.67,9.4,9.4,0,0,1-1.78-3.47,3.17,3.17,0,0,1,.93-3.35,11.22,11.22,0,0,1,3.39-2,18.69,18.69,0,0,1,7.78-1.41,6.32,6.32,0,0,1,4.26,1.78A14.85,14.85,0,0,1,75.73,72a3.08,3.08,0,0,1,.15,2.23,16.94,16.94,0,0,1-1.42,3.41c-.26.48-.54,1-.83,1.48a7,7,0,0,0,4.49-2.6c.14-.17.24-.44.41-.49s.36.21.55.31.21.14.32.19a1.67,1.67,0,0,0,2.14-.37,4.39,4.39,0,0,0,.9-1.53,14,14,0,0,0,.83-3.44,7.39,7.39,0,0,0-.14-3.07,2.41,2.41,0,0,0-1.22-1.6c-.22-.1-.33-.13-.36.18a4,4,0,0,1-.21.82,1.56,1.56,0,0,1-.36.62.24.24,0,0,1-.22.1c-.11,0-.09-.14-.08-.21,0-.3,0-.59,0-.88a6,6,0,0,0-.33-3s-.1-.12,0-.19.14,0,.21,0a4.69,4.69,0,0,1,2.8,1.73,5.73,5.73,0,0,1,1.06,4c0,.49-.22,1-.27,1.45,0,0,0,0,0,0h0ZM47.82,68.8a0,0,0,0,0,0,0l0,0,0,0A0,0,0,0,0,47.82,68.8Z" transform="translate(-12.18 -7.98)"/><path class="cls-2" d="M84.14,71.1c0-.49.23-1,.27-1.45a5.73,5.73,0,0,0-1.06-4,4.69,4.69,0,0,0-2.8-1.73c-.07,0-.15-.06-.21,0s0,.14,0,.19a6,6,0,0,1,.33,3c0,.29,0,.58,0,.88,0,.07,0,.18.08.21a.24.24,0,0,0,.22-.1,1.56,1.56,0,0,0,.36-.62,4,4,0,0,0,.21-.82c0-.31.14-.28.36-.18a2.41,2.41,0,0,1,1.22,1.6,7.39,7.39,0,0,1,.14,3.07,14,14,0,0,1-.83,3.44,4.39,4.39,0,0,1-.9,1.53,1.67,1.67,0,0,1-2.14.37c-.11,0-.21-.13-.32-.19s-.36-.37-.55-.31-.27.32-.41.49a7,7,0,0,1-4.49,2.6c.29-.52.57-1,.83-1.48a16.94,16.94,0,0,0,1.42-3.41A3.08,3.08,0,0,0,75.73,72a14.85,14.85,0,0,0-3.06-4.57,6.32,6.32,0,0,0-4.26-1.78A18.69,18.69,0,0,0,60.63,67a11.22,11.22,0,0,0-3.39,2,3.17,3.17,0,0,0-.93,3.35,9.4,9.4,0,0,0,1.78,3.47,25.37,25.37,0,0,0,4.59,4.67,3.56,3.56,0,0,0,1.72.6A6.13,6.13,0,0,0,69,79.94l.08,0h0a6.7,6.7,0,0,1-.55,1.22,9.12,9.12,0,0,1-2.36,3,2.82,2.82,0,0,1-.31.21c-.5.3-.49.3-.42.86a6.42,6.42,0,0,1-1.07,4.66,6.51,6.51,0,0,1-3.77,2.39,16.87,16.87,0,0,1-5,.38s0,0-.09,0c.3-.24.6-.46.88-.7A6.71,6.71,0,0,0,58.66,89a2.88,2.88,0,0,0-.33-2.62c-1,1.75-2.6,2.23-4.38,2.49a11,11,0,0,1-1.81.13,7.69,7.69,0,0,1-1.43-.09c0-.15.18-.21.28-.3a12.2,12.2,0,0,0,3.12-3.44A4.31,4.31,0,0,0,53.49,80a12.59,12.59,0,0,0-5.43-3.21,30.15,30.15,0,0,0-3-.82c-.2,0-.31-.08-.18-.34A29.26,29.26,0,0,1,49.42,69a23.76,23.76,0,0,1,4.25-3.76s0,0,0,0c-.14-.1-.27,0-.4,0a2.93,2.93,0,0,0-.41.07,29,29,0,0,0-11.71,5.3,18.68,18.68,0,0,0-3.88,3.91.42.42,0,0,1-.45.19,10.05,10.05,0,0,0-1.34-.09c-1,0-2.07,0-3.11,0a34.07,34.07,0,0,0-6.68.81A23.29,23.29,0,0,0,20,77.5a13.73,13.73,0,0,0-2.63,1.81,12.6,12.6,0,0,1,.52-1.54,28.18,28.18,0,0,1,3.83-7,29.53,29.53,0,0,1,4-4.3,32.82,32.82,0,0,1,15.66-7.56A22,22,0,0,1,45,58.56a2,2,0,0,0,.52-.09l-2-.14c-1.86-.09-3.71-.12-5.56,0a44.86,44.86,0,0,0-9.31,1.18,25.25,25.25,0,0,0-7.1,2.79,12.29,12.29,0,0,0-2.37,1.81l-.23.2c.28-1,.63-2,1-2.92a56.79,56.79,0,0,1,2.48-5.8A40,40,0,0,1,27,48.21a26.23,26.23,0,0,1,7.09-6.27,14.29,14.29,0,0,1,4.7-1.87.83.83,0,0,1,.15,0c.26,0,.2-.14.09-.28-.37-.48-.75-1-1.11-1.44a34.35,34.35,0,0,1-3.65-6.47,41.57,41.57,0,0,1-2.3-7,42.13,42.13,0,0,1-.8-4.6C31.08,19.48,31,18.74,31,18c.3.5.55,1,.86,1.51a19.35,19.35,0,0,0,3.78,4.39A38.34,38.34,0,0,0,43,28.84c3,1.63,6.16,3,9.31,4.41s6.34,2.74,9.46,4.21a69.54,69.54,0,0,1,9.38,5.17,24.69,24.69,0,0,1,4.57,3.9,16.37,16.37,0,0,1,3.41,6.14,35.74,35.74,0,0,1,.93,3.7,1.44,1.44,0,0,0,.47.77A13.77,13.77,0,0,1,83,60.26a16.64,16.64,0,0,1,2.1,5.88A7.57,7.57,0,0,1,85,69.89a1.78,1.78,0,0,1-.81,1.21ZM58.91,41.6s.06.06.08,0,0,0-.07-.05-.06-.1-.11-.15a28.8,28.8,0,0,0-5-3.37,60.91,60.91,0,0,0-6.73-2.94,48.91,48.91,0,0,1-8.86-4.29c-.05,0-.11-.12-.18-.08S38,30.9,38,31a8.33,8.33,0,0,0,.43,2.37,22.43,22.43,0,0,0,3.11,6,.26.26,0,0,0,.29.11,26.06,26.06,0,0,1,3.05-.32A30.63,30.63,0,0,1,56.7,40.78C57.44,41,58.17,41.32,58.91,41.6ZM72.37,56.93a11.65,11.65,0,0,0,1.23-3.8.37.37,0,0,0-.16-.39,11.31,11.31,0,0,0-4-2c-.27-.08-.29,0-.29.25a11,11,0,0,0,.14,1.81,7.12,7.12,0,0,0,1.19,3.23,3.19,3.19,0,0,0,2.74,1.6A2.11,2.11,0,0,0,75,54.37,4.91,4.91,0,0,1,72.37,56.93Z" transform="translate(-12.18 -7.98)"/><path class="cls-2" d="M84.14,71.1l0,0h0s0,0,0,0Z" transform="translate(-12.18 -7.98)"/><path class="cls-1" d="M58.91,41.6c-.74-.28-1.47-.56-2.21-.82a30.63,30.63,0,0,0-11.85-1.69,26.06,26.06,0,0,0-3.05.32.26.26,0,0,1-.29-.11,22.43,22.43,0,0,1-3.11-6A8.33,8.33,0,0,1,38,31c0-.07,0-.18.05-.22s.13,0,.18.08a48.91,48.91,0,0,0,8.86,4.29,60.91,60.91,0,0,1,6.73,2.94,28.8,28.8,0,0,1,5,3.37s.1.08.11.15Z" transform="translate(-12.18 -7.98)"/><path class="cls-1" d="M72.37,56.93A4.91,4.91,0,0,0,75,54.37a2.11,2.11,0,0,1-1.8,3.28,3.19,3.19,0,0,1-2.74-1.6,7.12,7.12,0,0,1-1.19-3.23A11,11,0,0,1,69.16,51c0-.23,0-.33.29-.25a11.31,11.31,0,0,1,4,2,.37.37,0,0,1,.16.39A11.65,11.65,0,0,1,72.37,56.93Z" transform="translate(-12.18 -7.98)"/><path class="cls-1" d="M58.92,41.58s.09,0,.07.05-.06,0-.08,0Z" transform="translate(-12.18 -7.98)"/></g><path class="cls-3" d="M156.17,29.84v2.81h-4.73v13h-3.33v-13h-4.76V29.84Z" transform="translate(-12.18 -7.98)"/><path class="cls-3" d="M164.66,34.21a4.67,4.67,0,0,1,2,1.73,5.82,5.82,0,0,1,.94,2.42,16,16,0,0,1,.1,2.32h-8.53a2.8,2.8,0,0,0,1.22,2.47,3.06,3.06,0,0,0,1.69.44,2.35,2.35,0,0,0,2.33-1.34h3.13a3.85,3.85,0,0,1-1.14,2.12,5.69,5.69,0,0,1-4.4,1.71,6.4,6.4,0,0,1-4.13-1.45q-1.78-1.44-1.78-4.68a6.32,6.32,0,0,1,1.61-4.67,5.64,5.64,0,0,1,4.19-1.62A6.62,6.62,0,0,1,164.66,34.21Zm-4.58,2.64a3.21,3.21,0,0,0-.82,1.81h5.28a2.57,2.57,0,0,0-.82-1.85,2.68,2.68,0,0,0-1.81-.63A2.41,2.41,0,0,0,160.08,36.85Z" transform="translate(-12.18 -7.98)"/><path class="cls-3" d="M168.89,45.68l4-5.93L169.06,34h3.75l2,3.39L176.68,34h3.64l-3.85,5.7,4,6h-3.81l-2-3.52-2,3.52Z" transform="translate(-12.18 -7.98)"/><path class="cls-3" d="M187.72,38.56a5.54,5.54,0,0,0,1.22-.27.93.93,0,0,0,.66-.87,1,1,0,0,0-.5-1,3.27,3.27,0,0,0-1.49-.27,2,2,0,0,0-1.56.54,2.23,2.23,0,0,0-.43,1.07h-3a4.53,4.53,0,0,1,.87-2.52c.81-1,2.21-1.55,4.18-1.55a7.43,7.43,0,0,1,3.43.76,2.93,2.93,0,0,1,1.5,2.88V42.7c0,.37,0,.83,0,1.36a1.66,1.66,0,0,0,.18.81,1.11,1.11,0,0,0,.45.36v.45H190a3.27,3.27,0,0,1-.19-.67,6.22,6.22,0,0,1-.09-.71,6.21,6.21,0,0,1-1.47,1.17A4.43,4.43,0,0,1,186,46a3.87,3.87,0,0,1-2.64-.91,3.23,3.23,0,0,1-1-2.57A3.32,3.32,0,0,1,184,39.44a7.43,7.43,0,0,1,2.7-.76ZM189.59,40a3,3,0,0,1-.59.3,5,5,0,0,1-.82.21l-.7.13a4.41,4.41,0,0,0-1.41.42,1.4,1.4,0,0,0-.72,1.3,1.36,1.36,0,0,0,.44,1.13,1.71,1.71,0,0,0,1.08.35,3.19,3.19,0,0,0,1.85-.58,2.46,2.46,0,0,0,.87-2.12Z" transform="translate(-12.18 -7.98)"/><path class="cls-3" d="M198.48,41.94a2.06,2.06,0,0,0,.43,1.16,2.83,2.83,0,0,0,2.11.61,3.18,3.18,0,0,0,1.44-.27.85.85,0,0,0,.54-.8.89.89,0,0,0-.43-.79,18.13,18.13,0,0,0-3.21-.92,6.61,6.61,0,0,1-2.81-1.24,2.67,2.67,0,0,1-.82-2.1A3.67,3.67,0,0,1,197,34.8a5.12,5.12,0,0,1,3.59-1.16,6.61,6.61,0,0,1,3.58.87,3.76,3.76,0,0,1,1.59,3h-3.06a1.87,1.87,0,0,0-.34-.93,2.1,2.1,0,0,0-1.72-.62,2.48,2.48,0,0,0-1.43.31.9.9,0,0,0-.42.73.8.8,0,0,0,.45.76,18.87,18.87,0,0,0,3.2.85,5.89,5.89,0,0,1,2.74,1.3,3,3,0,0,1,.9,2.2,3.53,3.53,0,0,1-1.3,2.84,7.75,7.75,0,0,1-8.09-.06,3.8,3.8,0,0,1-1.32-3Z" transform="translate(-12.18 -7.98)"/><path class="cls-3" d="M218.67,40.79a3.29,3.29,0,0,0,.61,1.62,3.52,3.52,0,0,0,2.82,1,6.15,6.15,0,0,0,1.94-.26,1.84,1.84,0,0,0,1.41-1.84,1.36,1.36,0,0,0-.69-1.21,7.39,7.39,0,0,0-2.2-.74L220.85,39a10.57,10.57,0,0,1-3.48-1.21,3.88,3.88,0,0,1-1.6-3.43,4.57,4.57,0,0,1,1.57-3.53,6.66,6.66,0,0,1,4.6-1.41,7,7,0,0,1,4.32,1.33,4.7,4.7,0,0,1,1.88,3.85H225a2.28,2.28,0,0,0-1.28-2,4.29,4.29,0,0,0-2-.4,3.7,3.7,0,0,0-2.09.52,1.62,1.62,0,0,0-.78,1.44,1.33,1.33,0,0,0,.77,1.26,9.25,9.25,0,0,0,2.1.66l2.78.65a7.13,7.13,0,0,1,2.74,1.15,3.9,3.9,0,0,1,1.41,3.24,4.55,4.55,0,0,1-1.67,3.6,7.07,7.07,0,0,1-4.74,1.44,7.68,7.68,0,0,1-4.92-1.42,4.65,4.65,0,0,1-1.79-3.88Z" transform="translate(-12.18 -7.98)"/><path class="cls-3" d="M230.31,36.26V34.08h1.63V30.81h3v3.27h1.9v2.18H235v6.18a1.42,1.42,0,0,0,.18.9,2,2,0,0,0,1.12.18h.6v2.28l-1.45.06a3.91,3.91,0,0,1-3-.75,2.26,2.26,0,0,1-.51-1.63v-7.2Z" transform="translate(-12.18 -7.98)"/><path class="cls-3" d="M244.26,38.56a5.81,5.81,0,0,0,1.23-.27.93.93,0,0,0,.66-.87,1,1,0,0,0-.51-1,3.25,3.25,0,0,0-1.49-.27,1.93,1.93,0,0,0-1.55.54,2.14,2.14,0,0,0-.44,1.07h-2.95a4.45,4.45,0,0,1,.86-2.52c.81-1,2.21-1.55,4.19-1.55a7.46,7.46,0,0,1,3.43.76,2.93,2.93,0,0,1,1.5,2.88V42.7c0,.37,0,.83,0,1.36a1.66,1.66,0,0,0,.18.81,1.11,1.11,0,0,0,.45.36v.45h-3.33a3.27,3.27,0,0,1-.19-.67,6.22,6.22,0,0,1-.09-.71,6,6,0,0,1-1.47,1.17,4.42,4.42,0,0,1-2.24.57,3.88,3.88,0,0,1-2.65-.91,3.23,3.23,0,0,1-1-2.57,3.32,3.32,0,0,1,1.68-3.12,7.43,7.43,0,0,1,2.7-.76ZM246.14,40a3.36,3.36,0,0,1-.6.3,5,5,0,0,1-.82.21l-.7.13a4.25,4.25,0,0,0-1.4.42,1.39,1.39,0,0,0-.73,1.3,1.34,1.34,0,0,0,.45,1.13,1.68,1.68,0,0,0,1.07.35,3.19,3.19,0,0,0,1.85-.58,2.49,2.49,0,0,0,.88-2.12Z" transform="translate(-12.18 -7.98)"/><path class="cls-3" d="M251.45,36.26V34.08h1.63V30.81h3v3.27H258v2.18h-1.9v6.18c0,.48.06.78.19.9a2,2,0,0,0,1.11.18h.6v2.28l-1.45.06a3.9,3.9,0,0,1-3-.75,2.26,2.26,0,0,1-.52-1.63v-7.2Z" transform="translate(-12.18 -7.98)"/><path class="cls-3" d="M268.4,34.21a4.75,4.75,0,0,1,2,1.73,5.81,5.81,0,0,1,.93,2.42,16,16,0,0,1,.1,2.32h-8.53a2.8,2.8,0,0,0,1.23,2.47,3,3,0,0,0,1.68.44,2.62,2.62,0,0,0,1.7-.53,2.65,2.65,0,0,0,.63-.81h3.13a3.79,3.79,0,0,1-1.14,2.12,5.66,5.66,0,0,1-4.4,1.71,6.42,6.42,0,0,1-4.13-1.45q-1.78-1.44-1.78-4.68a6.36,6.36,0,0,1,1.61-4.67,5.66,5.66,0,0,1,4.19-1.62A6.56,6.56,0,0,1,268.4,34.21Zm-4.58,2.64a3.2,3.2,0,0,0-.81,1.81h5.27a2.56,2.56,0,0,0-.81-1.85,2.7,2.7,0,0,0-1.82-.63A2.41,2.41,0,0,0,263.82,36.85Z" transform="translate(-12.18 -7.98)"/><path class="cls-3" d="M281,29.84h3.36v9.73A5.42,5.42,0,0,0,284.7,42a3.22,3.22,0,0,0,5.21,0,5.42,5.42,0,0,0,.39-2.38V29.84h3.36v9.74a8.19,8.19,0,0,1-.78,3.93c-1,1.72-2.83,2.58-5.57,2.58s-4.6-.86-5.58-2.58a8.19,8.19,0,0,1-.78-3.93Z" transform="translate(-12.18 -7.98)"/><path class="cls-3" d="M306.83,34.64A3.9,3.9,0,0,1,308,37.79v7.89h-3.14V38.56a3.17,3.17,0,0,0-.25-1.42,1.71,1.71,0,0,0-1.7-.9,2.11,2.11,0,0,0-2.12,1.32,4.52,4.52,0,0,0-.3,1.78v6.34h-3.06V34h3V35.7a5.07,5.07,0,0,1,1.11-1.3,3.9,3.9,0,0,1,2.39-.71A4.53,4.53,0,0,1,306.83,34.64Z" transform="translate(-12.18 -7.98)"/><path class="cls-3" d="M314.76,32.57h-3.1V29.75h3.1Zm-3.1,1.4h3.1V45.68h-3.1Z" transform="translate(-12.18 -7.98)"/><path class="cls-3" d="M325.73,34H329l-4.23,11.71h-3.23L317.36,34h3.44l2.44,8.64Z" transform="translate(-12.18 -7.98)"/><path class="cls-3" d="M339.18,34.21a4.73,4.73,0,0,1,2,1.73,5.67,5.67,0,0,1,.93,2.42,14.65,14.65,0,0,1,.1,2.32h-8.52a2.78,2.78,0,0,0,1.22,2.47,3.06,3.06,0,0,0,1.69.44,2.66,2.66,0,0,0,1.7-.53,3,3,0,0,0,.63-.81h3.12a3.83,3.83,0,0,1-1.13,2.12,5.7,5.7,0,0,1-4.41,1.71,6.38,6.38,0,0,1-4.12-1.45q-1.79-1.44-1.79-4.68a6.36,6.36,0,0,1,1.61-4.67,5.67,5.67,0,0,1,4.19-1.62A6.64,6.64,0,0,1,339.18,34.21Zm-4.58,2.64a3.14,3.14,0,0,0-.82,1.81h5.27a2.52,2.52,0,0,0-.81-1.85,2.69,2.69,0,0,0-1.82-.63A2.4,2.4,0,0,0,334.6,36.85Z" transform="translate(-12.18 -7.98)"/><path class="cls-3" d="M351.08,33.7h.26v3.14l-.51-.05h-.37A2.54,2.54,0,0,0,348,38a4.59,4.59,0,0,0-.36,2.08v5.6h-3.08V34h2.92v2a6.75,6.75,0,0,1,1.24-1.6,3.36,3.36,0,0,1,2.23-.72Z" transform="translate(-12.18 -7.98)"/><path class="cls-3" d="M356.3,41.94a2.14,2.14,0,0,0,.42,1.16,2.86,2.86,0,0,0,2.12.61,3.24,3.24,0,0,0,1.44-.27.9.9,0,0,0,.1-1.59,17.89,17.89,0,0,0-3.2-.92,6.55,6.55,0,0,1-2.81-1.24,2.63,2.63,0,0,1-.82-2.1,3.67,3.67,0,0,1,1.28-2.79,5.1,5.1,0,0,1,3.59-1.16,6.66,6.66,0,0,1,3.58.87,3.72,3.72,0,0,1,1.58,3h-3.06a1.77,1.77,0,0,0-.33-.93,2.13,2.13,0,0,0-1.73-.62,2.45,2.45,0,0,0-1.42.31.89.89,0,0,0-.43.73.8.8,0,0,0,.45.76,19.19,19.19,0,0,0,3.2.85,5.89,5.89,0,0,1,2.74,1.3,2.93,2.93,0,0,1,.91,2.2,3.56,3.56,0,0,1-1.3,2.84,7.77,7.77,0,0,1-8.1-.06,3.82,3.82,0,0,1-1.31-3Z" transform="translate(-12.18 -7.98)"/><path class="cls-3" d="M370.1,32.57H367V29.75h3.1ZM367,34h3.1V45.68H367Z" transform="translate(-12.18 -7.98)"/><path class="cls-3" d="M372.66,36.26V34.08h1.63V30.81h3v3.27h1.9v2.18h-1.9v6.18a1.42,1.42,0,0,0,.18.9,2,2,0,0,0,1.12.18h.6v2.28l-1.45.06a3.91,3.91,0,0,1-3-.75,2.26,2.26,0,0,1-.51-1.63v-7.2Z" transform="translate(-12.18 -7.98)"/><path class="cls-3" d="M382.44,47.92l.39,0a4,4,0,0,0,.85,0,1.42,1.42,0,0,0,.69-.25,1.58,1.58,0,0,0,.5-.76,1.73,1.73,0,0,0,.2-.71L380.77,34h3.4l2.56,8.64L389.15,34h3.25l-4,11.51a16.68,16.68,0,0,1-1.84,4.14,3.53,3.53,0,0,1-2.71.79h-.66l-.74,0Z" transform="translate(-12.18 -7.98)"/><path class="cls-3" d="M393.22,48.22a2.34,2.34,0,0,0,1.36-.86,3.13,3.13,0,0,0,.5-1.68h-1.86V42.47h3.31v2.78a6.94,6.94,0,0,1-.19,1.52,3.16,3.16,0,0,1-.72,1.38,3.79,3.79,0,0,1-1.34.94,3.55,3.55,0,0,1-1.06.32Z" transform="translate(-12.18 -7.98)"/><path class="cls-3" d="M409.82,40.79a3.29,3.29,0,0,0,.6,1.62,3.52,3.52,0,0,0,2.82,1,6.17,6.17,0,0,0,1.95-.26,1.84,1.84,0,0,0,1.41-1.84,1.36,1.36,0,0,0-.69-1.21,7.39,7.39,0,0,0-2.2-.74L412,39a10.57,10.57,0,0,1-3.48-1.21,3.88,3.88,0,0,1-1.6-3.43,4.54,4.54,0,0,1,1.57-3.53,6.65,6.65,0,0,1,4.6-1.41,7,7,0,0,1,4.32,1.33,4.73,4.73,0,0,1,1.88,3.85h-3.18a2.28,2.28,0,0,0-1.28-2,4.32,4.32,0,0,0-2-.4,3.73,3.73,0,0,0-2.1.52,1.62,1.62,0,0,0-.78,1.44,1.35,1.35,0,0,0,.77,1.26,9.39,9.39,0,0,0,2.11.66l2.78.65a7.2,7.2,0,0,1,2.74,1.15,3.9,3.9,0,0,1,1.41,3.24,4.53,4.53,0,0,1-1.68,3.6,7,7,0,0,1-4.74,1.44,7.67,7.67,0,0,1-4.91-1.42,4.65,4.65,0,0,1-1.8-3.88Z" transform="translate(-12.18 -7.98)"/><path class="cls-3" d="M427.29,38.56a5.81,5.81,0,0,0,1.23-.27.93.93,0,0,0,.66-.87,1,1,0,0,0-.51-1,3.25,3.25,0,0,0-1.49-.27,1.93,1.93,0,0,0-1.55.54,2.14,2.14,0,0,0-.44,1.07h-2.95a4.45,4.45,0,0,1,.86-2.52c.81-1,2.21-1.55,4.19-1.55a7.46,7.46,0,0,1,3.43.76,2.93,2.93,0,0,1,1.5,2.88V42.7c0,.37,0,.83,0,1.36a1.66,1.66,0,0,0,.18.81,1.11,1.11,0,0,0,.45.36v.45h-3.33a3.27,3.27,0,0,1-.19-.67,6.22,6.22,0,0,1-.09-.71,6,6,0,0,1-1.47,1.17,4.42,4.42,0,0,1-2.24.57,3.88,3.88,0,0,1-2.65-.91,3.23,3.23,0,0,1-1-2.57,3.32,3.32,0,0,1,1.68-3.12,7.43,7.43,0,0,1,2.7-.76ZM429.17,40a3.36,3.36,0,0,1-.6.3,5,5,0,0,1-.82.21l-.7.13a4.25,4.25,0,0,0-1.4.42,1.39,1.39,0,0,0-.73,1.3,1.36,1.36,0,0,0,.44,1.13,1.73,1.73,0,0,0,1.08.35,3.19,3.19,0,0,0,1.85-.58,2.49,2.49,0,0,0,.88-2.12Z" transform="translate(-12.18 -7.98)"/><path class="cls-3" d="M445.13,34.64a3.9,3.9,0,0,1,1.15,3.15v7.89h-3.14V38.56a3.17,3.17,0,0,0-.25-1.42,1.71,1.71,0,0,0-1.7-.9,2.11,2.11,0,0,0-2.12,1.32,4.52,4.52,0,0,0-.3,1.78v6.34h-3.06V34h3V35.7a5.07,5.07,0,0,1,1.11-1.3,3.9,3.9,0,0,1,2.39-.71A4.53,4.53,0,0,1,445.13,34.64Z" transform="translate(-12.18 -7.98)"/><path class="cls-3" d="M467.57,29.84h4.76V45.68h-3.08V35c0-.31,0-.74,0-1.3s0-1,0-1.28l-3,13.29h-3.22l-3-13.29c0,.3,0,.73,0,1.28s0,1,0,1.3V45.68H457V29.84h4.82l2.88,12.45Z" transform="translate(-12.18 -7.98)"/><path class="cls-3" d="M480.57,38.56a5.81,5.81,0,0,0,1.23-.27.93.93,0,0,0,.66-.87,1,1,0,0,0-.51-1,3.25,3.25,0,0,0-1.49-.27,1.93,1.93,0,0,0-1.55.54,2.14,2.14,0,0,0-.44,1.07h-3a4.45,4.45,0,0,1,.86-2.52c.81-1,2.21-1.55,4.19-1.55a7.46,7.46,0,0,1,3.43.76,2.93,2.93,0,0,1,1.5,2.88V42.7c0,.37,0,.83,0,1.36a1.66,1.66,0,0,0,.18.81,1.11,1.11,0,0,0,.45.36v.45h-3.33a4,4,0,0,1-.19-.67,6.22,6.22,0,0,1-.09-.71,6,6,0,0,1-1.47,1.17,4.42,4.42,0,0,1-2.24.57,3.88,3.88,0,0,1-2.65-.91,3.23,3.23,0,0,1-1-2.57,3.32,3.32,0,0,1,1.68-3.12,7.43,7.43,0,0,1,2.7-.76ZM482.45,40a3.36,3.36,0,0,1-.6.3,5,5,0,0,1-.82.21l-.7.13a4.25,4.25,0,0,0-1.4.42,1.39,1.39,0,0,0-.73,1.3,1.36,1.36,0,0,0,.44,1.13,1.73,1.73,0,0,0,1.08.35,3.19,3.19,0,0,0,1.85-.58,2.49,2.49,0,0,0,.88-2.12Z" transform="translate(-12.18 -7.98)"/><path class="cls-3" d="M495.47,33.7h.26v3.14l-.51-.05h-.37A2.54,2.54,0,0,0,492.37,38a4.59,4.59,0,0,0-.36,2.08v5.6h-3.08V34h2.92v2a6.75,6.75,0,0,1,1.24-1.6,3.36,3.36,0,0,1,2.23-.72Z" transform="translate(-12.18 -7.98)"/><path class="cls-3" d="M505.32,38.17a2.68,2.68,0,0,0-.44-1.18,1.83,1.83,0,0,0-1.6-.71,2.12,2.12,0,0,0-2.13,1.53,6.47,6.47,0,0,0-.3,2.17,5.89,5.89,0,0,0,.3,2.07,2.06,2.06,0,0,0,2.07,1.46,1.84,1.84,0,0,0,1.53-.58,2.88,2.88,0,0,0,.55-1.51h3.13a5.24,5.24,0,0,1-1,2.65,4.93,4.93,0,0,1-4.27,2A5,5,0,0,1,499,44.4a6.84,6.84,0,0,1-1.33-4.35,6.84,6.84,0,0,1,1.47-4.68,5.14,5.14,0,0,1,4.07-1.68,6.13,6.13,0,0,1,3.61,1,4.6,4.6,0,0,1,1.66,3.49Z" transform="translate(-12.18 -7.98)"/><path class="cls-3" d="M521.11,44.24a6.42,6.42,0,0,1-9,0,6.73,6.73,0,0,1-1.48-4.4,6.81,6.81,0,0,1,1.48-4.39,6.37,6.37,0,0,1,9,0,6.81,6.81,0,0,1,1.48,4.39A6.73,6.73,0,0,1,521.11,44.24Zm-2.45-1.69a4.42,4.42,0,0,0,.72-2.71,4.42,4.42,0,0,0-.72-2.71,2.72,2.72,0,0,0-4.13,0,4.41,4.41,0,0,0-.73,2.71,4.41,4.41,0,0,0,.73,2.71,2.7,2.7,0,0,0,4.13,0Z" transform="translate(-12.18 -7.98)"/><path class="cls-3" d="M528,41.94a2,2,0,0,0,.42,1.16,2.86,2.86,0,0,0,2.12.61,3.24,3.24,0,0,0,1.44-.27.9.9,0,0,0,.1-1.59,17.89,17.89,0,0,0-3.2-.92A6.55,6.55,0,0,1,526,39.69a2.63,2.63,0,0,1-.82-2.1,3.66,3.66,0,0,1,1.27-2.79,5.15,5.15,0,0,1,3.6-1.16,6.6,6.6,0,0,1,3.57.87,3.7,3.7,0,0,1,1.59,3h-3.06a1.77,1.77,0,0,0-.33-.93,2.14,2.14,0,0,0-1.73-.62,2.45,2.45,0,0,0-1.42.31.89.89,0,0,0-.43.73.8.8,0,0,0,.45.76,18.87,18.87,0,0,0,3.2.85,5.89,5.89,0,0,1,2.74,1.3,3,3,0,0,1,.9,2.2A3.56,3.56,0,0,1,534.26,45a7.77,7.77,0,0,1-8.1-.06,3.8,3.8,0,0,1-1.32-3Z" transform="translate(-12.18 -7.98)"/><path class="cls-3" d="M102.74,56.3h6.82a4.55,4.55,0,0,1,4,1.65,3.83,3.83,0,0,1,.69,2.26,3.55,3.55,0,0,1-.85,2.45,4.19,4.19,0,0,1-1.26.92,5.57,5.57,0,0,1,1.81,1A3.79,3.79,0,0,1,115,67.47a4.37,4.37,0,0,1-1,2.76,5.44,5.44,0,0,1-4.57,1.85h-6.71Zm6,6.67a4.92,4.92,0,0,0,2.13-.38,2.14,2.14,0,0,0,1.19-2.12,2,2,0,0,0-1.27-2.09,5.71,5.71,0,0,0-2.12-.3h-3.86V63Zm.72,7.28a3.31,3.31,0,0,0,2.84-1.14,2.88,2.88,0,0,0,.53-1.74A2.33,2.33,0,0,0,111.3,65a6,6,0,0,0-2.18-.33h-4.29v5.55Z" transform="translate(-12.18 -7.98)"/><path class="cls-3" d="M124.17,65.12a1.07,1.07,0,0,0,.89-.56,1.8,1.8,0,0,0,.13-.75,1.58,1.58,0,0,0-.71-1.44,3.79,3.79,0,0,0-2-.44,2.54,2.54,0,0,0-2.14.82,2.64,2.64,0,0,0-.46,1.35h-1.81a3.35,3.35,0,0,1,1.38-3,5.64,5.64,0,0,1,3.08-.84,6.19,6.19,0,0,1,3.29.78,2.6,2.6,0,0,1,1.26,2.4V70.1a.85.85,0,0,0,.12.48c.08.13.26.19.52.19l.29,0,.34,0v1.43a4.68,4.68,0,0,1-.68.16,5.21,5.21,0,0,1-.65,0,1.6,1.6,0,0,1-1.45-.71,2.65,2.65,0,0,1-.33-1.07,4.84,4.84,0,0,1-1.7,1.35,5.25,5.25,0,0,1-2.44.56,3.6,3.6,0,0,1-2.61-1,3.19,3.19,0,0,1-1-2.43,3.13,3.13,0,0,1,1-2.47,4.78,4.78,0,0,1,2.62-1.09Zm-4.08,5.22a2.3,2.3,0,0,0,1.45.48,4.5,4.5,0,0,0,2-.47,2.65,2.65,0,0,0,1.61-2.56V66.23a3.24,3.24,0,0,1-.91.38,7.46,7.46,0,0,1-1.09.21L122,67a4.66,4.66,0,0,0-1.58.44,1.71,1.71,0,0,0-.9,1.61A1.61,1.61,0,0,0,120.09,70.34Z" transform="translate(-12.18 -7.98)"/><path class="cls-3" d="M138.63,61.19a4.51,4.51,0,0,1,1.46,3.25h-1.88a3.42,3.42,0,0,0-.78-1.77,2.47,2.47,0,0,0-2-.7,2.71,2.71,0,0,0-2.64,1.8,7.22,7.22,0,0,0-.51,2.89,5.42,5.42,0,0,0,.73,2.91,2.82,2.82,0,0,0,4.2.44,4,4,0,0,0,1-2h1.88a4.55,4.55,0,0,1-4.91,4.4,4.38,4.38,0,0,1-3.59-1.65,6.29,6.29,0,0,1-1.35-4.12,6.92,6.92,0,0,1,1.47-4.71,4.75,4.75,0,0,1,3.75-1.69A5,5,0,0,1,138.63,61.19Z" transform="translate(-12.18 -7.98)"/><path class="cls-3" d="M142.82,56.24h1.93v5.89A5.35,5.35,0,0,1,146,60.91a4.15,4.15,0,0,1,2.33-.62A3.45,3.45,0,0,1,151.71,62a5.9,5.9,0,0,1,.49,2.66v7.38h-2V64.83a4.11,4.11,0,0,0-.32-1.86,2.06,2.06,0,0,0-2-.95,3.3,3.3,0,0,0-2.18.83c-.65.55-1,1.59-1,3.13v6.1h-1.93Z" transform="translate(-12.18 -7.98)"/><path class="cls-3" d="M163,60.89a4.35,4.35,0,0,1,1.74,1.49,5.06,5.06,0,0,1,.77,2,12.82,12.82,0,0,1,.17,2.53h-8.37a5,5,0,0,0,.83,2.82,2.72,2.72,0,0,0,2.37,1.06,3.06,3.06,0,0,0,2.4-1,3.5,3.5,0,0,0,.71-1.35h1.9a4.07,4.07,0,0,1-.5,1.41,4.79,4.79,0,0,1-.95,1.27,4.37,4.37,0,0,1-2.16,1.16,6.22,6.22,0,0,1-1.57.18,4.82,4.82,0,0,1-3.62-1.57,6.13,6.13,0,0,1-1.48-4.37,6.66,6.66,0,0,1,1.5-4.51,4.89,4.89,0,0,1,3.9-1.72A5.23,5.23,0,0,1,163,60.89Zm.7,4.52a5,5,0,0,0-.55-2,2.77,2.77,0,0,0-2.63-1.4,2.89,2.89,0,0,0-2.21,1,3.62,3.62,0,0,0-.95,2.45Z" transform="translate(-12.18 -7.98)"/><path class="cls-3" d="M168.93,56.3h1.93V72.08h-1.93Z" transform="translate(-12.18 -7.98)"/><path class="cls-3" d="M182.89,61.72a5.8,5.8,0,0,1,1.52,4.36,7.48,7.48,0,0,1-1.34,4.59,4.86,4.86,0,0,1-4.17,1.82,4.69,4.69,0,0,1-3.74-1.61,6.33,6.33,0,0,1-1.39-4.31A6.89,6.89,0,0,1,175.23,62a4.87,4.87,0,0,1,3.93-1.72A5.15,5.15,0,0,1,182.89,61.72Zm-1.2,7.65a7.33,7.33,0,0,0,.71-3.24,5.85,5.85,0,0,0-.51-2.62,2.88,2.88,0,0,0-2.79-1.58,2.74,2.74,0,0,0-2.55,1.35,6.32,6.32,0,0,0-.79,3.26,5.53,5.53,0,0,0,.79,3.06,2.81,2.81,0,0,0,2.53,1.22A2.63,2.63,0,0,0,181.69,69.37Z" transform="translate(-12.18 -7.98)"/><path class="cls-3" d="M187.63,60.57h1.84v2a4.28,4.28,0,0,1,1.11-1.41,2.83,2.83,0,0,1,2-.83h.18l.44,0v2a1.87,1.87,0,0,0-.32,0h-.31a2.75,2.75,0,0,0-2.25.94,3.26,3.26,0,0,0-.78,2.16v6.62h-1.94Z" transform="translate(-12.18 -7.98)"/><path class="cls-3" d="M210.94,61.72a5.8,5.8,0,0,1,1.52,4.36,7.48,7.48,0,0,1-1.34,4.59A4.86,4.86,0,0,1,207,72.49a4.69,4.69,0,0,1-3.74-1.61,6.33,6.33,0,0,1-1.39-4.31A6.89,6.89,0,0,1,203.28,62a4.87,4.87,0,0,1,3.93-1.72A5.15,5.15,0,0,1,210.94,61.72Zm-1.2,7.65a7.33,7.33,0,0,0,.7-3.24,6,6,0,0,0-.5-2.62,2.88,2.88,0,0,0-2.79-1.58,2.74,2.74,0,0,0-2.55,1.35,6.32,6.32,0,0,0-.79,3.26,5.53,5.53,0,0,0,.79,3.06,2.81,2.81,0,0,0,2.53,1.22A2.63,2.63,0,0,0,209.74,69.37Z" transform="translate(-12.18 -7.98)"/><path class="cls-3" d="M216.53,57.06a3,3,0,0,1,2.61-1h.38l.44,0v1.76l-.44,0h-.26c-.59,0-.94.16-1.06.46a8.85,8.85,0,0,0-.17,2.33H220v1.52H218v9.93h-1.92V62.15h-1.6V60.63h1.6V58.82A3.46,3.46,0,0,1,216.53,57.06Z" transform="translate(-12.18 -7.98)"/><path class="cls-3" d="M229.9,56.3h10.95v1.93H232V63h7.74V64.9H232v7.18H229.9Z" transform="translate(-12.18 -7.98)"/><path class="cls-3" d="M243.67,56.3h2v2.19h-2Zm0,4.33h2V72.08h-2Z" transform="translate(-12.18 -7.98)"/><path class="cls-3" d="M249.35,60.57h1.84v1.64a5,5,0,0,1,1.73-1.45,4.48,4.48,0,0,1,2-.44,3.33,3.33,0,0,1,3.3,1.7,6,6,0,0,1,.48,2.68v7.38h-2V64.83a3.88,3.88,0,0,0-.31-1.7,1.88,1.88,0,0,0-1.87-1.07,3.62,3.62,0,0,0-1.13.14,2.84,2.84,0,0,0-1.39.94,2.68,2.68,0,0,0-.63,1.18,7.6,7.6,0,0,0-.15,1.73v6h-1.93Z" transform="translate(-12.18 -7.98)"/><path class="cls-3" d="M269.48,60.89a4.35,4.35,0,0,1,1.74,1.49,5.06,5.06,0,0,1,.77,2,12.82,12.82,0,0,1,.17,2.53h-8.37a5,5,0,0,0,.83,2.82A2.72,2.72,0,0,0,267,70.82a3.06,3.06,0,0,0,2.4-1,3.5,3.5,0,0,0,.71-1.35H272a4.07,4.07,0,0,1-.5,1.41,5,5,0,0,1-.94,1.27,4.45,4.45,0,0,1-2.17,1.16,6.22,6.22,0,0,1-1.57.18,4.79,4.79,0,0,1-3.61-1.57,6.09,6.09,0,0,1-1.49-4.37,6.66,6.66,0,0,1,1.5-4.51,4.89,4.89,0,0,1,3.9-1.72A5.23,5.23,0,0,1,269.48,60.89Zm.7,4.52a5,5,0,0,0-.55-2A2.77,2.77,0,0,0,267,62a2.89,2.89,0,0,0-2.21,1,3.62,3.62,0,0,0-1,2.45Z" transform="translate(-12.18 -7.98)"/><path class="cls-3" d="M286,56.3h2.41l5.73,15.78h-2.34l-1.65-4.73h-6.19l-1.71,4.73H280Zm3.54,9.31-2.43-7-2.52,7Z" transform="translate(-12.18 -7.98)"/><path class="cls-3" d="M296.63,60.57h1.83v2a4.28,4.28,0,0,1,1.11-1.41,2.84,2.84,0,0,1,2-.83h.18l.44,0v2a1.87,1.87,0,0,0-.32,0h-.31a2.76,2.76,0,0,0-2.25.94,3.26,3.26,0,0,0-.78,2.16v6.62h-1.93Z" transform="translate(-12.18 -7.98)"/><path class="cls-3" d="M305.08,57.36H307v3.21h1.84v1.58H307v7.51a.83.83,0,0,0,.41.81,1.73,1.73,0,0,0,.75.11h.3l.38,0v1.54a4.82,4.82,0,0,1-.7.14,6.18,6.18,0,0,1-.77,0,2.1,2.1,0,0,1-1.84-.69,3.09,3.09,0,0,1-.48-1.8V62.15h-1.56V60.57h1.56Z" transform="translate(-12.18 -7.98)"/><path class="cls-3" d="M312.74,68.47a2.78,2.78,0,0,0,.5,1.48,3.13,3.13,0,0,0,2.58.94,3.88,3.88,0,0,0,1.93-.47,1.55,1.55,0,0,0,.84-1.45,1.23,1.23,0,0,0-.67-1.12,7.8,7.8,0,0,0-1.68-.55l-1.56-.39a7.4,7.4,0,0,1-2.21-.82,2.43,2.43,0,0,1-1.26-2.17,3.28,3.28,0,0,1,1.19-2.64,4.79,4.79,0,0,1,3.2-1,4.46,4.46,0,0,1,3.8,1.53,3.22,3.22,0,0,1,.71,2.08h-1.82a2.19,2.19,0,0,0-.48-1.18,3,3,0,0,0-2.36-.76,2.94,2.94,0,0,0-1.7.41,1.32,1.32,0,0,0-.58,1.11,1.37,1.37,0,0,0,.76,1.2,5,5,0,0,0,1.29.47l1.31.31a10.12,10.12,0,0,1,2.84,1,2.59,2.59,0,0,1,1.13,2.33,3.51,3.51,0,0,1-1.18,2.65,5.06,5.06,0,0,1-3.6,1.12A4.85,4.85,0,0,1,312,71.35a4.42,4.42,0,0,1-1.16-2.88Z" transform="translate(-12.18 -7.98)"/><path class="cls-3" d="M323.79,74.33a1.36,1.36,0,0,0,1-1,3.25,3.25,0,0,0,.16-.94.61.61,0,0,0,0-.14.35.35,0,0,0,0-.13h-1.17V69.74h2.3v2.17a4.72,4.72,0,0,1-.51,2.24,2.35,2.35,0,0,1-1.79,1.19Z" transform="translate(-12.18 -7.98)"/><path class="cls-3" d="M348.61,57.45A5.6,5.6,0,0,1,350.43,61h-2.09a4,4,0,0,0-4.3-3.3,4.62,4.62,0,0,0-3.7,1.64,7.54,7.54,0,0,0-1.41,5,7.39,7.39,0,0,0,1.28,4.5A4.4,4.4,0,0,0,344,70.62a4,4,0,0,0,3.53-1.82,7.11,7.11,0,0,0,1-2.51h2.08a7.18,7.18,0,0,1-1.83,4.18,6.47,6.47,0,0,1-5,2,6.6,6.6,0,0,1-4.57-1.67q-2.43-2.2-2.43-6.8a8.75,8.75,0,0,1,1.83-5.73A6.64,6.64,0,0,1,344,55.87,6.3,6.3,0,0,1,348.61,57.45Z" transform="translate(-12.18 -7.98)"/><path class="cls-3" d="M362.21,61.72a5.8,5.8,0,0,1,1.53,4.36,7.48,7.48,0,0,1-1.35,4.59,4.85,4.85,0,0,1-4.17,1.82,4.69,4.69,0,0,1-3.74-1.61,6.33,6.33,0,0,1-1.39-4.31A6.89,6.89,0,0,1,354.55,62a4.88,4.88,0,0,1,3.93-1.72A5.15,5.15,0,0,1,362.21,61.72ZM361,69.37a7.33,7.33,0,0,0,.71-3.24,5.85,5.85,0,0,0-.51-2.62,2.88,2.88,0,0,0-2.79-1.58,2.74,2.74,0,0,0-2.55,1.35,6.32,6.32,0,0,0-.79,3.26,5.53,5.53,0,0,0,.79,3.06,2.81,2.81,0,0,0,2.53,1.22A2.63,2.63,0,0,0,361,69.37Z" transform="translate(-12.18 -7.98)"/><path class="cls-3" d="M366.9,60.57h1.91v1.64A6.53,6.53,0,0,1,370.06,61a3.72,3.72,0,0,1,2.17-.65,3.41,3.41,0,0,1,2.21.67,3.55,3.55,0,0,1,.86,1.14,4,4,0,0,1,3.47-1.81A3.19,3.19,0,0,1,381.93,62a5.49,5.49,0,0,1,.45,2.43v7.66h-2v-8a1.86,1.86,0,0,0-.57-1.58,2.26,2.26,0,0,0-1.4-.43,2.8,2.8,0,0,0-2,.76,3.39,3.39,0,0,0-.82,2.55v6.69h-2V64.57a4,4,0,0,0-.28-1.71,1.7,1.7,0,0,0-1.65-.8,2.85,2.85,0,0,0-2,.84,4.17,4.17,0,0,0-.89,3.08v6.1H366.9Z" transform="translate(-12.18 -7.98)"/><path class="cls-3" d="M386,60.57h1.91v1.64A6.26,6.26,0,0,1,389.18,61a3.7,3.7,0,0,1,2.17-.65,3.43,3.43,0,0,1,2.21.67,3.55,3.55,0,0,1,.86,1.14,4.16,4.16,0,0,1,1.51-1.37,4.22,4.22,0,0,1,2-.44A3.19,3.19,0,0,1,401.05,62a5.49,5.49,0,0,1,.45,2.43v7.66h-2v-8a1.86,1.86,0,0,0-.57-1.58,2.29,2.29,0,0,0-1.41-.43,2.77,2.77,0,0,0-2,.76,3.35,3.35,0,0,0-.82,2.55v6.69h-2V64.57a4,4,0,0,0-.28-1.71,1.71,1.71,0,0,0-1.65-.8,2.85,2.85,0,0,0-2,.84A4.17,4.17,0,0,0,388,66v6.1H386Z" transform="translate(-12.18 -7.98)"/><path class="cls-3" d="M407.07,60.57v7.64a3.3,3.3,0,0,0,.27,1.44,1.89,1.89,0,0,0,1.88,1,2.63,2.63,0,0,0,2.67-1.8,7.32,7.32,0,0,0,.39-2.66V60.57h1.93V72.08h-1.82l0-1.7a3.85,3.85,0,0,1-.92,1.11,4,4,0,0,1-2.63.9,3.39,3.39,0,0,1-3.29-1.64,5,5,0,0,1-.48-2.36V60.57Z" transform="translate(-12.18 -7.98)"/><path class="cls-3" d="M418.17,60.57H420v1.64a5.07,5.07,0,0,1,1.73-1.45,4.54,4.54,0,0,1,2-.44,3.34,3.34,0,0,1,3.31,1.7,6.19,6.19,0,0,1,.47,2.68v7.38h-2V64.83a4,4,0,0,0-.31-1.7,1.89,1.89,0,0,0-1.87-1.07,3.58,3.58,0,0,0-1.13.14,2.86,2.86,0,0,0-1.4.94,2.9,2.9,0,0,0-.63,1.18,8.35,8.35,0,0,0-.14,1.73v6h-1.93Z" transform="translate(-12.18 -7.98)"/><path class="cls-3" d="M431.19,56.3h2v2.19h-2Zm0,4.33h2V72.08h-2Z" transform="translate(-12.18 -7.98)"/><path class="cls-3" d="M444.47,61.19a4.51,4.51,0,0,1,1.47,3.25h-1.88a3.52,3.52,0,0,0-.79-1.77,2.45,2.45,0,0,0-2-.7,2.71,2.71,0,0,0-2.64,1.8,7,7,0,0,0-.52,2.89,5.42,5.42,0,0,0,.73,2.91,2.83,2.83,0,0,0,4.21.44,4,4,0,0,0,1-2h1.88a4.55,4.55,0,0,1-4.91,4.4,4.42,4.42,0,0,1-3.6-1.65,6.34,6.34,0,0,1-1.34-4.12,6.92,6.92,0,0,1,1.47-4.71,4.74,4.74,0,0,1,3.75-1.69A5,5,0,0,1,444.47,61.19Z" transform="translate(-12.18 -7.98)"/><path class="cls-3" d="M454.83,65.12a1.07,1.07,0,0,0,.89-.56,1.65,1.65,0,0,0,.13-.75,1.58,1.58,0,0,0-.7-1.44,3.84,3.84,0,0,0-2-.44,2.56,2.56,0,0,0-2.15.82,2.74,2.74,0,0,0-.46,1.35h-1.8a3.31,3.31,0,0,1,1.38-3,5.61,5.61,0,0,1,3.07-.84,6.25,6.25,0,0,1,3.3.78,2.62,2.62,0,0,1,1.25,2.4V70.1a.85.85,0,0,0,.12.48.6.6,0,0,0,.53.19l.29,0,.34,0v1.43a4.46,4.46,0,0,1-.69.16,5,5,0,0,1-.64,0,1.59,1.59,0,0,1-1.45-.71,2.8,2.8,0,0,1-.34-1.07,4.89,4.89,0,0,1-1.69,1.35,5.25,5.25,0,0,1-2.44.56,3.63,3.63,0,0,1-2.62-1,3.19,3.19,0,0,1-1-2.43,3.1,3.1,0,0,1,1-2.47,4.75,4.75,0,0,1,2.62-1.09Zm-4.07,5.22a2.28,2.28,0,0,0,1.45.48,4.5,4.5,0,0,0,2-.47,2.66,2.66,0,0,0,1.61-2.56V66.23a3.37,3.37,0,0,1-.91.38,7.58,7.58,0,0,1-1.1.21l-1.17.15a4.73,4.73,0,0,0-1.58.44,1.72,1.72,0,0,0-.89,1.61A1.58,1.58,0,0,0,450.76,70.34Z" transform="translate(-12.18 -7.98)"/><path class="cls-3" d="M462.08,57.36H464v3.21h1.84v1.58H464v7.51a.83.83,0,0,0,.41.81,1.73,1.73,0,0,0,.75.11h.3l.38,0v1.54a5,5,0,0,1-.69.14,6.35,6.35,0,0,1-.78,0,2.11,2.11,0,0,1-1.84-.69,3.09,3.09,0,0,1-.48-1.8V62.15h-1.56V60.57h1.56Z" transform="translate(-12.18 -7.98)"/><path class="cls-3" d="M468.6,56.3h2v2.19h-2Zm0,4.33h2V72.08h-2Z" transform="translate(-12.18 -7.98)"/><path class="cls-3" d="M482.61,61.72a5.8,5.8,0,0,1,1.53,4.36,7.48,7.48,0,0,1-1.35,4.59,4.84,4.84,0,0,1-4.17,1.82,4.69,4.69,0,0,1-3.74-1.61,6.33,6.33,0,0,1-1.39-4.31A6.89,6.89,0,0,1,475,62a4.9,4.9,0,0,1,3.93-1.72A5.15,5.15,0,0,1,482.61,61.72Zm-1.2,7.65a7.33,7.33,0,0,0,.71-3.24,5.85,5.85,0,0,0-.51-2.62,2.88,2.88,0,0,0-2.79-1.58,2.73,2.73,0,0,0-2.54,1.35,6.23,6.23,0,0,0-.8,3.26,5.45,5.45,0,0,0,.8,3.06,2.8,2.8,0,0,0,2.52,1.22A2.63,2.63,0,0,0,481.41,69.37Z" transform="translate(-12.18 -7.98)"/><path class="cls-3" d="M487.3,60.57h1.84v1.64a5,5,0,0,1,1.73-1.45,4.51,4.51,0,0,1,2-.44,3.35,3.35,0,0,1,3.31,1.7,6.19,6.19,0,0,1,.47,2.68v7.38h-2V64.83a3.88,3.88,0,0,0-.31-1.7,1.87,1.87,0,0,0-1.87-1.07,3.56,3.56,0,0,0-1.12.14,2.86,2.86,0,0,0-1.4.94,2.9,2.9,0,0,0-.63,1.18,8.35,8.35,0,0,0-.14,1.73v6H487.3Z" transform="translate(-12.18 -7.98)"/><path class="cls-3" d="M507.59,56.3h6.31a5.91,5.91,0,0,1,5,2.31A8.62,8.62,0,0,1,520.46,64a10.78,10.78,0,0,1-.93,4.54,5.76,5.76,0,0,1-5.65,3.59h-6.29Zm5.89,14a5.67,5.67,0,0,0,1.74-.22,3.87,3.87,0,0,0,2-1.62,6.65,6.65,0,0,0,.89-2.44,10.2,10.2,0,0,0,.16-1.66,7.83,7.83,0,0,0-1.14-4.55,4.19,4.19,0,0,0-3.67-1.63h-3.71V70.25Z" transform="translate(-12.18 -7.98)"/><path class="cls-3" d="M531,60.89a4.35,4.35,0,0,1,1.74,1.49,5.21,5.21,0,0,1,.77,2,13.66,13.66,0,0,1,.17,2.53h-8.37a5,5,0,0,0,.82,2.82,2.74,2.74,0,0,0,2.38,1.06,3.06,3.06,0,0,0,2.4-1,3.5,3.5,0,0,0,.71-1.35h1.9a4.07,4.07,0,0,1-.5,1.41,4.79,4.79,0,0,1-.95,1.27,4.37,4.37,0,0,1-2.16,1.16,6.27,6.27,0,0,1-1.57.18,4.82,4.82,0,0,1-3.62-1.57,6.09,6.09,0,0,1-1.48-4.37A6.7,6.7,0,0,1,524.75,62a4.93,4.93,0,0,1,3.91-1.72A5.23,5.23,0,0,1,531,60.89Zm.69,4.52a5.13,5.13,0,0,0-.54-2,2.78,2.78,0,0,0-2.63-1.4,2.92,2.92,0,0,0-2.22,1,3.66,3.66,0,0,0-.94,2.45Z" transform="translate(-12.18 -7.98)"/><path class="cls-3" d="M538.09,68.47a2.78,2.78,0,0,0,.49,1.48,3.15,3.15,0,0,0,2.59.94,3.88,3.88,0,0,0,1.93-.47,1.54,1.54,0,0,0,.83-1.45,1.22,1.22,0,0,0-.66-1.12,8.23,8.23,0,0,0-1.68-.55L540,66.91a7.29,7.29,0,0,1-2.21-.82,2.43,2.43,0,0,1-1.27-2.17,3.29,3.29,0,0,1,1.2-2.64,4.79,4.79,0,0,1,3.2-1,4.46,4.46,0,0,1,3.8,1.53,3.28,3.28,0,0,1,.71,2.08h-1.83a2.1,2.1,0,0,0-.47-1.18,3,3,0,0,0-2.36-.76,2.94,2.94,0,0,0-1.7.41,1.3,1.3,0,0,0-.58,1.11,1.35,1.35,0,0,0,.76,1.2,5,5,0,0,0,1.29.47l1.3.31a10.09,10.09,0,0,1,2.85,1,2.59,2.59,0,0,1,1.13,2.33,3.55,3.55,0,0,1-1.18,2.65,5.06,5.06,0,0,1-3.6,1.12,4.85,4.85,0,0,1-3.68-1.17,4.37,4.37,0,0,1-1.16-2.88Z" transform="translate(-12.18 -7.98)"/><path class="cls-3" d="M548.73,56.3h2v2.19h-2Zm0,4.33h2V72.08h-2Z" transform="translate(-12.18 -7.98)"/><path class="cls-3" d="M560.81,61a5.71,5.71,0,0,1,1.11,1.1V60.68h1.79V71.14a7.7,7.7,0,0,1-.65,3.46q-1.2,2.34-4.53,2.34a5.49,5.49,0,0,1-3.11-.83,3.27,3.27,0,0,1-1.42-2.6h2a2.18,2.18,0,0,0,.56,1.19,3.51,3.51,0,0,0,4.94-.92,8.93,8.93,0,0,0,.38-3.3,3.93,3.93,0,0,1-1.39,1.31,4.73,4.73,0,0,1-2.16.43,4.54,4.54,0,0,1-3.25-1.33c-.93-.88-1.4-2.35-1.4-4.39A6.66,6.66,0,0,1,555.06,62a4.35,4.35,0,0,1,3.4-1.62A4.2,4.2,0,0,1,560.81,61Zm.24,2.08a2.81,2.81,0,0,0-2.24-1A2.76,2.76,0,0,0,556,64a7.61,7.61,0,0,0-.39,2.67,4.77,4.77,0,0,0,.78,3,2.54,2.54,0,0,0,2.11,1,3,3,0,0,0,2.92-1.88,6.16,6.16,0,0,0,.47-2.48A4.84,4.84,0,0,0,561.05,63.11Z" transform="translate(-12.18 -7.98)"/><path class="cls-3" d="M567.44,60.57h1.84v1.64A5,5,0,0,1,571,60.76a4.51,4.51,0,0,1,2-.44,3.35,3.35,0,0,1,3.31,1.7,6.19,6.19,0,0,1,.47,2.68v7.38h-2V64.83a3.88,3.88,0,0,0-.31-1.7,1.88,1.88,0,0,0-1.87-1.07,3.62,3.62,0,0,0-1.13.14,2.84,2.84,0,0,0-1.39.94,2.9,2.9,0,0,0-.63,1.18,7.6,7.6,0,0,0-.15,1.73v6h-1.93Z" transform="translate(-12.18 -7.98)"/></svg>