<?xml version="1.0" encoding="utf-8"?>
<!-- Generator: Adobe Illustrator 23.0.4, SVG Export Plug-In . SVG Version: 6.00 Build 0)  -->
<svg version="1.1" id="Layer_1" xmlns="http://www.w3.org/2000/svg" xmlns:xlink="http://www.w3.org/1999/xlink" x="0px" y="0px"
	 viewBox="0 0 329.6 302.4" style="enable-background:new 0 0 329.6 302.4;" xml:space="preserve">
<style type="text/css">
	.st0{fill:#0875B5;}
	.st1{fill:#EBF7FA;}
	.st2{fill:#0DBAE5;}
	.st3{fill:#1B2B59;}
	.st4{enable-background:new    ;}
	.st5{fill:#FFFFFF;}
	.st6{fill:#131024;}
</style>
<path class="st0" d="M297.3,291H31.7C19,291,8.7,280.8,8.7,268.1V96.2c0-12.7,10.3-22.9,22.9-22.9h265.7c12.7,0,22.9,10.3,22.9,22.9
	v172C320.3,280.8,310,291,297.3,291z"/>
<rect x="35.3" y="102.5" class="st1" width="254.3" height="15.9"/>
<rect x="35.3" y="102.5" class="st2" width="225.6" height="15.9"/>
<rect x="35.3" y="131.6" class="st1" width="254.3" height="15.9"/>
<rect x="35.3" y="131.6" class="st2" width="225.6" height="15.9"/>
<rect x="35.3" y="102.5" class="st3" width="79.1" height="15.9"/>
<rect x="35.3" y="131.6" class="st3" width="79.1" height="15.9"/>
<rect x="35.3" y="160.6" class="st1" width="254.3" height="15.9"/>
<rect x="35.3" y="160.6" class="st2" width="168.3" height="15.9"/>
<rect x="35.3" y="160.6" class="st3" width="79.1" height="15.9"/>
<rect x="35.3" y="189.7" class="st1" width="254.3" height="15.9"/>
<rect x="35.3" y="189.7" class="st3" width="79.1" height="15.9"/>
<rect x="35.3" y="218.8" class="st2" width="254.3" height="15.9"/>
<rect x="35.3" y="218.8" class="st3" width="79.1" height="15.9"/>
<rect x="35.3" y="247.8" class="st2" width="254.3" height="15.9"/>
<rect x="35.3" y="247.8" class="st3" width="79.1" height="15.9"/>
<g>
	<g class="st4">
		<path class="st5" d="M53.1,108.9c0,0.7-0.2,1.3-0.7,1.7c-0.5,0.4-1.2,0.6-2.1,0.6h-0.8v2.8h-0.8v-7.1h1.9
			C52.2,106.8,53.1,107.5,53.1,108.9z M49.4,110.4h0.7c0.7,0,1.3-0.1,1.6-0.4s0.5-0.6,0.5-1.1c0-0.5-0.2-0.8-0.5-1.1
			s-0.8-0.3-1.4-0.3h-0.9V110.4z"/>
		<path class="st5" d="M58.1,113.9v-3.5c0-0.4-0.1-0.8-0.3-1s-0.5-0.3-0.9-0.3c-0.6,0-1,0.2-1.2,0.5s-0.4,0.8-0.4,1.5v2.8h-0.8v-7.6
			h0.8v2.3c0,0.3,0,0.5,0,0.7h0c0.2-0.3,0.4-0.5,0.7-0.6c0.3-0.1,0.6-0.2,1-0.2c0.7,0,1.1,0.2,1.5,0.5c0.3,0.3,0.5,0.8,0.5,1.5v3.5
			H58.1z"/>
		<path class="st5" d="M65.2,111.2c0,0.9-0.2,1.6-0.7,2c-0.4,0.5-1,0.7-1.8,0.7c-0.5,0-0.9-0.1-1.3-0.3s-0.7-0.5-0.9-1
			s-0.3-0.9-0.3-1.5c0-0.9,0.2-1.6,0.7-2c0.4-0.5,1-0.7,1.8-0.7c0.7,0,1.3,0.2,1.8,0.7S65.2,110.4,65.2,111.2z M61.1,111.2
			c0,0.7,0.1,1.2,0.4,1.6s0.7,0.5,1.2,0.5s0.9-0.2,1.2-0.5c0.3-0.4,0.4-0.9,0.4-1.6c0-0.7-0.1-1.2-0.4-1.5c-0.3-0.4-0.7-0.5-1.2-0.5
			c-0.5,0-0.9,0.2-1.2,0.5S61.1,110.5,61.1,111.2z"/>
		<path class="st5" d="M68.4,113.3c0.1,0,0.3,0,0.4,0c0.1,0,0.2,0,0.3-0.1v0.6c-0.1,0-0.2,0.1-0.4,0.1c-0.2,0-0.3,0-0.5,0
			c-1,0-1.6-0.5-1.6-1.6v-3.2h-0.8v-0.4l0.8-0.3l0.3-1.1h0.5v1.2h1.6v0.6h-1.6v3.1c0,0.3,0.1,0.6,0.2,0.7S68.1,113.3,68.4,113.3z"/>
		<path class="st5" d="M74.8,111.2c0,0.9-0.2,1.6-0.7,2c-0.4,0.5-1,0.7-1.8,0.7c-0.5,0-0.9-0.1-1.3-0.3s-0.7-0.5-0.9-1
			s-0.3-0.9-0.3-1.5c0-0.9,0.2-1.6,0.7-2c0.4-0.5,1-0.7,1.8-0.7c0.7,0,1.3,0.2,1.8,0.7S74.8,110.4,74.8,111.2z M70.7,111.2
			c0,0.7,0.1,1.2,0.4,1.6s0.7,0.5,1.2,0.5s0.9-0.2,1.2-0.5c0.3-0.4,0.4-0.9,0.4-1.6c0-0.7-0.1-1.2-0.4-1.5c-0.3-0.4-0.7-0.5-1.2-0.5
			c-0.5,0-0.9,0.2-1.2,0.5S70.7,110.5,70.7,111.2z"/>
		<path class="st5" d="M79.7,112.4c0,0.5-0.2,0.9-0.6,1.2s-0.9,0.4-1.6,0.4c-0.7,0-1.3-0.1-1.7-0.3v-0.8c0.3,0.1,0.5,0.2,0.8,0.3
			s0.6,0.1,0.9,0.1c0.4,0,0.7-0.1,1-0.2c0.2-0.1,0.3-0.3,0.3-0.6c0-0.2-0.1-0.4-0.3-0.5c-0.2-0.1-0.5-0.3-1.1-0.5
			c-0.5-0.2-0.9-0.3-1.1-0.5c-0.2-0.1-0.4-0.3-0.5-0.5s-0.2-0.4-0.2-0.6c0-0.4,0.2-0.8,0.5-1c0.4-0.3,0.8-0.4,1.5-0.4
			c0.6,0,1.1,0.1,1.7,0.4l-0.3,0.7c-0.5-0.2-1-0.3-1.5-0.3c-0.4,0-0.7,0.1-0.9,0.2s-0.3,0.3-0.3,0.5c0,0.1,0,0.3,0.1,0.4
			s0.2,0.2,0.4,0.3s0.5,0.2,0.9,0.4c0.6,0.2,1.1,0.5,1.3,0.7S79.7,112.1,79.7,112.4z"/>
		<path class="st5" d="M84.6,113.9v-3.5c0-0.4-0.1-0.8-0.3-1s-0.5-0.3-0.9-0.3c-0.6,0-1,0.2-1.2,0.5s-0.4,0.8-0.4,1.5v2.8H81v-7.6
			h0.8v2.3c0,0.3,0,0.5,0,0.7h0c0.2-0.3,0.4-0.5,0.7-0.6c0.3-0.1,0.6-0.2,1-0.2c0.7,0,1.1,0.2,1.5,0.5c0.3,0.3,0.5,0.8,0.5,1.5v3.5
			H84.6z"/>
		<path class="st5" d="M91.7,111.2c0,0.9-0.2,1.6-0.7,2c-0.4,0.5-1,0.7-1.8,0.7c-0.5,0-0.9-0.1-1.3-0.3s-0.7-0.5-0.9-1
			s-0.3-0.9-0.3-1.5c0-0.9,0.2-1.6,0.7-2c0.4-0.5,1-0.7,1.8-0.7c0.7,0,1.3,0.2,1.8,0.7S91.7,110.4,91.7,111.2z M87.7,111.2
			c0,0.7,0.1,1.2,0.4,1.6s0.7,0.5,1.2,0.5s0.9-0.2,1.2-0.5c0.3-0.4,0.4-0.9,0.4-1.6c0-0.7-0.1-1.2-0.4-1.5c-0.3-0.4-0.7-0.5-1.2-0.5
			c-0.5,0-0.9,0.2-1.2,0.5S87.7,110.5,87.7,111.2z"/>
		<path class="st5" d="M95.6,114c-0.3,0-0.7-0.1-1-0.2c-0.3-0.1-0.5-0.3-0.7-0.6h-0.1c0,0.3,0.1,0.6,0.1,0.9v2.2h-0.8v-7.8h0.7
			l0.1,0.7h0c0.2-0.3,0.5-0.5,0.7-0.6s0.6-0.2,1-0.2c0.7,0,1.3,0.2,1.6,0.7s0.6,1.2,0.6,2c0,0.9-0.2,1.6-0.6,2
			C96.9,113.8,96.3,114,95.6,114z M95.5,109.1c-0.5,0-0.9,0.2-1.2,0.5S94,110.4,94,111v0.2c0,0.8,0.1,1.3,0.4,1.6
			c0.3,0.3,0.7,0.5,1.2,0.5c0.5,0,0.8-0.2,1.1-0.6s0.4-0.9,0.4-1.5c0-0.7-0.1-1.2-0.4-1.5C96.4,109.3,96,109.1,95.5,109.1z"/>
	</g>
</g>
<g class="st4">
	<path class="st6" d="M270.6,109.8c0,2.8-1.1,4.2-3.2,4.2c-0.4,0-0.7,0-0.9-0.1v-0.7c0.3,0.1,0.6,0.1,0.9,0.1c0.8,0,1.4-0.2,1.8-0.7
		c0.4-0.5,0.6-1.2,0.7-2.2h-0.1c-0.2,0.3-0.4,0.5-0.7,0.6c-0.3,0.1-0.6,0.2-1,0.2c-0.6,0-1.1-0.2-1.5-0.6s-0.6-0.9-0.6-1.6
		c0-0.7,0.2-1.3,0.6-1.8s1-0.6,1.6-0.6c0.5,0,0.9,0.1,1.3,0.4c0.4,0.2,0.6,0.6,0.8,1.1C270.5,108.6,270.6,109.2,270.6,109.8z
		 M268.2,107.4c-0.5,0-0.8,0.1-1.1,0.4s-0.4,0.7-0.4,1.2c0,0.5,0.1,0.8,0.4,1.1c0.2,0.3,0.6,0.4,1.1,0.4c0.3,0,0.6-0.1,0.8-0.2
		s0.4-0.3,0.6-0.5c0.1-0.2,0.2-0.4,0.2-0.7c0-0.3-0.1-0.7-0.2-0.9c-0.1-0.3-0.3-0.5-0.6-0.7S268.5,107.4,268.2,107.4z"/>
	<path class="st6" d="M276.3,110.3c0,1.2-0.2,2.2-0.6,2.8c-0.4,0.6-1,0.9-1.8,0.9c-0.8,0-1.4-0.3-1.8-0.9c-0.4-0.6-0.6-1.5-0.6-2.7
		c0-1.2,0.2-2.2,0.6-2.8c0.4-0.6,1-0.9,1.8-0.9c0.8,0,1.4,0.3,1.8,0.9C276.1,108.2,276.3,109.1,276.3,110.3z M272.4,110.3
		c0,1,0.1,1.8,0.4,2.3c0.2,0.5,0.6,0.7,1.2,0.7c0.5,0,0.9-0.2,1.2-0.7c0.2-0.5,0.4-1.2,0.4-2.3s-0.1-1.8-0.4-2.3
		c-0.2-0.5-0.6-0.7-1.2-0.7c-0.5,0-0.9,0.2-1.2,0.7C272.5,108.5,272.4,109.3,272.4,110.3z"/>
	<path class="st6" d="M280.2,108.9c0,0.7-0.1,1.3-0.4,1.7c-0.2,0.4-0.6,0.6-1.1,0.6c-0.5,0-0.8-0.2-1.1-0.6
		c-0.3-0.4-0.4-0.9-0.4-1.7c0-0.7,0.1-1.3,0.4-1.7c0.2-0.4,0.6-0.6,1.1-0.6c0.5,0,0.8,0.2,1.1,0.6S280.2,108.2,280.2,108.9z
		 M278,108.9c0,0.6,0.1,1,0.2,1.2c0.1,0.3,0.3,0.4,0.6,0.4c0.5,0,0.8-0.6,0.8-1.7c0-1.1-0.3-1.7-0.8-1.7c-0.3,0-0.5,0.1-0.6,0.4
		C278.1,107.9,278,108.3,278,108.9z M283.3,106.8l-4,7.1h-0.7l4-7.1H283.3z M284.5,111.8c0,0.7-0.1,1.3-0.4,1.7
		c-0.2,0.4-0.6,0.6-1.1,0.6c-0.5,0-0.8-0.2-1.1-0.6s-0.4-0.9-0.4-1.7c0-0.7,0.1-1.3,0.4-1.7c0.2-0.4,0.6-0.6,1.1-0.6
		c0.5,0,0.8,0.2,1.1,0.6C284.4,110.5,284.5,111,284.5,111.8z M282.3,111.8c0,0.6,0.1,1,0.2,1.2c0.1,0.3,0.3,0.4,0.6,0.4
		s0.5-0.1,0.6-0.4c0.1-0.3,0.2-0.7,0.2-1.3c0-0.6-0.1-1-0.2-1.2c-0.1-0.3-0.3-0.4-0.6-0.4s-0.5,0.1-0.6,0.4
		C282.4,110.8,282.3,111.2,282.3,111.8z"/>
</g>
<g class="st4">
	<path class="st6" d="M270.6,138.9c0,2.8-1.1,4.2-3.2,4.2c-0.4,0-0.7,0-0.9-0.1v-0.7c0.3,0.1,0.6,0.1,0.9,0.1c0.8,0,1.4-0.2,1.8-0.7
		c0.4-0.5,0.6-1.2,0.7-2.2h-0.1c-0.2,0.3-0.4,0.5-0.7,0.6c-0.3,0.1-0.6,0.2-1,0.2c-0.6,0-1.1-0.2-1.5-0.6s-0.6-0.9-0.6-1.6
		c0-0.7,0.2-1.3,0.6-1.8s1-0.6,1.6-0.6c0.5,0,0.9,0.1,1.3,0.4c0.4,0.2,0.6,0.6,0.8,1.1C270.5,137.7,270.6,138.3,270.6,138.9z
		 M268.2,136.5c-0.5,0-0.8,0.1-1.1,0.4s-0.4,0.7-0.4,1.2c0,0.5,0.1,0.8,0.4,1.1c0.2,0.3,0.6,0.4,1.1,0.4c0.3,0,0.6-0.1,0.8-0.2
		s0.4-0.3,0.6-0.5c0.1-0.2,0.2-0.4,0.2-0.7c0-0.3-0.1-0.7-0.2-0.9c-0.1-0.3-0.3-0.5-0.6-0.7S268.5,136.5,268.2,136.5z"/>
	<path class="st6" d="M276.3,139.4c0,1.2-0.2,2.2-0.6,2.8c-0.4,0.6-1,0.9-1.8,0.9c-0.8,0-1.4-0.3-1.8-0.9c-0.4-0.6-0.6-1.5-0.6-2.7
		c0-1.2,0.2-2.2,0.6-2.8c0.4-0.6,1-0.9,1.8-0.9c0.8,0,1.4,0.3,1.8,0.9C276.1,137.3,276.3,138.2,276.3,139.4z M272.4,139.4
		c0,1,0.1,1.8,0.4,2.3c0.2,0.5,0.6,0.7,1.2,0.7c0.5,0,0.9-0.2,1.2-0.7c0.2-0.5,0.4-1.2,0.4-2.3s-0.1-1.8-0.4-2.3
		c-0.2-0.5-0.6-0.7-1.2-0.7c-0.5,0-0.9,0.2-1.2,0.7C272.5,137.6,272.4,138.4,272.4,139.4z"/>
	<path class="st6" d="M280.2,138c0,0.7-0.1,1.3-0.4,1.7c-0.2,0.4-0.6,0.6-1.1,0.6c-0.5,0-0.8-0.2-1.1-0.6c-0.3-0.4-0.4-0.9-0.4-1.7
		c0-0.7,0.1-1.3,0.4-1.7c0.2-0.4,0.6-0.6,1.1-0.6c0.5,0,0.8,0.2,1.1,0.6S280.2,137.3,280.2,138z M278,138c0,0.6,0.1,1,0.2,1.2
		c0.1,0.3,0.3,0.4,0.6,0.4c0.5,0,0.8-0.6,0.8-1.7c0-1.1-0.3-1.7-0.8-1.7c-0.3,0-0.5,0.1-0.6,0.4C278.1,137,278,137.4,278,138z
		 M283.3,135.9l-4,7.1h-0.7l4-7.1H283.3z M284.5,140.9c0,0.7-0.1,1.3-0.4,1.7c-0.2,0.4-0.6,0.6-1.1,0.6c-0.5,0-0.8-0.2-1.1-0.6
		s-0.4-0.9-0.4-1.7c0-0.7,0.1-1.3,0.4-1.7c0.2-0.4,0.6-0.6,1.1-0.6c0.5,0,0.8,0.2,1.1,0.6C284.4,139.6,284.5,140.1,284.5,140.9z
		 M282.3,140.9c0,0.6,0.1,1,0.2,1.2c0.1,0.3,0.3,0.4,0.6,0.4s0.5-0.1,0.6-0.4c0.1-0.3,0.2-0.7,0.2-1.3c0-0.6-0.1-1-0.2-1.2
		c-0.1-0.3-0.3-0.4-0.6-0.4s-0.5,0.1-0.6,0.4C282.4,139.9,282.3,140.3,282.3,140.9z"/>
</g>
<g>
	<g class="st4">
		<path class="st5" d="M51.2,143v-7.1H52v7.1H51.2z"/>
		<path class="st5" d="M54.7,143h-0.8v-7.6h0.8V143z"/>
		<path class="st5" d="M57.2,143h-0.8v-7.6h0.8V143z"/>
		<path class="st5" d="M59.7,137.6v3.5c0,0.4,0.1,0.8,0.3,1s0.5,0.3,0.9,0.3c0.6,0,1-0.2,1.2-0.5s0.4-0.8,0.4-1.5v-2.8h0.8v5.4h-0.7
			l-0.1-0.7h0c-0.2,0.3-0.4,0.5-0.7,0.6s-0.6,0.2-1,0.2c-0.7,0-1.1-0.2-1.5-0.5s-0.5-0.8-0.5-1.5v-3.5H59.7z"/>
		<path class="st5" d="M68.5,141.5c0,0.5-0.2,0.9-0.6,1.2s-0.9,0.4-1.6,0.4c-0.7,0-1.3-0.1-1.7-0.3V142c0.3,0.1,0.5,0.2,0.8,0.3
			s0.6,0.1,0.9,0.1c0.4,0,0.7-0.1,1-0.2c0.2-0.1,0.3-0.3,0.3-0.6c0-0.2-0.1-0.4-0.3-0.5c-0.2-0.1-0.5-0.3-1.1-0.5
			c-0.5-0.2-0.9-0.3-1.1-0.5c-0.2-0.1-0.4-0.3-0.5-0.5s-0.2-0.4-0.2-0.6c0-0.4,0.2-0.8,0.5-1c0.4-0.3,0.8-0.4,1.5-0.4
			c0.6,0,1.1,0.1,1.7,0.4l-0.3,0.7c-0.5-0.2-1-0.3-1.5-0.3c-0.4,0-0.7,0.1-0.9,0.2s-0.3,0.3-0.3,0.5c0,0.1,0,0.3,0.1,0.4
			s0.2,0.2,0.4,0.3s0.5,0.2,0.9,0.4c0.6,0.2,1.1,0.5,1.3,0.7S68.5,141.2,68.5,141.5z"/>
		<path class="st5" d="M71.6,142.4c0.1,0,0.3,0,0.4,0c0.1,0,0.2,0,0.3-0.1v0.6c-0.1,0-0.2,0.1-0.4,0.1c-0.2,0-0.3,0-0.5,0
			c-1,0-1.6-0.5-1.6-1.6v-3.2h-0.8v-0.4l0.8-0.3l0.3-1.1h0.5v1.2h1.6v0.6h-1.6v3.1c0,0.3,0.1,0.6,0.2,0.7S71.3,142.4,71.6,142.4z"/>
		<path class="st5" d="M75.8,137.5c0.2,0,0.5,0,0.6,0.1l-0.1,0.8c-0.2,0-0.4-0.1-0.6-0.1c-0.4,0-0.8,0.2-1.1,0.5s-0.5,0.8-0.5,1.3
			v2.9h-0.8v-5.4H74l0.1,1h0c0.2-0.3,0.4-0.6,0.7-0.8S75.5,137.5,75.8,137.5z"/>
		<path class="st5" d="M80.7,143l-0.2-0.8h0c-0.3,0.3-0.5,0.6-0.8,0.7c-0.3,0.1-0.6,0.2-1,0.2c-0.5,0-0.9-0.1-1.2-0.4
			S77,142,77,141.5c0-1.1,0.9-1.6,2.6-1.7l0.9,0v-0.3c0-0.4-0.1-0.7-0.3-0.9c-0.2-0.2-0.5-0.3-0.9-0.3c-0.4,0-1,0.1-1.5,0.4
			l-0.2-0.6c0.3-0.1,0.6-0.3,0.9-0.3s0.6-0.1,0.9-0.1c0.6,0,1.1,0.1,1.4,0.4s0.5,0.7,0.5,1.4v3.7H80.7z M78.9,142.4
			c0.5,0,0.9-0.1,1.2-0.4s0.4-0.7,0.4-1.2v-0.5l-0.8,0c-0.6,0-1.1,0.1-1.4,0.3c-0.3,0.2-0.4,0.5-0.4,0.8c0,0.3,0.1,0.5,0.3,0.7
			S78.6,142.4,78.9,142.4z"/>
		<path class="st5" d="M84.7,142.4c0.1,0,0.3,0,0.4,0c0.1,0,0.2,0,0.3-0.1v0.6c-0.1,0-0.2,0.1-0.4,0.1c-0.2,0-0.3,0-0.5,0
			c-1,0-1.6-0.5-1.6-1.6v-3.2h-0.8v-0.4l0.8-0.3l0.3-1.1h0.5v1.2h1.6v0.6h-1.6v3.1c0,0.3,0.1,0.6,0.2,0.7S84.5,142.4,84.7,142.4z"/>
		<path class="st5" d="M91.2,140.3c0,0.9-0.2,1.6-0.7,2c-0.4,0.5-1,0.7-1.8,0.7c-0.5,0-0.9-0.1-1.3-0.3s-0.7-0.5-0.9-1
			s-0.3-0.9-0.3-1.5c0-0.9,0.2-1.6,0.7-2c0.4-0.5,1-0.7,1.8-0.7c0.7,0,1.3,0.2,1.8,0.7S91.2,139.4,91.2,140.3z M87.1,140.3
			c0,0.7,0.1,1.2,0.4,1.6s0.7,0.5,1.2,0.5s0.9-0.2,1.2-0.5c0.3-0.4,0.4-0.9,0.4-1.6c0-0.7-0.1-1.2-0.4-1.5c-0.3-0.4-0.7-0.5-1.2-0.5
			c-0.5,0-0.9,0.2-1.2,0.5S87.1,139.6,87.1,140.3z"/>
		<path class="st5" d="M95,137.5c0.2,0,0.5,0,0.6,0.1l-0.1,0.8c-0.2,0-0.4-0.1-0.6-0.1c-0.4,0-0.8,0.2-1.1,0.5s-0.5,0.8-0.5,1.3v2.9
			h-0.8v-5.4h0.7l0.1,1h0c0.2-0.3,0.4-0.6,0.7-0.8S94.7,137.5,95,137.5z"/>
	</g>
</g>
<g>
	<g class="st4">
		<path class="st5" d="M72.2,172.7h-0.9l-1.9-3.1l-2,3.1h-0.9l2.4-3.7l-2.2-3.4h0.9l1.8,2.8l1.8-2.8H72l-2.2,3.4L72.2,172.7z"/>
		<path class="st5" d="M78.9,169c0,1.2-0.3,2.1-1,2.7c-0.6,0.6-1.6,0.9-2.8,0.9h-2v-7.1h2.2c1.1,0,2,0.3,2.6,0.9
			S78.9,167.9,78.9,169z M78,169c0-0.9-0.2-1.6-0.7-2.1s-1.2-0.7-2.1-0.7h-1.2v5.7h1c1,0,1.7-0.2,2.2-0.7C77.8,170.7,78,170,78,169z
			"/>
	</g>
</g>
<g>
	<g class="st4">
		<path class="st5" d="M55.6,199.2c0,0.6-0.2,1.1-0.7,1.5s-1.1,0.5-1.9,0.5c-0.8,0-1.5-0.1-2-0.3v-0.8c0.3,0.1,0.6,0.2,1,0.3
			c0.3,0.1,0.7,0.1,1,0.1c0.6,0,1-0.1,1.2-0.3c0.3-0.2,0.4-0.5,0.4-0.9c0-0.2,0-0.4-0.1-0.6s-0.3-0.3-0.5-0.4
			c-0.2-0.1-0.6-0.3-1.1-0.5c-0.7-0.2-1.1-0.5-1.4-0.8c-0.3-0.3-0.4-0.8-0.4-1.3c0-0.6,0.2-1,0.6-1.3c0.4-0.3,1-0.5,1.6-0.5
			c0.7,0,1.4,0.1,2,0.4l-0.3,0.7c-0.6-0.2-1.2-0.4-1.7-0.4c-0.4,0-0.8,0.1-1,0.3c-0.2,0.2-0.4,0.5-0.4,0.8c0,0.2,0,0.4,0.1,0.6
			s0.2,0.3,0.5,0.4c0.2,0.1,0.5,0.3,1,0.4c0.7,0.3,1.3,0.6,1.5,0.9C55.4,198.3,55.6,198.7,55.6,199.2z"/>
		<path class="st5" d="M57.7,198.4c0.1-0.2,0.4-0.5,0.6-0.8l1.7-1.8h1l-2.2,2.3l2.3,3.1h-1l-1.9-2.5l-0.6,0.5v2h-0.8v-7.6h0.8v4
			C57.7,197.7,57.7,198,57.7,198.4L57.7,198.4z"/>
		<path class="st5" d="M64.4,201.2c-0.8,0-1.4-0.2-1.9-0.7c-0.5-0.5-0.7-1.2-0.7-2c0-0.9,0.2-1.5,0.6-2.1s1-0.8,1.7-0.8
			c0.7,0,1.2,0.2,1.6,0.7c0.4,0.4,0.6,1,0.6,1.7v0.5h-3.7c0,0.6,0.2,1.1,0.5,1.4c0.3,0.3,0.7,0.5,1.3,0.5c0.6,0,1.1-0.1,1.7-0.4v0.7
			c-0.3,0.1-0.6,0.2-0.8,0.3C65.1,201.2,64.8,201.2,64.4,201.2z M64.2,196.3c-0.4,0-0.8,0.1-1,0.4c-0.3,0.3-0.4,0.7-0.5,1.2h2.8
			c0-0.5-0.1-0.9-0.3-1.2S64.6,196.3,64.2,196.3z"/>
		<path class="st5" d="M69.5,200.5c0.1,0,0.3,0,0.4,0s0.2,0,0.3-0.1v0.6c-0.1,0-0.2,0.1-0.4,0.1c-0.2,0-0.3,0-0.5,0
			c-1,0-1.6-0.5-1.6-1.6v-3.2H67V196l0.8-0.3l0.3-1.1h0.5v1.2h1.6v0.6h-1.6v3.2c0,0.3,0.1,0.6,0.2,0.7
			C69,200.5,69.2,200.5,69.5,200.5z"/>
		<path class="st5" d="M73.4,201.2c-0.8,0-1.4-0.2-1.8-0.7c-0.4-0.5-0.6-1.2-0.6-2c0-0.9,0.2-1.6,0.6-2.1s1-0.7,1.8-0.7
			c0.3,0,0.5,0,0.8,0.1c0.3,0.1,0.5,0.1,0.6,0.2l-0.2,0.7c-0.2-0.1-0.4-0.1-0.6-0.2c-0.2,0-0.4-0.1-0.6-0.1c-1.1,0-1.6,0.7-1.6,2.1
			c0,0.7,0.1,1.2,0.4,1.5s0.7,0.5,1.2,0.5c0.4,0,0.9-0.1,1.4-0.3v0.7C74.4,201.1,74,201.2,73.4,201.2z"/>
		<path class="st5" d="M79.7,201.1v-3.5c0-0.4-0.1-0.8-0.3-1s-0.5-0.3-0.9-0.3c-0.6,0-1,0.2-1.2,0.5c-0.3,0.3-0.4,0.8-0.4,1.5v2.8
			H76v-7.6h0.8v2.3c0,0.3,0,0.5,0,0.7h0c0.2-0.3,0.4-0.5,0.7-0.6c0.3-0.1,0.6-0.2,1-0.2c0.7,0,1.1,0.2,1.5,0.5
			c0.3,0.3,0.5,0.8,0.5,1.5v3.5H79.7z"/>
		<path class="st5" d="M82.1,194.3c0-0.2,0-0.3,0.1-0.4c0.1-0.1,0.2-0.1,0.3-0.1c0.1,0,0.2,0,0.3,0.1s0.1,0.2,0.1,0.4
			c0,0.2,0,0.3-0.1,0.4s-0.2,0.1-0.3,0.1c-0.1,0-0.3,0-0.3-0.1S82.1,194.5,82.1,194.3z M83,201.1h-0.8v-5.4H83V201.1z"/>
		<path class="st5" d="M88.4,201.1v-3.5c0-0.4-0.1-0.8-0.3-1s-0.5-0.3-0.9-0.3c-0.6,0-1,0.2-1.2,0.5s-0.4,0.8-0.4,1.5v2.8h-0.8v-5.4
			h0.7l0.1,0.7h0c0.2-0.3,0.4-0.5,0.7-0.6s0.6-0.2,1-0.2c0.6,0,1.1,0.2,1.5,0.5c0.3,0.3,0.5,0.8,0.5,1.5v3.5H88.4z"/>
		<path class="st5" d="M95.2,195.8v0.5l-1,0.1c0.1,0.1,0.2,0.3,0.2,0.4s0.1,0.4,0.1,0.6c0,0.5-0.2,0.9-0.5,1.3s-0.8,0.5-1.5,0.5
			c-0.2,0-0.3,0-0.4,0c-0.3,0.2-0.5,0.4-0.5,0.7c0,0.1,0.1,0.3,0.2,0.3s0.3,0.1,0.6,0.1h0.9c0.6,0,1,0.1,1.3,0.4s0.5,0.6,0.5,1.1
			c0,0.6-0.2,1-0.7,1.4s-1.2,0.5-2.1,0.5c-0.7,0-1.2-0.1-1.6-0.4c-0.4-0.3-0.6-0.6-0.6-1.1c0-0.3,0.1-0.6,0.3-0.8
			c0.2-0.2,0.5-0.4,0.9-0.5c-0.1-0.1-0.3-0.2-0.3-0.3c-0.1-0.1-0.1-0.3-0.1-0.5c0-0.2,0.1-0.4,0.2-0.5s0.3-0.3,0.5-0.4
			c-0.3-0.1-0.5-0.3-0.7-0.6s-0.3-0.6-0.3-0.9c0-0.6,0.2-1,0.5-1.4c0.4-0.3,0.8-0.5,1.5-0.5c0.3,0,0.5,0,0.8,0.1H95.2z M91,202
			c0,0.3,0.1,0.5,0.4,0.7c0.2,0.2,0.6,0.2,1,0.2c0.7,0,1.2-0.1,1.5-0.3s0.5-0.5,0.5-0.8c0-0.3-0.1-0.5-0.3-0.6
			c-0.2-0.1-0.5-0.2-1-0.2h-1c-0.4,0-0.7,0.1-0.9,0.3S91,201.7,91,202z M91.4,197.5c0,0.4,0.1,0.7,0.3,0.8c0.2,0.2,0.5,0.3,0.9,0.3
			c0.8,0,1.2-0.4,1.2-1.2c0-0.8-0.4-1.2-1.2-1.2c-0.4,0-0.7,0.1-0.9,0.3S91.4,197.1,91.4,197.5z"/>
	</g>
</g>
<g>
	<g class="st4">
		<path class="st5" d="M49.9,230.2h-0.8l-1.4-4.8c-0.1-0.2-0.1-0.5-0.2-0.8s-0.1-0.5-0.1-0.6c-0.1,0.4-0.2,0.9-0.3,1.4l-1.4,4.8
			h-0.8l-1.9-7.1h0.9l1.1,4.4c0.2,0.6,0.3,1.2,0.3,1.7c0.1-0.6,0.2-1.2,0.4-1.7l1.3-4.3h0.9l1.3,4.4c0.2,0.5,0.3,1.1,0.4,1.7
			c0.1-0.5,0.2-1,0.4-1.7L51,223h0.9L49.9,230.2z"/>
		<path class="st5" d="M52.8,223.4c0-0.2,0-0.3,0.1-0.4c0.1-0.1,0.2-0.1,0.3-0.1c0.1,0,0.2,0,0.3,0.1s0.1,0.2,0.1,0.4s0,0.3-0.1,0.4
			c-0.1,0.1-0.2,0.1-0.3,0.1c-0.1,0-0.3,0-0.3-0.1C52.8,223.7,52.8,223.6,52.8,223.4z M53.7,230.2h-0.8v-5.4h0.8V230.2z"/>
		<path class="st5" d="M57.8,224.7c0.2,0,0.5,0,0.6,0.1l-0.1,0.8c-0.2,0-0.4-0.1-0.6-0.1c-0.4,0-0.8,0.2-1.1,0.5s-0.5,0.8-0.5,1.3
			v2.9h-0.8v-5.4H56l0.1,1h0c0.2-0.3,0.4-0.6,0.7-0.8S57.5,224.7,57.8,224.7z"/>
		<path class="st5" d="M61.7,230.3c-0.8,0-1.4-0.2-1.9-0.7s-0.7-1.2-0.7-2c0-0.9,0.2-1.5,0.6-2.1s1-0.8,1.7-0.8
			c0.7,0,1.2,0.2,1.6,0.7c0.4,0.4,0.6,1,0.6,1.7v0.5H60c0,0.6,0.2,1.1,0.5,1.4s0.7,0.5,1.3,0.5c0.6,0,1.1-0.1,1.7-0.4v0.7
			c-0.3,0.1-0.6,0.2-0.8,0.3C62.4,230.2,62.1,230.3,61.7,230.3z M61.5,225.4c-0.4,0-0.8,0.1-1,0.4s-0.4,0.7-0.5,1.2h2.8
			c0-0.5-0.1-0.9-0.3-1.2C62.2,225.5,61.9,225.4,61.5,225.4z"/>
		<path class="st5" d="M70.1,225.5h-1.4v4.7h-0.8v-4.7h-1v-0.4l1-0.3v-0.3c0-1.3,0.6-2,1.7-2c0.3,0,0.6,0.1,1,0.2l-0.2,0.6
			c-0.3-0.1-0.6-0.2-0.8-0.2c-0.3,0-0.5,0.1-0.7,0.3c-0.1,0.2-0.2,0.5-0.2,1v0.3h1.4V225.5z"/>
		<path class="st5" d="M73.5,224.7c0.2,0,0.5,0,0.6,0.1l-0.1,0.8c-0.2,0-0.4-0.1-0.6-0.1c-0.4,0-0.8,0.2-1.1,0.5s-0.5,0.8-0.5,1.3
			v2.9h-0.8v-5.4h0.7l0.1,1h0c0.2-0.3,0.4-0.6,0.7-0.8S73.2,224.7,73.5,224.7z"/>
		<path class="st5" d="M78.4,230.2l-0.2-0.8h0c-0.3,0.3-0.5,0.6-0.8,0.7c-0.3,0.1-0.6,0.2-1,0.2c-0.5,0-0.9-0.1-1.2-0.4
			s-0.5-0.7-0.5-1.2c0-1.1,0.9-1.6,2.6-1.7l0.9,0v-0.3c0-0.4-0.1-0.7-0.3-0.9c-0.2-0.2-0.5-0.3-0.9-0.3c-0.4,0-1,0.1-1.5,0.4
			l-0.2-0.6c0.3-0.1,0.6-0.3,0.9-0.3s0.6-0.1,0.9-0.1c0.6,0,1.1,0.1,1.4,0.4s0.5,0.7,0.5,1.4v3.7H78.4z M76.6,229.6
			c0.5,0,0.9-0.1,1.2-0.4s0.4-0.7,0.4-1.2v-0.5l-0.8,0c-0.6,0-1.1,0.1-1.4,0.3c-0.3,0.2-0.4,0.5-0.4,0.8c0,0.3,0.1,0.5,0.3,0.7
			S76.3,229.6,76.6,229.6z"/>
		<path class="st5" d="M87.5,230.2v-3.5c0-0.4-0.1-0.7-0.3-1c-0.2-0.2-0.5-0.3-0.8-0.3c-0.5,0-0.9,0.1-1.1,0.4s-0.4,0.7-0.4,1.3v3
			h-0.8v-3.5c0-0.4-0.1-0.7-0.3-1c-0.2-0.2-0.5-0.3-0.9-0.3c-0.5,0-0.9,0.2-1.1,0.5c-0.2,0.3-0.4,0.8-0.4,1.5v2.8h-0.8v-5.4h0.7
			l0.1,0.7h0c0.2-0.3,0.4-0.5,0.6-0.6s0.6-0.2,0.9-0.2c0.8,0,1.4,0.3,1.6,0.9h0c0.2-0.3,0.4-0.5,0.7-0.7s0.6-0.2,1-0.2
			c0.6,0,1.1,0.2,1.4,0.5c0.3,0.3,0.5,0.8,0.5,1.5v3.5H87.5z"/>
		<path class="st5" d="M89.9,223.4c0-0.2,0-0.3,0.1-0.4c0.1-0.1,0.2-0.1,0.3-0.1c0.1,0,0.2,0,0.3,0.1s0.1,0.2,0.1,0.4s0,0.3-0.1,0.4
			c-0.1,0.1-0.2,0.1-0.3,0.1c-0.1,0-0.3,0-0.3-0.1C90,223.7,89.9,223.6,89.9,223.4z M90.8,230.2H90v-5.4h0.8V230.2z"/>
		<path class="st5" d="M96.2,230.2v-3.5c0-0.4-0.1-0.8-0.3-1s-0.5-0.3-0.9-0.3c-0.6,0-1,0.2-1.2,0.5s-0.4,0.8-0.4,1.5v2.8h-0.8v-5.4
			h0.7l0.1,0.7h0c0.2-0.3,0.4-0.5,0.7-0.6c0.3-0.1,0.6-0.2,1-0.2c0.6,0,1.1,0.2,1.5,0.5c0.3,0.3,0.5,0.8,0.5,1.5v3.5H96.2z"/>
		<path class="st5" d="M103,224.8v0.5l-1,0.1c0.1,0.1,0.2,0.3,0.2,0.4c0.1,0.2,0.1,0.4,0.1,0.6c0,0.5-0.2,0.9-0.5,1.3
			s-0.8,0.5-1.5,0.5c-0.2,0-0.3,0-0.4,0c-0.3,0.2-0.5,0.4-0.5,0.7c0,0.1,0.1,0.3,0.2,0.3c0.1,0.1,0.3,0.1,0.6,0.1h0.9
			c0.6,0,1,0.1,1.3,0.4s0.5,0.6,0.5,1.1c0,0.6-0.2,1-0.7,1.4c-0.5,0.3-1.2,0.5-2.1,0.5c-0.7,0-1.2-0.1-1.6-0.4s-0.6-0.6-0.6-1.1
			c0-0.3,0.1-0.6,0.3-0.8s0.5-0.4,0.9-0.5c-0.1-0.1-0.3-0.2-0.3-0.3s-0.1-0.3-0.1-0.5c0-0.2,0.1-0.4,0.2-0.5s0.3-0.3,0.5-0.4
			c-0.3-0.1-0.5-0.3-0.7-0.6s-0.3-0.6-0.3-0.9c0-0.6,0.2-1,0.5-1.4c0.4-0.3,0.8-0.5,1.5-0.5c0.3,0,0.5,0,0.8,0.1H103z M98.8,231.1
			c0,0.3,0.1,0.5,0.4,0.7s0.6,0.2,1,0.2c0.7,0,1.2-0.1,1.5-0.3c0.3-0.2,0.5-0.5,0.5-0.8c0-0.3-0.1-0.5-0.3-0.6
			c-0.2-0.1-0.5-0.2-1-0.2h-1c-0.4,0-0.7,0.1-0.9,0.3S98.8,230.7,98.8,231.1z M99.2,226.5c0,0.4,0.1,0.7,0.3,0.8s0.5,0.3,0.9,0.3
			c0.8,0,1.2-0.4,1.2-1.2c0-0.8-0.4-1.2-1.2-1.2c-0.4,0-0.7,0.1-0.9,0.3S99.2,226.1,99.2,226.5z"/>
	</g>
</g>
<g>
	<g class="st4">
		<path class="st5" d="M50.3,257.3c0,0.6-0.2,1.1-0.7,1.5s-1.1,0.5-1.9,0.5c-0.8,0-1.5-0.1-2-0.3v-0.8c0.3,0.1,0.6,0.2,1,0.3
			s0.7,0.1,1,0.1c0.6,0,1-0.1,1.2-0.3c0.3-0.2,0.4-0.5,0.4-0.9c0-0.2,0-0.5-0.1-0.6c-0.1-0.2-0.3-0.3-0.5-0.4s-0.6-0.3-1.1-0.5
			c-0.7-0.2-1.1-0.5-1.4-0.8s-0.4-0.8-0.4-1.3c0-0.5,0.2-1,0.6-1.3s1-0.5,1.6-0.5c0.7,0,1.4,0.1,2,0.4l-0.3,0.7
			c-0.6-0.2-1.2-0.4-1.7-0.4c-0.4,0-0.8,0.1-1,0.3s-0.4,0.5-0.4,0.8c0,0.2,0,0.5,0.1,0.6c0.1,0.2,0.2,0.3,0.5,0.4
			c0.2,0.1,0.5,0.3,1,0.4c0.7,0.3,1.3,0.6,1.5,0.9S50.3,256.9,50.3,257.3z"/>
		<path class="st5" d="M53.4,258.7c0.1,0,0.3,0,0.4,0c0.1,0,0.2,0,0.3-0.1v0.6c-0.1,0-0.2,0.1-0.4,0.1c-0.2,0-0.3,0-0.5,0
			c-1,0-1.6-0.5-1.6-1.6v-3.2h-0.8v-0.4l0.8-0.3l0.3-1.1h0.5v1.2H54v0.6h-1.6v3.1c0,0.3,0.1,0.6,0.2,0.7S53.1,258.7,53.4,258.7z"/>
		<path class="st5" d="M54.3,253.9h0.9l1.2,3.1c0.3,0.7,0.4,1.2,0.5,1.5h0c0-0.2,0.1-0.5,0.3-0.9c0.1-0.4,0.6-1.6,1.3-3.7h0.9
			L57,260c-0.2,0.6-0.5,1-0.8,1.3c-0.3,0.3-0.7,0.4-1.1,0.4c-0.2,0-0.5,0-0.7-0.1v-0.6c0.2,0,0.4,0.1,0.6,0.1c0.6,0,1-0.3,1.2-0.9
			l0.3-0.8L54.3,253.9z"/>
		<path class="st5" d="M61,259.2h-0.8v-7.6H61V259.2z"/>
		<path class="st5" d="M65,259.3c-0.8,0-1.4-0.2-1.9-0.7s-0.7-1.2-0.7-2c0-0.9,0.2-1.5,0.6-2.1s1-0.8,1.7-0.8c0.7,0,1.2,0.2,1.6,0.7
			c0.4,0.4,0.6,1,0.6,1.7v0.5h-3.7c0,0.6,0.2,1.1,0.5,1.4s0.7,0.5,1.3,0.5c0.6,0,1.1-0.1,1.7-0.4v0.7c-0.3,0.1-0.6,0.2-0.8,0.3
			C65.7,259.3,65.3,259.3,65,259.3z M64.8,254.5c-0.4,0-0.8,0.1-1,0.4s-0.4,0.7-0.5,1.2h2.8c0-0.5-0.1-0.9-0.3-1.2
			C65.5,254.6,65.2,254.5,64.8,254.5z"/>
		<path class="st5" d="M75.3,253.9v0.5l-1,0.1c0.1,0.1,0.2,0.3,0.2,0.4c0.1,0.2,0.1,0.4,0.1,0.6c0,0.5-0.2,0.9-0.5,1.3
			s-0.8,0.5-1.5,0.5c-0.2,0-0.3,0-0.4,0c-0.3,0.2-0.5,0.4-0.5,0.7c0,0.1,0.1,0.3,0.2,0.3c0.1,0.1,0.3,0.1,0.6,0.1h0.9
			c0.6,0,1,0.1,1.3,0.4s0.5,0.6,0.5,1.1c0,0.6-0.2,1-0.7,1.4c-0.5,0.3-1.2,0.5-2.1,0.5c-0.7,0-1.2-0.1-1.6-0.4s-0.6-0.6-0.6-1.1
			c0-0.3,0.1-0.6,0.3-0.8s0.5-0.4,0.9-0.5c-0.1-0.1-0.3-0.2-0.3-0.3s-0.1-0.3-0.1-0.5c0-0.2,0.1-0.4,0.2-0.5s0.3-0.3,0.5-0.4
			c-0.3-0.1-0.5-0.3-0.7-0.6s-0.3-0.6-0.3-0.9c0-0.6,0.2-1,0.5-1.4c0.4-0.3,0.8-0.5,1.5-0.5c0.3,0,0.5,0,0.8,0.1H75.3z M71,260.1
			c0,0.3,0.1,0.5,0.4,0.7s0.6,0.2,1,0.2c0.7,0,1.2-0.1,1.5-0.3c0.3-0.2,0.5-0.5,0.5-0.8c0-0.3-0.1-0.5-0.3-0.6
			c-0.2-0.1-0.5-0.2-1-0.2h-1c-0.4,0-0.7,0.1-0.9,0.3S71,259.8,71,260.1z M71.5,255.6c0,0.4,0.1,0.7,0.3,0.8s0.5,0.3,0.9,0.3
			c0.8,0,1.2-0.4,1.2-1.2c0-0.8-0.4-1.2-1.2-1.2c-0.4,0-0.7,0.1-0.9,0.3S71.5,255.2,71.5,255.6z"/>
		<path class="st5" d="M77.2,253.9v3.5c0,0.4,0.1,0.8,0.3,1s0.5,0.3,0.9,0.3c0.6,0,1-0.2,1.2-0.5s0.4-0.8,0.4-1.5v-2.8h0.8v5.4h-0.7
			l-0.1-0.7h0c-0.2,0.3-0.4,0.5-0.7,0.6s-0.6,0.2-1,0.2c-0.7,0-1.1-0.2-1.5-0.5s-0.5-0.8-0.5-1.5v-3.5H77.2z"/>
		<path class="st5" d="M82.5,252.4c0-0.2,0-0.3,0.1-0.4c0.1-0.1,0.2-0.1,0.3-0.1c0.1,0,0.2,0,0.3,0.1s0.1,0.2,0.1,0.4s0,0.3-0.1,0.4
			c-0.1,0.1-0.2,0.1-0.3,0.1c-0.1,0-0.3,0-0.3-0.1C82.5,252.8,82.5,252.6,82.5,252.4z M83.4,259.2h-0.8v-5.4h0.8V259.2z"/>
		<path class="st5" d="M88.7,258.5L88.7,258.5c-0.4,0.5-1,0.8-1.7,0.8c-0.7,0-1.2-0.2-1.6-0.7s-0.6-1.2-0.6-2s0.2-1.6,0.6-2.1
			s0.9-0.7,1.6-0.7c0.7,0,1.3,0.3,1.7,0.8h0.1l0-0.4l0-0.4v-2.2h0.8v7.6h-0.7L88.7,258.5z M87.1,258.7c0.6,0,1-0.2,1.2-0.5
			c0.2-0.3,0.4-0.8,0.4-1.5v-0.2c0-0.8-0.1-1.3-0.4-1.6c-0.3-0.3-0.7-0.5-1.2-0.5c-0.5,0-0.8,0.2-1.1,0.6c-0.3,0.4-0.4,0.9-0.4,1.6
			c0,0.7,0.1,1.2,0.4,1.5S86.6,258.7,87.1,258.7z"/>
		<path class="st5" d="M93.5,259.3c-0.8,0-1.4-0.2-1.9-0.7s-0.7-1.2-0.7-2c0-0.9,0.2-1.5,0.6-2.1s1-0.8,1.7-0.8
			c0.7,0,1.2,0.2,1.6,0.7c0.4,0.4,0.6,1,0.6,1.7v0.5h-3.7c0,0.6,0.2,1.1,0.5,1.4s0.7,0.5,1.3,0.5c0.6,0,1.1-0.1,1.7-0.4v0.7
			c-0.3,0.1-0.6,0.2-0.8,0.3C94.1,259.3,93.8,259.3,93.5,259.3z M93.2,254.5c-0.4,0-0.8,0.1-1,0.4s-0.4,0.7-0.5,1.2h2.8
			c0-0.5-0.1-0.9-0.3-1.2C94,254.6,93.7,254.5,93.2,254.5z"/>
		<path class="st5" d="M100.3,257.8c0,0.5-0.2,0.9-0.6,1.2s-0.9,0.4-1.6,0.4c-0.7,0-1.3-0.1-1.7-0.3v-0.8c0.3,0.1,0.5,0.2,0.8,0.3
			s0.6,0.1,0.9,0.1c0.4,0,0.7-0.1,1-0.2c0.2-0.1,0.3-0.3,0.3-0.6c0-0.2-0.1-0.4-0.3-0.5c-0.2-0.1-0.5-0.3-1.1-0.5
			c-0.5-0.2-0.9-0.3-1.1-0.5c-0.2-0.1-0.4-0.3-0.5-0.5s-0.2-0.4-0.2-0.6c0-0.4,0.2-0.8,0.5-1c0.4-0.3,0.8-0.4,1.5-0.4
			c0.6,0,1.1,0.1,1.7,0.4l-0.3,0.7c-0.5-0.2-1-0.3-1.5-0.3c-0.4,0-0.7,0.1-0.9,0.2s-0.3,0.3-0.3,0.5c0,0.1,0,0.3,0.1,0.4
			s0.2,0.2,0.4,0.3s0.5,0.2,0.9,0.4c0.6,0.2,1.1,0.5,1.3,0.7S100.3,257.4,100.3,257.8z"/>
	</g>
</g>
<g>
	<path class="st3" d="M120.2,25.6V11.4h1.7v12.8h6.3v1.5H120.2z"/>
	<path class="st3" d="M134.8,25.8c-1.6,0-2.8-0.5-3.7-1.4s-1.4-2.3-1.4-4c0-1.7,0.4-3.1,1.3-4.1s2-1.5,3.4-1.5
		c1.3,0,2.4,0.4,3.2,1.3c0.8,0.9,1.2,2,1.2,3.5v1h-7.4c0,1.3,0.3,2.2,1,2.9s1.5,1,2.5,1c1.2,0,2.3-0.2,3.4-0.7v1.4
		c-0.6,0.2-1.1,0.4-1.6,0.5S135.6,25.8,134.8,25.8z M134.4,16.1c-0.9,0-1.5,0.3-2.1,0.8s-0.8,1.3-0.9,2.3h5.6c0-1-0.2-1.8-0.7-2.3
		S135.3,16.1,134.4,16.1z"/>
	<path class="st3" d="M146.4,16.2h-2.7v9.4H142v-9.4h-1.9v-0.7l1.9-0.6v-0.6c0-2.6,1.1-3.9,3.4-3.9c0.6,0,1.2,0.1,2,0.3L147,12
		c-0.6-0.2-1.2-0.3-1.6-0.3c-0.6,0-1.1,0.2-1.4,0.6s-0.4,1.1-0.4,2v0.7h2.7V16.2z"/>
	<path class="st3" d="M151.8,24.5c0.3,0,0.6,0,0.8-0.1s0.5-0.1,0.6-0.1v1.2c-0.2,0.1-0.4,0.2-0.8,0.2s-0.6,0.1-0.9,0.1
		c-2.1,0-3.1-1.1-3.1-3.3v-6.4h-1.5v-0.8l1.5-0.7l0.7-2.3h0.9v2.5h3.1v1.3h-3.1v6.3c0,0.6,0.2,1.1,0.5,1.5S151.2,24.5,151.8,24.5z"
		/>
	<path class="st3" d="M160.8,11.4h4c1.9,0,3.3,0.3,4.1,0.8s1.3,1.5,1.3,2.7c0,0.8-0.2,1.5-0.7,2.1s-1.2,0.9-2.1,1.1v0.1
		c2.2,0.4,3.3,1.5,3.3,3.4c0,1.3-0.4,2.3-1.3,3s-2.1,1.1-3.6,1.1h-5V11.4z M162.5,17.5h2.7c1.2,0,2-0.2,2.5-0.6s0.8-1,0.8-1.9
		c0-0.8-0.3-1.4-0.9-1.7s-1.5-0.5-2.7-0.5h-2.4V17.5z M162.5,18.9v5.3h3c1.2,0,2-0.2,2.6-0.7s0.9-1.1,0.9-2.1c0-0.9-0.3-1.5-0.9-2
		s-1.5-0.6-2.7-0.6H162.5z"/>
	<path class="st3" d="M178.4,14.7c0.5,0,0.9,0,1.3,0.1l-0.2,1.5c-0.4-0.1-0.8-0.1-1.2-0.1c-0.9,0-1.6,0.4-2.2,1.1s-0.9,1.6-0.9,2.6
		v5.7h-1.6V14.9h1.3l0.2,2h0.1c0.4-0.7,0.9-1.2,1.4-1.6S177.8,14.7,178.4,14.7z"/>
	<path class="st3" d="M188.3,25.6l-0.3-1.5h-0.1c-0.5,0.7-1.1,1.1-1.6,1.4s-1.2,0.4-2,0.4c-1.1,0-1.9-0.3-2.5-0.8s-0.9-1.3-0.9-2.3
		c0-2.2,1.7-3.3,5.2-3.4l1.8-0.1v-0.7c0-0.8-0.2-1.5-0.5-1.9s-0.9-0.6-1.7-0.6c-0.9,0-1.9,0.3-3,0.8l-0.5-1.2
		c0.5-0.3,1.1-0.5,1.7-0.7s1.3-0.2,1.9-0.2c1.3,0,2.2,0.3,2.8,0.8c0.6,0.6,0.9,1.5,0.9,2.7v7.3H188.3z M184.6,24.5
		c1,0,1.8-0.3,2.4-0.8s0.9-1.3,0.9-2.3v-1l-1.6,0.1c-1.3,0-2.2,0.2-2.8,0.6s-0.9,0.9-0.9,1.7c0,0.6,0.2,1,0.5,1.3
		S184,24.5,184.6,24.5z"/>
	<path class="st3" d="M192.7,12c0-0.4,0.1-0.6,0.3-0.8s0.4-0.3,0.7-0.3c0.3,0,0.5,0.1,0.7,0.3s0.3,0.4,0.3,0.8s-0.1,0.6-0.3,0.8
		s-0.4,0.3-0.7,0.3c-0.3,0-0.5-0.1-0.7-0.3S192.7,12.4,192.7,12z M194.4,25.6h-1.6V14.9h1.6V25.6z"/>
	<path class="st3" d="M205.2,25.6v-6.9c0-0.9-0.2-1.5-0.6-2s-1-0.6-1.9-0.6c-1.1,0-1.9,0.3-2.5,0.9s-0.8,1.6-0.8,3v5.6h-1.6V14.9
		h1.3l0.3,1.5h0.1c0.3-0.5,0.8-0.9,1.4-1.2s1.3-0.4,2-0.4c1.3,0,2.3,0.3,2.9,0.9c0.7,0.6,1,1.6,1,3v7H205.2z"/>
	<path class="st3" d="M103.1,42.4c0,2.4-0.6,4.2-1.9,5.4s-3.1,1.9-5.5,1.9h-4V35.4h4.4c2.2,0,3.9,0.6,5.2,1.8S103.1,40.2,103.1,42.4
		z M101.3,42.4c0-1.9-0.5-3.3-1.4-4.2s-2.3-1.4-4.2-1.4h-2.4v11.4h2c2,0,3.5-0.5,4.5-1.5S101.3,44.3,101.3,42.4z"/>
	<path class="st3" d="M110.5,49.8c-1.6,0-2.8-0.5-3.7-1.4s-1.4-2.3-1.4-4c0-1.7,0.4-3.1,1.3-4.1s2-1.5,3.4-1.5
		c1.3,0,2.4,0.4,3.2,1.3s1.2,2,1.2,3.5v1h-7.4c0,1.3,0.3,2.2,1,2.9s1.5,1,2.5,1c1.2,0,2.3-0.2,3.4-0.7v1.4c-0.6,0.2-1.1,0.4-1.6,0.5
		S111.3,49.8,110.5,49.8z M110.1,40.1c-0.9,0-1.5,0.3-2.1,0.8s-0.8,1.3-0.9,2.3h5.6c0-1-0.2-1.8-0.7-2.3S111,40.1,110.1,40.1z"/>
	<path class="st3" d="M119.6,49.6l-4.1-10.7h1.7l2.3,6.3c0.5,1.5,0.8,2.4,0.9,2.9h0.1c0.1-0.3,0.3-1.1,0.7-2.1s1.2-3.4,2.6-7.1h1.7
		l-4.1,10.7H119.6z"/>
	<path class="st3" d="M131.8,49.8c-1.6,0-2.8-0.5-3.7-1.4s-1.4-2.3-1.4-4c0-1.7,0.4-3.1,1.3-4.1s2-1.5,3.4-1.5
		c1.3,0,2.4,0.4,3.2,1.3s1.2,2,1.2,3.5v1h-7.4c0,1.3,0.3,2.2,1,2.9s1.5,1,2.5,1c1.2,0,2.3-0.2,3.4-0.7v1.4c-0.6,0.2-1.1,0.4-1.6,0.5
		S132.5,49.8,131.8,49.8z M131.4,40.1c-0.9,0-1.5,0.3-2.1,0.8s-0.8,1.3-0.9,2.3h5.6c0-1-0.2-1.8-0.7-2.3S132.2,40.1,131.4,40.1z"/>
	<path class="st3" d="M140.1,49.6h-1.6V34.4h1.6V49.6z"/>
	<path class="st3" d="M152.8,44.3c0,1.7-0.4,3.1-1.3,4.1s-2.1,1.5-3.6,1.5c-1,0-1.8-0.2-2.5-0.7s-1.3-1.1-1.7-1.9s-0.6-1.8-0.6-2.9
		c0-1.7,0.4-3.1,1.3-4.1s2.1-1.5,3.6-1.5c1.5,0,2.7,0.5,3.6,1.5S152.8,42.6,152.8,44.3z M144.6,44.3c0,1.4,0.3,2.4,0.8,3.1
		s1.4,1.1,2.4,1.1s1.9-0.4,2.4-1.1s0.8-1.8,0.8-3.1c0-1.4-0.3-2.4-0.8-3.1s-1.4-1.1-2.4-1.1c-1.1,0-1.9,0.3-2.4,1
		S144.6,42.9,144.6,44.3z"/>
	<path class="st3" d="M160.6,49.8c-0.7,0-1.3-0.1-1.9-0.4s-1.1-0.7-1.5-1.2h-0.1c0.1,0.6,0.1,1.2,0.1,1.8v4.4h-1.6V38.9h1.3l0.2,1.5
		h0.1c0.4-0.6,0.9-1,1.5-1.3s1.2-0.4,1.9-0.4c1.4,0,2.5,0.5,3.3,1.5s1.2,2.3,1.2,4.1c0,1.8-0.4,3.1-1.2,4.1S162,49.8,160.6,49.8z
		 M160.4,40.1c-1.1,0-1.9,0.3-2.4,0.9s-0.7,1.6-0.8,2.9v0.4c0,1.5,0.3,2.6,0.8,3.2s1.3,1,2.4,1c0.9,0,1.6-0.4,2.2-1.1
		s0.8-1.8,0.8-3.1c0-1.3-0.3-2.4-0.8-3.1S161.3,40.1,160.4,40.1z"/>
	<path class="st3" d="M172.4,49.8c-1.6,0-2.8-0.5-3.7-1.4s-1.4-2.3-1.4-4c0-1.7,0.4-3.1,1.3-4.1s2-1.5,3.4-1.5
		c1.3,0,2.4,0.4,3.2,1.3s1.2,2,1.2,3.5v1H169c0,1.3,0.3,2.2,1,2.9s1.5,1,2.5,1c1.2,0,2.3-0.2,3.4-0.7v1.4c-0.6,0.2-1.1,0.4-1.6,0.5
		S173.1,49.8,172.4,49.8z M172,40.1c-0.9,0-1.5,0.3-2.1,0.8s-0.8,1.3-0.9,2.3h5.6c0-1-0.2-1.8-0.7-2.3S172.8,40.1,172,40.1z"/>
	<path class="st3" d="M184,38.7c0.5,0,0.9,0,1.3,0.1l-0.2,1.5c-0.4-0.1-0.8-0.1-1.2-0.1c-0.9,0-1.6,0.4-2.2,1.1s-0.9,1.6-0.9,2.6
		v5.7h-1.6V38.9h1.3l0.2,2h0.1c0.4-0.7,0.9-1.2,1.4-1.6S183.3,38.7,184,38.7z"/>
	<path class="st3" d="M200.8,45.8c0,1.3-0.5,2.2-1.4,2.9s-2.1,1.1-3.7,1.1c-1.7,0-3-0.2-3.9-0.7v-1.6c0.6,0.2,1.2,0.4,1.9,0.6
		s1.4,0.2,2.1,0.2c1.1,0,1.9-0.2,2.5-0.6s0.8-1,0.8-1.8c0-0.5-0.1-0.9-0.3-1.2s-0.5-0.6-1-0.9s-1.2-0.6-2.1-0.9
		c-1.3-0.5-2.3-1-2.8-1.7s-0.9-1.5-0.9-2.5c0-1.1,0.4-2,1.2-2.6s1.9-1,3.3-1c1.4,0,2.7,0.3,3.9,0.8l-0.5,1.4
		c-1.2-0.5-2.3-0.7-3.4-0.7c-0.9,0-1.6,0.2-2.1,0.6s-0.7,0.9-0.7,1.6c0,0.5,0.1,0.9,0.3,1.2s0.5,0.6,0.9,0.9s1.1,0.6,2,0.9
		c1.5,0.5,2.5,1.1,3.1,1.7S200.8,44.9,200.8,45.8z"/>
	<path class="st3" d="M205,44.2c0.3-0.4,0.7-0.9,1.3-1.6l3.5-3.7h1.9l-4.3,4.6l4.6,6.1h-2l-3.8-5.1l-1.2,1.1v4h-1.6V34.4h1.6v8.1
		C205,42.9,205,43.4,205,44.2L205,44.2z"/>
	<path class="st3" d="M213.8,36c0-0.4,0.1-0.6,0.3-0.8s0.4-0.3,0.7-0.3c0.3,0,0.5,0.1,0.7,0.3s0.3,0.4,0.3,0.8s-0.1,0.6-0.3,0.8
		s-0.4,0.3-0.7,0.3c-0.3,0-0.5-0.1-0.7-0.3S213.8,36.4,213.8,36z M215.6,49.6h-1.6V38.9h1.6V49.6z"/>
	<path class="st3" d="M220.6,49.6H219V34.4h1.6V49.6z"/>
	<path class="st3" d="M225.7,49.6h-1.6V34.4h1.6V49.6z"/>
	<path class="st3" d="M236,46.7c0,1-0.4,1.8-1.1,2.3s-1.8,0.8-3.1,0.8c-1.4,0-2.5-0.2-3.3-0.7v-1.5c0.5,0.3,1.1,0.5,1.7,0.6
		s1.2,0.2,1.7,0.2c0.8,0,1.5-0.1,2-0.4s0.7-0.7,0.7-1.2c0-0.4-0.2-0.8-0.5-1.1s-1.1-0.6-2.1-1c-1-0.4-1.7-0.7-2.1-1
		s-0.7-0.6-0.9-0.9s-0.3-0.8-0.3-1.3c0-0.9,0.4-1.6,1.1-2.1s1.7-0.8,2.9-0.8c1.2,0,2.3,0.2,3.4,0.7l-0.6,1.3c-1.1-0.4-2-0.7-2.9-0.7
		c-0.8,0-1.3,0.1-1.7,0.4s-0.6,0.6-0.6,1c0,0.3,0.1,0.5,0.2,0.7s0.4,0.4,0.7,0.6s1,0.4,1.9,0.8c1.3,0.5,2.1,0.9,2.6,1.4
		S236,46,236,46.7z"/>
</g>
</svg>
